{
.formatVersion = 3;
axes = (
{
name = Weight;
tag = wght;
}
);
classes = (
{
code = "zero zero.zero one two three four five six seven eight nine";
name = Digit;
},
{
code = "a b c d e f A B C D E F";
name = DigitHex;
},
{
code = "space bullet periodcentered period";
name = SpaceExlusion;
},
{

glyphs = (
{
glyphname = .notdef;
layers = (
{
layerId = "E79C6012-54E0-4B47-AAB7-371DB4DAB7F2";
shapes = (
{
closed = 1;
nodes = (
(90,650,ls),
(90,704,o),
(126,730,o),
(180,730,cs),
(420,730,ls),
(474,730,o),
(510,704,o),
(510,650,cs),
(510,80,ls),
(510,26,o),
(474,0,o),
(420,0,cs),
(180,0,ls),
(126,0,o),
(90,26,o),
(90,80,cs)
);
},
{
closed = 1;
nodes = (
(370,120,ls),
(397,120,o),
(400,123,o),
(400,150,cs),
(400,580,ls),
(400,607,o),
(397,610,o),
(370,610,cs),
(230,610,ls),
(203,610,o),
(200,607,o),
(200,580,cs),
(200,150,ls),
(200,123,o),
(203,120,o),
(230,120,cs)
);
},
{
closed = 1;
nodes = (
(135,52,l),
(365,680,l),
(465,680,l),
(235,52,l)
);
},
{
closed = 1;
nodes = (
(365,52,l),
(135,680,l),
(235,680,l),
(465,52,l)
);
}
);
width = 600;
},
{
layerId = "921C946B-68A7-49D6-9396-60D462B577B8";
shapes = (
{
closed = 1;
nodes = (
(100,650,ls),
(100,704,o),
(126,730,o),
(180,730,cs),
(420,730,ls),
(474,730,o),
(500,704,o),
(500,650,cs),
(500,80,ls),
(500,26,o),
(474,0,o),
(420,0,cs),
(180,0,ls),
(126,0,o),
(100,26,o),
(100,80,cs)
);
},
{
closed = 1;
nodes = (
(370,90,ls),
(397,90,o),
(410,103,o),
(410,130,cs),
(410,600,ls),
(410,627,o),
(397,640,o),
(370,640,cs),
(230,640,ls),
(203,640,o),
(190,627,o),
(190,600,cs),
(190,130,ls),
(190,103,o),
(203,90,o),
(230,90,cs)
);
},
{
closed = 1;
nodes = (
(145,52,l),
(375,680,l),
(455,680,l),
(225,52,l)
);
},
{
closed = 1;
nodes = (
(375,52,l),
(145,680,l),
(225,680,l),
(455,52,l)
);
}
);
width = 600;
},
{
layerId = "A9EA4EA3-63FD-46BE-AE35-8F493BD0E280";
shapes = (
{
closed = 1;
nodes = (
(110,660,ls),
(110,704,o),
(136,730,o),
(180,730,cs),
(420,730,ls),
(464,730,o),
(490,704,o),
(490,660,cs),
(490,70,ls),
(490,26,o),
(464,0,o),
(420,0,cs),
(180,0,ls),
(136,0,o),
(110,26,o),
(110,70,cs)
);
},
{
closed = 1;
nodes = (
(370,60,ls),
(407,60,o),
(430,83,o),
(430,120,cs),
(430,610,ls),
(430,647,o),
(407,670,o),
(370,670,cs),
(230,670,ls),
(193,670,o),
(170,647,o),
(170,610,cs),
(170,120,ls),
(170,83,o),
(193,60,o),
(230,60,cs)
);
},
{
closed = 1;
nodes = (
(145,42,l),
(395,690,l),
(455,690,l),
(205,42,l)
);
},
{
closed = 1;
nodes = (
(395,42,l),
(145,690,l),
(205,690,l),
(455,42,l)
);
}
);
width = 600;
}
);
},
{
glyphname = A;
layers = (
{
anchors = (
{
name = bottom;
position = "{300, 0}";
},
{
name = ogonek;
position = "{482, 0}";
},
{
name = top;
position = "{300, 730}";
}
);
layerId = "E79C6012-54E0-4B47-AAB7-371DB4DAB7F2";
shapes = (
{
closed = 1;
nodes = (
(441,285,l),
(467,165,l),
(133,165,l),
(159,285,l)
);
},
{
closed = 1;
nodes = (
(305,526,ls),
(303,535,o),
(297,535,o),
(295,526,cs),
(179,39,ls),
(171,4,o),
(150,-10,o),
(109,-10,cs),
(48,-10,o),
(22,22,o),
(39,87,cs),
(181,637,ls),
(197,700,o),
(236,730,o),
(300,730,cs),
(364,730,o),
(403,700,o),
(419,637,cs),
(561,87,ls),
(578,22,o),
(549,-10,o),
(490,-10,cs),
(449,-10,o),
(429,6,o),
(421,39,cs)
);
}
);
width = 600;
},
{
anchors = (
{
name = bottom;
position = "{300, 0}";
},
{
name = ogonek;
position = "{500, 0}";
},
{
name = top;
position = "{300, 730}";
}
);
layerId = "921C946B-68A7-49D6-9396-60D462B577B8";
shapes = (
{
closed = 1;
nodes = (
(447,270,l),
(466,194,l),
(134,194,l),
(153,270,l)
);
},
{
closed = 1;
nodes = (
(305,601,ls),
(303,609,o),
(297,609,o),
(295,601,cs),
(137,19,ls),
(132,0,o),
(120,-10,o),
(95,-10,cs),
(60,-10,o),
(44,9,o),
(55,48,cs),
(225,671,ls),
(236,710,o),
(259,730,o),
(300,730,cs),
(341,730,o),
(364,710,o),
(375,671,cs),
(545,48,ls),
(556,9,o),
(540,-10,o),
(505,-10,cs),
(480,-10,o),
(468,0,o),
(463,19,cs)
);
}
);
width = 600;
},
{
anchors = (
{
name = bottom;
position = "{300, 0}";
},
{
name = ogonek;
position = "{505, 0}";
},
{
name = top;
position = "{300, 730}";
}
);
layerId = "A9EA4EA3-63FD-46BE-AE35-8F493BD0E280";
shapes = (
{
closed = 1;
nodes = (
(443,250,l),
(456,200,l),
(145,200,l),
(158,250,l)
);
},
{
closed = 1;
nodes = (
(304,650,ls),
(302,656,o),
(298,656,o),
(296,650,cs),
(116,7,ls),
(113,-4,o),
(107,-10,o),
(92,-10,cs),
(72,-10,o),
(63,1,o),
(69,23,cs),
(262,701,ls),
(267,720,o),
(280,730,o),
(300,730,cs),
(320,730,o),
(333,720,o),
(338,701,cs),
(531,23,ls),
(537,1,o),
(528,-10,o),
(508,-10,cs),
(493,-10,o),
(487,-4,o),
(484,7,cs)
);
}
);
width = 600;
}
);
unicode = 65;
},
{
glyphname = AE;
layers = (
{
layerId = "E79C6012-54E0-4B47-AAB7-371DB4DAB7F2";
shapes = (
{
closed = 1;
nodes = (
(24,0,o),
(4,23,o),
(13,70,cs),
(119,632,ls),
(131,698,o),
(170,730,o),
(237,730,cs),
(518,730,ls),
(560,730,o),
(580,710,o),
(580,668,cs),
(580,626,o),
(560,605,o),
(518,605,cs),
(441,605,ls),
(424,605,o),
(416,597,o),
(416,580,cs),
(416,461,ls),
(416,444,o),
(424,436,o),
(441,436,cs),
(489,436,ls),
(533,436,o),
(555,415,o),
(555,371,cs),
(555,327,o),
(533,305,o),
(489,305,cs),
(441,305,ls),
(424,305,o),
(416,297,o),
(416,280,cs),
(416,176,ls),
(416,142,o),
(433,126,o),
(466,126,cs),
(517,126,ls),
(559,126,o),
(580,105,o),
(580,63,cs),
(580,21,o),
(559,0,o),
(517,0,cs),
(391,0,ls),
(324,0,o),
(291,33,o),
(291,100,cs),
(291,140,ls),
(291,157,o),
(283,165,o),
(266,165,cs),
(194,165,ls),
(177,165,o),
(168,157,o),
(165,140,cs),
(154,71,ls),
(147,24,o),
(120,0,o),
(72,0,cs)
);
},
{
closed = 1;
nodes = (
(190,295,ls),
(187,278,o),
(194,270,o),
(211,270,cs),
(266,270,ls),
(283,270,o),
(291,278,o),
(291,295,cs),
(291,581,ls),
(291,597,o),
(283,605,o),
(267,605,cs),
(251,605,o),
(241,597,o),
(238,581,cs)
);
}
);
width = 600;
},
{
anchors = (
{
name = m.uni0308;
position = "{300, 730}";
},
{
name = m.uni0325_2;
position = "{300, 0}";
}
);
layerId = "921C946B-68A7-49D6-9396-60D462B577B8";
shapes = (
{
closed = 1;
nodes = (
(46,0,o),
(33,15,o),
(39,45,cs),
(159,652,ls),
(169,705,o),
(201,730,o),
(255,730,cs),
(530,730,ls),
(557,730,o),
(570,717,o),
(570,690,cs),
(570,663,o),
(557,648,o),
(530,648,cs),
(408,648,ls),
(395,648,o),
(388,641,o),
(388,628,cs),
(388,440,ls),
(388,427,o),
(395,420,o),
(408,420,cs),
(505,420,ls),
(532,420,o),
(545,407,o),
(545,380,cs),
(545,353,o),
(532,338,o),
(505,338,cs),
(408,338,ls),
(395,338,o),
(388,331,o),
(388,318,cs),
(388,122,ls),
(388,95,o),
(401,82,o),
(428,82,cs),
(530,82,ls),
(557,82,o),
(570,69,o),
(570,42,cs),
(570,15,o),
(557,0,o),
(530,0,cs),
(382,0,ls),
(328,0,o),
(302,26,o),
(302,80,cs),
(302,183,ls),
(302,196,o),
(295,203,o),
(282,203,cs),
(181,203,ls),
(168,203,o),
(160,196,o),
(157,183,cs),
(130,45,ls),
(124,15,o),
(106,0,o),
(76,0,cs)
);
},
{
closed = 1;
nodes = (
(179,298,ls),
(176,285,o),
(182,278,o),
(195,278,cs),
(282,278,ls),
(295,278,o),
(302,285,o),
(302,298,cs),
(302,620,ls),
(302,639,o),
(293,648,o),
(274,648,cs),
(255,648,o),
(245,639,o),
(241,621,cs)
);
}
);
width = 600;
},
{
layerId = "A9EA4EA3-63FD-46BE-AE35-8F493BD0E280";
shapes = (
{
closed = 1;
nodes = (
(42,0,o),
(36,8,o),
(40,24,cs),
(207,672,ls),
(217,711,o),
(242,730,o),
(282,730,cs),
(546,730,ls),
(561,730,o),
(569,723,o),
(569,708,cs),
(569,693,o),
(562,685,o),
(547,685,cs),
(375,685,ls),
(365,685,o),
(360,680,o),
(360,670,cs),
(360,417,ls),
(360,407,o),
(365,402,o),
(375,402,cs),
(511,402,ls),
(526,402,o),
(533,395,o),
(533,380,cs),
(533,365,o),
(526,357,o),
(511,357,cs),
(375,357,ls),
(365,357,o),
(360,352,o),
(360,342,cs),
(360,75,ls),
(360,55,o),
(370,45,o),
(390,45,cs),
(547,45,ls),
(562,45,o),
(569,38,o),
(569,23,cs),
(569,8,o),
(561,0,o),
(546,0,cs),
(370,0,ls),
(330,0,o),
(310,20,o),
(310,60,cs),
(310,200,ls),
(310,210,o),
(305,215,o),
(295,215,cs),
(155,215,ls),
(145,215,o),
(139,210,o),
(136,200,cs),
(90,24,ls),
(86,8,o),
(76,0,o),
(59,0,cs)
);
},
{
closed = 1;
nodes = (
(157,275,ls),
(155,265,o),
(158,260,o),
(168,260,cs),
(295,260,ls),
(305,260,o),
(310,265,o),
(310,275,cs),
(310,659,ls),
(310,676,o),
(302,685,o),
(285,685,cs),
(268,685,o),
(257,677,o),
(253,660,cs)
);
}
);
width = 600;
}
);
unicode = 198;
},
{
glyphname = B;
layers = (
{
anchors = (
{
name = bottom;
position = "{300, 0}";
},
{
name = top;
position = "{300, 730}";
}
);
layerId = "E79C6012-54E0-4B47-AAB7-371DB4DAB7F2";
shapes = (
{
closed = 1;
nodes = (
(301,730,ls),
(447,730,o),
(544,655,o),
(544,541,cs),
(544,459,o),
(494,397,o),
(422,387,c),
(504,378,o),
(561,304,o),
(561,210,cs),
(561,84,o),
(460,0,o),
(310,0,cs),
(166,0,ls),
(99,0,o),
(66,33,o),
(66,100,cs),
(66,630,ls),
(66,697,o),
(99,730,o),
(166,730,cs)
);
},
{
closed = 1;
nodes = (
(211,310,l),
(211,185,l),
(211,152,o),
(227,135,o),
(261,135,cs),
(305,135,ls),
(370,135,o),
(410,168,o),
(410,224,cs),
(410,280,o),
(370,310,o),
(305,310,cs)
);
},
{
closed = 1;
nodes = (
(211,450,l),
(299,450,ls),
(355,450,o),
(393,469,o),
(393,523,cs),
(393,577,o),
(355,595,o),
(299,595,cs),
(261,595,ls),
(227,595,o),
(211,578,o),
(211,545,cs)
);
}
);
width = 600;
},
{
anchors = (
{
name = bottom;
position = "{300, 0}";
},
{
name = top;
position = "{300, 730}";
}
);
layerId = "921C946B-68A7-49D6-9396-60D462B577B8";
shapes = (
{
closed = 1;
nodes = (
(301,730,ls),
(433,730,o),
(513,659,o),
(513,547,cs),
(513,456,o),
(461,396,o),
(385,381,c),
(471,370,o),
(530,305,o),
(530,201,cs),
(530,78,o),
(448,0,o),
(315,0,cs),
(174,0,ls),
(119,0,o),
(93,26,o),
(93,80,cs),
(93,650,ls),
(93,704,o),
(119,730,o),
(174,730,cs)
);
},
{
closed = 1;
nodes = (
(182,335,l),
(182,130,l),
(182,103,o),
(195,90,o),
(222,90,cs),
(305,90,ls),
(389,90,o),
(441,130,o),
(441,208,cs),
(441,287,o),
(389,335,o),
(305,335,cs)
);
},
{
closed = 1;
nodes = (
(182,425,l),
(300,425,ls),
(377,425,o),
(424,463,o),
(424,534,cs),
(424,605,o),
(378,640,o),
(301,640,cs),
(222,640,ls),
(195,640,o),
(182,627,o),
(182,600,cs)
);
}
);
width = 600;
},
{
anchors = (
{
name = bottom;
position = "{300, 0}";
},
{
name = top;
position = "{300, 730}";
}
);
layerId = "A9EA4EA3-63FD-46BE-AE35-8F493BD0E280";
shapes = (
{
closed = 1;
nodes = (
(298,730,ls),
(419,730,o),
(498,656,o),
(498,547,cs),
(498,457,o),
(445,382,o),
(375,377,c),
(461,367,o),
(515,298,o),
(515,200,cs),
(515,78,o),
(433,0,o),
(301,0,cs),
(170,0,ls),
(130,0,o),
(110,20,o),
(110,60,cs),
(110,670,ls),
(110,710,o),
(130,730,o),
(170,730,cs)
);
},
{
closed = 1;
nodes = (
(160,353,l),
(160,80,l),
(160,60,o),
(170,50,o),
(190,50,cs),
(301,50,ls),
(403,50,o),
(465,104,o),
(465,199,cs),
(465,294,o),
(403,353,o),
(301,353,cs)
);
},
{
closed = 1;
nodes = (
(160,398,l),
(298,398,ls),
(392,398,o),
(448,452,o),
(448,541,cs),
(448,630,o),
(391,680,o),
(298,680,cs),
(190,680,ls),
(170,680,o),
(160,670,o),
(160,650,cs)
);
}
);
width = 600;
}
);
unicode = 66;
},
{
glyphname = C;
layers = (
{
layerId = "E79C6012-54E0-4B47-AAB7-371DB4DAB7F2";
shapes = (
{
closed = 1;
nodes = (
(50,567,o),
(134,740,o),
(357,740,cs),
(475,740,o),
(526,691,o),
(547,636,cs),
(563,593,o),
(558,553,o),
(526,537,cs),
(499,524,o),
(458,533,o),
(438,567,cs),
(425,589,o),
(398,608,o),
(353,608,cs),
(233,608,o),
(200,476,o),
(200,361,cs),
(200,260,o),
(225,125,o),
(354,125,cs),
(398,125,o),
(427,141,o),
(442,156,cs),
(468,182,o),
(504,180,o),
(527,157,cs),
(550,135,o),
(561,93,o),
(533,54,cs),
(498,6,o),
(425,-10,o),
(352,-10,cs),
(110,-10,o),
(50,169,o),
(50,351,cs)
);
}
);
width = 600;
},
{
layerId = "921C946B-68A7-49D6-9396-60D462B577B8";
shapes = (
{
closed = 1;
nodes = (
(60,569,o),
(143,740,o),
(356,740,cs),
(467,740,o),
(520,694,o),
(539,646,cs),
(551,614,o),
(543,594,o),
(525,583,cs),
(507,573,o),
(482,573,o),
(464,600,cs),
(447,625,o),
(409,650,o),
(351,650,cs),
(216,650,o),
(150,516,o),
(150,367,cs),
(150,238,o),
(200,80,o),
(358,80,cs),
(396,80,o),
(442,89,o),
(467,108,cs),
(490,126,o),
(516,123,o),
(533,106,cs),
(550,89,o),
(552,63,o),
(526,37,cs),
(486,-3,o),
(415,-10,o),
(354,-10,cs),
(141,-10,o),
(60,168,o),
(60,367,cs)
);
}
);
width = 600;
},
{
layerId = "A9EA4EA3-63FD-46BE-AE35-8F493BD0E280";
shapes = (
{
closed = 1;
nodes = (
(70,569,o),
(151,740,o),
(353,740,cs),
(447,740,o),
(505,703,o),
(522,669,cs),
(530,653,o),
(531,634,o),
(516,627,cs),
(506,622,o),
(492,625,o),
(484,639,cs),
(472,662,o),
(425,690,o),
(374,690,cs),
(187,690,o),
(120,522,o),
(120,366,cs),
(120,220,o),
(179,40,o),
(358,40,cs),
(391,40,o),
(452,46,o),
(480,67,cs),
(498,81,o),
(515,78,o),
(523,68,cs),
(530,59,o),
(531,43,o),
(522,36,cs),
(476,-3,o),
(415,-10,o),
(358,-10,cs),
(149,-10,o),
(70,168,o),
(70,367,cs)
);
}
);
width = 600;
}
);
unicode = 67;
},
{
glyphname = D;
layers = (
{
layerId = "E79C6012-54E0-4B47-AAB7-371DB4DAB7F2";
shapes = (
{
closed = 1;
nodes = (
(153,0,ls),
(93,0,o),
(63,30,o),
(63,90,cs),
(63,640,ls),
(63,700,o),
(93,730,o),
(153,730,cs),
(270,730,ls),
(500,730,o),
(564,572,o),
(564,364,cs),
(564,161,o),
(503,0,o),
(270,0,cs)
);
},
{
closed = 1;
nodes = (
(213,175,ls),
(213,148,o),
(226,135,o),
(253,135,cs),
(270,135,ls),
(399,135,o),
(421,257,o),
(421,370,cs),
(421,475,o),
(402,595,o),
(270,595,cs),
(253,595,ls),
(226,595,o),
(213,582,o),
(213,555,cs)
);
}
);
width = 600;
},
{
layerId = "921C946B-68A7-49D6-9396-60D462B577B8";
shapes = (
{
closed = 1;
nodes = (
(172,0,ls),
(118,0,o),
(92,26,o),
(92,80,cs),
(92,650,ls),
(92,704,o),
(118,730,o),
(172,730,cs),
(261,730,ls),
(473,730,o),
(528,559,o),
(528,361,cs),
(528,182,o),
(483,0,o),
(261,0,cs)
);
},
{
closed = 1;
nodes = (
(182,130,ls),
(182,103,o),
(195,90,o),
(222,90,cs),
(261,90,ls),
(416,90,o),
(446,243,o),
(446,365,cs),
(446,489,o),
(415,640,o),
(261,640,cs),
(222,640,ls),
(195,640,o),
(182,627,o),
(182,600,cs)
);
}
);
width = 600;
},
{
layerId = "A9EA4EA3-63FD-46BE-AE35-8F493BD0E280";
shapes = (
{
closed = 1;
nodes = (
(181,0,ls),
(133,0,o),
(110,23,o),
(110,70,cs),
(110,660,ls),
(110,707,o),
(133,730,o),
(181,730,cs),
(231,730,ls),
(464,730,o),
(504,572,o),
(504,356,cs),
(504,166,o),
(473,0,o),
(231,0,cs)
);
},
{
closed = 1;
nodes = (
(161,85,ls),
(161,62,o),
(173,50,o),
(196,50,cs),
(231,50,ls),
(435,50,o),
(453,191,o),
(453,362,cs),
(453,537,o),
(434,680,o),
(231,680,cs),
(196,680,ls),
(173,680,o),
(161,668,o),
(161,645,cs)
);
}
);
width = 600;
}
);
unicode = 68;
},
{
glyphname = E;
layers = (
{
layerId = "E79C6012-54E0-4B47-AAB7-371DB4DAB7F2";
shapes = (
{
closed = 1;
nodes = (
(230,440,l),
(433,440,ls),
(475,440,o),
(500,417,o),
(500,375,cs),
(500,333,o),
(475,310,o),
(433,310,cs),
(230,310,l),
(230,170,ls),
(230,143,o),
(243,130,o),
(270,130,cs),
(465,130,ls),
(509,130,o),
(530,109,o),
(530,65,cs),
(530,21,o),
(509,0,o),
(465,0,cs),
(180,0,ls),
(113,0,o),
(80,33,o),
(80,100,cs),
(80,630,ls),
(80,697,o),
(113,730,o),
(180,730,cs),
(465,730,ls),
(509,730,o),
(530,709,o),
(530,665,cs),
(530,621,o),
(509,600,o),
(465,600,cs),
(270,600,ls),
(241,600,o),
(230,588,o),
(230,560,cs)
);
}
);
width = 600;
},
{
layerId = "921C946B-68A7-49D6-9396-60D462B577B8";
shapes = (
{
closed = 1;
nodes = (
(190,427,l),
(445,427,ls),
(472,427,o),
(490,409,o),
(490,382,cs),
(490,355,o),
(472,337,o),
(445,337,cs),
(190,337,l),
(190,130,ls),
(190,103,o),
(203,90,o),
(230,90,cs),
(479,90,ls),
(506,90,o),
(520,72,o),
(520,45,cs),
(520,18,o),
(506,0,o),
(479,0,cs),
(180,0,ls),
(126,0,o),
(100,26,o),
(100,80,cs),
(100,650,ls),
(100,704,o),
(126,730,o),
(180,730,cs),
(479,730,ls),
(506,730,o),
(520,712,o),
(520,685,cs),
(520,658,o),
(506,640,o),
(479,640,cs),
(230,640,ls),
(203,640,o),
(190,627,o),
(190,600,cs)
);
}
);
width = 600;
},
{
layerId = "A9EA4EA3-63FD-46BE-AE35-8F493BD0E280";
shapes = (
{
closed = 1;
nodes = (
(170,406,l),
(453,406,ls),
(468,406,o),
(475,396,o),
(475,381,cs),
(475,366,o),
(468,356,o),
(453,356,cs),
(170,356,l),
(170,85,ls),
(170,62,o),
(182,50,o),
(205,50,cs),
(487,50,ls),
(502,50,o),
(510,40,o),
(510,25,cs),
(510,10,o),
(502,0,o),
(487,0,cs),
(190,0,ls),
(143,0,o),
(120,23,o),
(120,70,cs),
(120,660,ls),
(120,707,o),
(143,730,o),
(190,730,cs),
(487,730,ls),
(502,730,o),
(510,720,o),
(510,705,cs),
(510,690,o),
(502,680,o),
(487,680,cs),
(205,680,ls),
(182,680,o),
(170,668,o),
(170,645,cs)
);
}
);
width = 600;
}
);
unicode = 69;
},
{
glyphname = Eopen;
layers = (
{
layerId = "E79C6012-54E0-4B47-AAB7-371DB4DAB7F2";
shapes = (
{
closed = 1;
nodes = (
(555,561,o),
(522,520,o),
(451,520,cs),
(424,520,o),
(410,531,o),
(391,568,cs),
(376,598,o),
(346,616,o),
(307,616,cs),
(255,616,o),
(214,583,o),
(214,529,cs),
(214,465,o),
(254,440,o),
(301,440,cs),
(329,440,ls),
(371,440,o),
(391,420,o),
(391,378,cs),
(391,336,o),
(371,316,o),
(329,316,cs),
(301,316,ls),
(246,316,o),
(196,288,o),
(196,217,cs),
(196,152,o),
(249,118,o),
(309,118,cs),
(348,118,o),
(389,132,o),
(409,163,cs),
(432,198,o),
(448,210,o),
(471,210,cs),
(542,210,o),
(575,168,o),
(547,114,cs),
(505,31,o),
(409,-10,o),
(309,-10,cs),
(177,-10,o),
(44,59,o),
(44,207,cs),
(44,291,o),
(95,368,o),
(179,386,c),
(105,399,o),
(64,469,o),
(64,541,cs),
(64,676,o),
(184,740,o),
(305,740,cs),
(403,740,o),
(491,696,o),
(529,616,cs)
);
}
);
width = 600;
},
{
anchors = (
{
name = m.uni0308;
position = "{300, 730}";
},
{
name = m.uni0325_2;
position = "{300, 0}";
}
);
layerId = "921C946B-68A7-49D6-9396-60D462B577B8";
shapes = (
{
closed = 1;
nodes = (
(531,553,o),
(510,530,o),
(468,530,cs),
(449,530,o),
(439,539,o),
(435,560,cs),
(423,622,o),
(373,660,o),
(305,660,cs),
(234,660,o),
(179,616,o),
(179,542,cs),
(179,448,o),
(250,420,o),
(308,420,cs),
(354,420,ls),
(381,420,o),
(394,407,o),
(394,380,cs),
(394,353,o),
(381,340,o),
(354,340,cs),
(308,340,ls),
(226,340,o),
(158,292,o),
(158,205,cs),
(158,118,o),
(226,70,o),
(308,70,cs),
(377,70,o),
(440,104,o),
(455,170,cs),
(460,191,o),
(469,200,o),
(488,200,cs),
(530,200,o),
(550,178,o),
(539,141,cs),
(511,43,o),
(416,-10,o),
(309,-10,cs),
(183,-10,o),
(66,61,o),
(66,199,cs),
(66,286,o),
(116,368,o),
(206,384,c),
(131,403,o),
(89,477,o),
(89,551,cs),
(89,674,o),
(191,740,o),
(305,740,cs),
(411,740,o),
(496,685,o),
(521,590,cs)
);
}
);
width = 600;
},
{
layerId = "A9EA4EA3-63FD-46BE-AE35-8F493BD0E280";
shapes = (
{
closed = 1;
nodes = (
(519,541,o),
(508,530,o),
(485,530,cs),
(474,530,o),
(468,536,o),
(467,547,cs),
(460,635,o),
(398,696,o),
(306,696,cs),
(218,696,o),
(153,639,o),
(153,549,cs),
(153,458,o),
(217,401,o),
(306,401,cs),
(353,401,ls),
(368,401,o),
(375,394,o),
(375,379,cs),
(375,364,o),
(367,356,o),
(352,356,cs),
(310,356,ls),
(213,356,o),
(133,299,o),
(133,196,cs),
(133,93,o),
(213,35,o),
(310,35,cs),
(402,35,o),
(478,86,o),
(486,179,cs),
(487,190,o),
(493,196,o),
(504,196,cs),
(527,196,o),
(538,184,o),
(535,163,cs),
(519,52,o),
(424,-10,o),
(310,-10,cs),
(187,-10,o),
(83,63,o),
(83,194,cs),
(83,282,o),
(137,360,o),
(224,381,c),
(147,397,o),
(103,471,o),
(103,547,cs),
(103,665,o),
(191,740,o),
(306,740,cs),
(421,740,o),
(502,670,o),
(516,563,cs)
);
}
);
width = 600;
}
);
unicode = 400;
},
{
glyphname = Schwa;
layers = (
{
layerId = "E79C6012-54E0-4B47-AAB7-371DB4DAB7F2";
shapes = (
{
closed = 1;
nodes = (
(185,310,ls),
(176,310,o),
(172,305,o),
(173,296,cs),
(186,158,o),
(223,115,o),
(295,115,cs),
(364,115,o),
(411,157,o),
(424,294,cs),
(425,304,o),
(422,310,o),
(411,310,cs)
);
},
{
closed = 1;
nodes = (
(476,740,o),
(568,593,o),
(568,373,cs),
(568,143,o),
(477,-10,o),
(295,-10,cs),
(104,-10,o),
(37,131,o),
(37,365,cs),
(37,409,o),
(57,430,o),
(98,430,cs),
(411,430,ls),
(424,430,o),
(428,435,o),
(427,445,cs),
(414,565,o),
(355,620,o),
(285,620,cs),
(204,620,o),
(170,570,o),
(147,556,cs),
(134,548,o),
(123,542,o),
(113,542,cs),
(79,542,o),
(52,572,o),
(52,603,cs),
(52,620,o),
(59,632,o),
(71,645,cs),
(120,698,o),
(185,740,o),
(295,740,cs)
);
}
);
width = 600;
},
{
layerId = "921C946B-68A7-49D6-9396-60D462B577B8";
shapes = (
{
closed = 1;
nodes = (
(171,330,ls),
(160,330,o),
(155,327,o),
(155,314,cs),
(155,160,o),
(205,80,o),
(300,80,cs),
(399,80,o),
(460,180,o),
(460,316,cs),
(460,329,o),
(453,330,o),
(444,330,cs)
);
},
{
closed = 1;
nodes = (
(453,740,o),
(550,612,o),
(550,373,cs),
(550,145,o),
(475,-10,o),
(300,-10,cs),
(126,-10,o),
(58,127,o),
(58,373,cs),
(58,397,o),
(77,420,o),
(105,420,cs),
(442,420,ls),
(455,420,o),
(460,425,o),
(460,439,cs),
(460,563,o),
(389,650,o),
(290,650,cs),
(209,650,o),
(158,596,o),
(134,577,cs),
(126,571,o),
(124,568,o),
(114,568,cs),
(89,568,o),
(70,590,o),
(70,612,cs),
(70,624,o),
(75,634,o),
(83,642,cs),
(133,690,o),
(203,740,o),
(293,740,cs)
);
}
);
width = 600;
},
{
layerId = "A9EA4EA3-63FD-46BE-AE35-8F493BD0E280";
shapes = (
{
closed = 1;
nodes = (
(126,342,ls),
(120,342,o),
(118,339,o),
(118,332,cs),
(118,151,o),
(170,40,o),
(300,40,cs),
(430,40,o),
(484,161,o),
(484,332,cs),
(484,338,o),
(482,342,o),
(476,342,cs)
);
},
{
closed = 1;
nodes = (
(468,730,o),
(538,594,o),
(538,373,cs),
(538,142,o),
(480,-10,o),
(300,-10,cs),
(120,-10,o),
(68,128,o),
(68,362,cs),
(68,377,o),
(79,392,o),
(95,392,cs),
(477,392,ls),
(482,392,o),
(487,396,o),
(487,403,cs),
(487,572,o),
(409,680,o),
(295,680,cs),
(199,680,o),
(164,637,o),
(130,601,cs),
(121,591,o),
(116,586,o),
(108,586,cs),
(93,586,o),
(81,604,o),
(81,618,cs),
(81,625,o),
(84,631,o),
(89,636,cs),
(140,690,o),
(190,730,o),
(295,730,cs)
);
}
);
width = 600;
}
);
unicode = 399;
},
{
glyphname = F;
layers = (
{
layerId = "E79C6012-54E0-4B47-AAB7-371DB4DAB7F2";
shapes = (
{
closed = 1;
nodes = (
(220,436,l),
(452,436,ls),
(494,436,o),
(514,416,o),
(514,374,cs),
(514,332,o),
(494,312,o),
(452,312,cs),
(220,312,l),
(220,75,ls),
(220,25,o),
(195,0,o),
(145,0,cs),
(95,0,o),
(70,25,o),
(70,75,cs),
(70,640,ls),
(70,700,o),
(100,730,o),
(160,730,cs),
(475,730,ls),
(519,730,o),
(540,709,o),
(540,665,cs),
(540,621,o),
(519,600,o),
(475,600,cs),
(260,600,ls),
(233,600,o),
(220,588,o),
(220,560,cs)
);
}
);
width = 600;
},
{
layerId = "921C946B-68A7-49D6-9396-60D462B577B8";
shapes = (
{
closed = 1;
nodes = (
(185,427,l),
(459,427,ls),
(486,427,o),
(499,414,o),
(499,387,cs),
(499,360,o),
(486,347,o),
(459,347,cs),
(185,347,l),
(185,45,ls),
(185,15,o),
(170,0,o),
(140,0,cs),
(110,0,o),
(95,15,o),
(95,45,cs),
(95,650,ls),
(95,704,o),
(121,730,o),
(175,730,cs),
(480,730,ls),
(510,730,o),
(525,715,o),
(525,685,cs),
(525,655,o),
(510,640,o),
(480,640,cs),
(225,640,ls),
(198,640,o),
(185,627,o),
(185,600,cs)
);
}
);
width = 600;
},
{
layerId = "A9EA4EA3-63FD-46BE-AE35-8F493BD0E280";
shapes = (
{
closed = 1;
nodes = (
(165,406,l),
(465,406,ls),
(482,406,o),
(490,398,o),
(490,381,cs),
(490,364,o),
(482,356,o),
(465,356,cs),
(165,356,l),
(165,25,ls),
(165,8,o),
(157,0,o),
(140,0,cs),
(123,0,o),
(115,8,o),
(115,25,cs),
(115,660,ls),
(115,707,o),
(138,730,o),
(185,730,cs),
(500,730,ls),
(517,730,o),
(525,722,o),
(525,705,cs),
(525,688,o),
(517,680,o),
(500,680,cs),
(200,680,ls),
(177,680,o),
(165,668,o),
(165,645,cs)
);
}
);
width = 600;
}
);
unicode = 70;
},
{
glyphname = G;
layers = (
{
layerId = "E79C6012-54E0-4B47-AAB7-371DB4DAB7F2";
shapes = (
{
closed = 1;
nodes = (
(418,248,ls),
(418,275,o),
(405,288,o),
(378,288,cs),
(340,288,ls),
(300,288,o),
(280,308,o),
(280,348,cs),
(280,388,o),
(300,408,o),
(340,408,cs),
(428,408,ls),
(508,408,o),
(548,368,o),
(548,288,cs),
(548,206,ls),
(548,88,o),
(468,-10,o),
(309,-10,cs),
(83,-10,o),
(20,186,o),
(24,365,cs),
(29,558,o),
(81,740,o),
(293,740,cs),
(389,740,o),
(482,703,o),
(518,621,cs),
(546,559,o),
(519,520,o),
(452,520,cs),
(420,520,o),
(405,529,o),
(399,546,cs),
(389,573,o),
(349,605,o),
(300,605,cs),
(191,605,o),
(175,443,o),
(173,365,cs),
(171,278,o),
(182,125,o),
(300,125,cs),
(378,125,o),
(418,160,o),
(418,210,cs)
);
}
);
width = 600;
},
{
layerId = "921C946B-68A7-49D6-9396-60D462B577B8";
shapes = (
{
closed = 1;
nodes = (
(428,270,ls),
(428,297,o),
(415,300,o),
(388,300,cs),
(325,300,ls),
(295,300,o),
(280,315,o),
(280,345,cs),
(280,375,o),
(295,390,o),
(325,390,cs),
(438,390,ls),
(492,390,o),
(518,364,o),
(518,310,cs),
(518,200,ls),
(518,54,o),
(414,-10,o),
(300,-10,cs),
(92,-10,o),
(49,200,o),
(52,365,cs),
(56,535,o),
(87,741,o),
(301,741,cs),
(410,741,o),
(474,689,o),
(505,589,cs),
(516,552,o),
(499,531,o),
(462,531,cs),
(439,531,o),
(427,539,o),
(419,568,cs),
(404,624,o),
(360,651,o),
(303,651,cs),
(155,651,o),
(144,471,o),
(142,365,cs),
(140,255,o),
(152,80,o),
(308,80,cs),
(375,80,o),
(428,113,o),
(428,200,cs)
);
}
);
width = 600;
},
{
layerId = "A9EA4EA3-63FD-46BE-AE35-8F493BD0E280";
shapes = (
{
closed = 1;
nodes = (
(460,288,ls),
(460,308,o),
(450,318,o),
(430,318,cs),
(305,318,ls),
(288,318,o),
(280,326,o),
(280,343,cs),
(280,360,o),
(288,368,o),
(305,368,cs),
(450,368,ls),
(490,368,o),
(510,348,o),
(510,308,cs),
(510,200,ls),
(510,63,o),
(450,-10,o),
(300,-10,cs),
(110,-10,o),
(78,213,o),
(78,361,cs),
(78,514,o),
(97,741,o),
(306,741,cs),
(423,741,o),
(476,670,o),
(504,564,cs),
(510,543,o),
(500,531,o),
(479,531,cs),
(466,531,o),
(460,536,o),
(457,547,cs),
(436,635,o),
(384,691,o),
(300,691,cs),
(139,691,o),
(128,479,o),
(128,368,cs),
(128,242,o),
(142,40,o),
(300,40,cs),
(413,40,o),
(460,93,o),
(460,200,cs)
);
}
);
width = 600;
}
);
unicode = 71;
},
{
glyphname = H;
layers = (
{
layerId = "E79C6012-54E0-4B47-AAB7-371DB4DAB7F2";
shapes = (
{
closed = 1;
nodes = (
(384,309,l),
(216,309,l),
(216,65,ls),
(216,15,o),
(191,-10,o),
(141,-10,cs),
(91,-10,o),
(66,15,o),
(66,65,cs),
(66,665,ls),
(66,715,o),
(91,740,o),
(141,740,cs),
(191,740,o),
(216,715,o),
(216,665,cs),
(216,449,l),
(384,449,l),
(384,665,ls),
(384,715,o),
(409,740,o),
(459,740,cs),
(509,740,o),
(534,715,o),
(534,665,cs),
(534,65,ls),
(534,15,o),
(509,-10,o),
(459,-10,cs),
(409,-10,o),
(384,15,o),
(384,65,cs)
);
}
);
width = 600;
},
{
layerId = "921C946B-68A7-49D6-9396-60D462B577B8";
shapes = (
{
closed = 1;
nodes = (
(417,332,l),
(183,332,l),
(183,35,ls),
(183,5,o),
(168,-10,o),
(138,-10,cs),
(108,-10,o),
(93,5,o),
(93,35,cs),
(93,695,ls),
(93,725,o),
(108,740,o),
(138,740,cs),
(168,740,o),
(183,725,o),
(183,695,cs),
(183,422,l),
(417,422,l),
(417,695,ls),
(417,725,o),
(432,740,o),
(462,740,cs),
(492,740,o),
(507,725,o),
(507,695,cs),
(507,35,ls),
(507,5,o),
(492,-10,o),
(462,-10,cs),
(432,-10,o),
(417,5,o),
(417,35,cs)
);
}
);
width = 600;
},
{
layerId = "A9EA4EA3-63FD-46BE-AE35-8F493BD0E280";
shapes = (
{
closed = 1;
nodes = (
(440,355,l),
(160,355,l),
(160,15,ls),
(160,-2,o),
(152,-10,o),
(135,-10,cs),
(118,-10,o),
(110,-2,o),
(110,15,cs),
(110,705,ls),
(110,722,o),
(118,730,o),
(135,730,cs),
(152,730,o),
(160,722,o),
(160,705,cs),
(160,405,l),
(440,405,l),
(440,705,ls),
(440,722,o),
(448,730,o),
(465,730,cs),
(482,730,o),
(490,722,o),
(490,705,cs),
(490,15,ls),
(490,-2,o),
(482,-10,o),
(465,-10,cs),
(448,-10,o),
(440,-2,o),
(440,15,cs)
);
}
);
width = 600;
}
);
unicode = 72;
},
{
glyphname = I;
layers = (
{
layerId = "E79C6012-54E0-4B47-AAB7-371DB4DAB7F2";
shapes = (
{
closed = 1;
nodes = (
(375,135,l),
(452,135,ls),
(497,135,o),
(520,113,o),
(520,68,cs),
(520,23,o),
(497,0,o),
(452,0,cs),
(148,0,ls),
(103,0,o),
(80,23,o),
(80,68,cs),
(80,113,o),
(103,135,o),
(148,135,cs),
(225,135,l),
(225,595,l),
(148,595,ls),
(103,595,o),
(80,618,o),
(80,663,cs),
(80,708,o),
(103,730,o),
(148,730,cs),
(452,730,ls),
(497,730,o),
(520,708,o),
(520,663,cs),
(520,618,o),
(497,595,o),
(452,595,cs),
(375,595,l)
);
}
);
width = 600;
},
{
layerId = "921C946B-68A7-49D6-9396-60D462B577B8";
shapes = (
{
closed = 1;
nodes = (
(346,90,l),
(450,90,ls),
(477,90,o),
(495,72,o),
(495,45,cs),
(495,18,o),
(477,0,o),
(450,0,cs),
(150,0,ls),
(123,0,o),
(105,18,o),
(105,45,cs),
(105,72,o),
(123,90,o),
(150,90,cs),
(254,90,l),
(254,640,l),
(150,640,ls),
(123,640,o),
(105,658,o),
(105,685,cs),
(105,712,o),
(123,730,o),
(150,730,cs),
(450,730,ls),
(477,730,o),
(495,712,o),
(495,685,cs),
(495,658,o),
(477,640,o),
(450,640,cs),
(346,640,l)
);
}
);
width = 600;
},
{
layerId = "A9EA4EA3-63FD-46BE-AE35-8F493BD0E280";
shapes = (
{
closed = 1;
nodes = (
(324,50,l),
(455,50,ls),
(470,50,o),
(480,40,o),
(480,25,cs),
(480,10,o),
(470,0,o),
(455,0,cs),
(145,0,ls),
(130,0,o),
(120,10,o),
(120,25,cs),
(120,40,o),
(130,50,o),
(145,50,cs),
(276,50,l),
(276,680,l),
(145,680,ls),
(130,680,o),
(120,690,o),
(120,705,cs),
(120,720,o),
(130,730,o),
(145,730,cs),
(455,730,ls),
(470,730,o),
(480,720,o),
(480,705,cs),
(480,690,o),
(470,680,o),
(455,680,cs),
(324,680,l)
);
}
);
width = 600;
}
);
unicode = 73;
},
{
glyphname = IJ;
layers = (
{
layerId = "E79C6012-54E0-4B47-AAB7-371DB4DAB7F2";
shapes = (
{
closed = 1;
nodes = (
(55,116,o),
(85,151,o),
(148,151,cs),
(177,151,o),
(197,135,o),
(226,91,c),
(231,84,o),
(237,78,qs),
(264,51,o),
(310,50,q),
(356,50,o),
(410,103,o),
(410,149,qs),
(410,545,ls),
(410,579,o),
(393,595,o),
(360,595,cs),
(300,595,ls),
(283,595,o),
(275,587,o),
(275,570,cs),
(275,360,ls),
(275,343,o),
(283,335,o),
(300,335,cs),
(302,335,ls),
(347,335,o),
(370,313,o),
(370,268,cs),
(370,223,o),
(347,200,o),
(302,200,cs),
(98,200,ls),
(53,200,o),
(30,223,o),
(30,268,cs),
(30,313,o),
(53,335,o),
(98,335,cs),
(100,335,ls),
(117,335,o),
(125,343,o),
(125,360,cs),
(125,570,ls),
(125,587,o),
(117,595,o),
(100,595,cs),
(98,595,ls),
(53,595,o),
(30,618,o),
(30,663,cs),
(30,708,o),
(53,730,o),
(98,730,cs),
(440,730,ls),
(520,730,o),
(560,690,o),
(560,610,cs),
(560,149,ls),
(560,43,o),
(426,-80,o),
(310,-80,qs),
(196,-80,o),
(128,-17,qs),
(91,17,o),
(74,64,qs)
);
}
);
width = 600;
},
{
layerId = "921C946B-68A7-49D6-9396-60D462B577B8";
shapes = (
{
closed = 1;
nodes = (
(94,124,o),
(109,140,o),
(140,140,cs),
(168,140,o),
(182,127,o),
(190,95,cs),
(199,62,o),
(221,42,qs),
(257,10,o),
(320,10,qs),
(384,9,o),
(455,73,o),
(455,140,qs),
(455,600,ls),
(455,627,o),
(442,640,o),
(415,640,cs),
(269,640,ls),
(256,640,o),
(249,633,o),
(249,620,cs),
(249,310,ls),
(249,297,o),
(256,290,o),
(269,290,cs),
(303,290,ls),
(330,290,o),
(348,272,o),
(348,245,cs),
(348,218,o),
(330,200,o),
(303,200,cs),
(103,200,ls),
(76,200,o),
(58,218,o),
(58,245,cs),
(58,272,o),
(76,290,o),
(103,290,cs),
(137,290,ls),
(150,290,o),
(157,297,o),
(157,310,cs),
(157,620,ls),
(157,633,o),
(150,640,o),
(137,640,cs),
(103,640,ls),
(76,640,o),
(58,658,o),
(58,685,cs),
(58,712,o),
(76,730,o),
(103,730,cs),
(465,730,ls),
(519,730,o),
(545,704,o),
(545,650,cs),
(545,140,ls),
(545,38,o),
(424,-80,o),
(320,-80,qs),
(215,-80,o),
(155,-21,qs),
(109,24,o),
(98,95,qs)
);
}
);
width = 600;
},
{
layerId = "A9EA4EA3-63FD-46BE-AE35-8F493BD0E280";
shapes = (
{
closed = 1;
nodes = (
(120,121,o),
(128,130,o),
(145,130,cs),
(161,130,o),
(169,122,o),
(171,105,cs),
(177,46,o),
(212,12,qs),
(254,-30,o),
(325,-30,qs),
(397,-31,o),
(480,53,o),
(480,129,qs),
(480,650,ls),
(480,670,o),
(470,680,o),
(450,680,cs),
(239,680,ls),
(229,680,o),
(224,675,o),
(224,665,cs),
(224,265,ls),
(224,255,o),
(229,250,o),
(239,250,cs),
(325,250,ls),
(340,250,o),
(350,240,o),
(350,225,cs),
(350,210,o),
(340,200,o),
(325,200,cs),
(75,200,ls),
(60,200,o),
(50,210,o),
(50,225,cs),
(50,240,o),
(60,250,o),
(75,250,cs),
(161,250,ls),
(171,250,o),
(176,255,o),
(176,265,cs),
(176,665,ls),
(176,675,o),
(171,680,o),
(161,680,cs),
(75,680,ls),
(60,680,o),
(50,690,o),
(50,705,cs),
(50,720,o),
(60,730,o),
(75,730,cs),
(470,730,ls),
(510,730,o),
(530,710,o),
(530,670,cs),
(530,129,ls),
(530,32,o),
(420,-80,o),
(325,-80,qs),
(230,-80,o),
(175,-24,qs),
(128,25,o),
(121,105,qs)
);
}
);
width = 600;
}
);
unicode = 306;
},
{
glyphname = J;
layers = (
{
layerId = "E79C6012-54E0-4B47-AAB7-371DB4DAB7F2";
shapes = (
{
closed = 1;
nodes = (
(16,209,o),
(45,241,o),
(103,241,cs),
(143,241,o),
(161,226,o),
(181,178,cs),
(196,141,o),
(227,125,o),
(270,125,cs),
(331,125,o),
(370,158,o),
(370,219,cs),
(370,530,ls),
(370,564,o),
(353,580,o),
(320,580,cs),
(230,580,ls),
(180,580,o),
(155,605,o),
(155,655,cs),
(155,705,o),
(180,730,o),
(230,730,cs),
(400,730,ls),
(480,730,o),
(520,690,o),
(520,610,cs),
(520,219,ls),
(520,78,o),
(424,-10,o),
(270,-10,cs),
(146,-10,o),
(59,48,o),
(30,156,cs)
);
}
);
width = 600;
},
{
layerId = "921C946B-68A7-49D6-9396-60D462B577B8";
shapes = (
{
closed = 1;
nodes = (
(43,192,o),
(60,210,o),
(94,210,cs),
(120,210,o),
(134,199,o),
(140,166,cs),
(152,107,o),
(198,70,o),
(270,70,cs),
(355,70,o),
(405,121,o),
(405,210,cs),
(405,600,ls),
(405,627,o),
(392,640,o),
(365,640,cs),
(215,640,ls),
(185,640,o),
(170,655,o),
(170,685,cs),
(170,715,o),
(185,730,o),
(215,730,cs),
(415,730,ls),
(469,730,o),
(495,704,o),
(495,650,cs),
(495,210,ls),
(495,74,o),
(409,-10,o),
(270,-10,cs),
(149,-10,o),
(68,53,o),
(49,159,cs)
);
}
);
width = 600;
},
{
layerId = "A9EA4EA3-63FD-46BE-AE35-8F493BD0E280";
shapes = (
{
closed = 1;
nodes = (
(70,169,o),
(79,180,o),
(99,180,cs),
(113,180,o),
(119,174,o),
(122,153,cs),
(130,87,o),
(187,35,o),
(275,35,cs),
(371,35,o),
(430,98,o),
(430,199,cs),
(430,650,ls),
(430,670,o),
(420,680,o),
(400,680,cs),
(220,680,ls),
(203,680,o),
(195,688,o),
(195,705,cs),
(195,722,o),
(203,730,o),
(220,730,cs),
(420,730,ls),
(460,730,o),
(480,710,o),
(480,670,cs),
(480,199,ls),
(480,69,o),
(402,-10,o),
(275,-10,cs),
(158,-10,o),
(84,55,o),
(72,151,cs)
);
}
);
width = 600;
}
);
unicode = 74;
},
{
glyphname = K;
layers = (
{
layerId = "E79C6012-54E0-4B47-AAB7-371DB4DAB7F2";
shapes = (
{
closed = 1;
nodes = (
(215,65,ls),
(215,15,o),
(190,-10,o),
(140,-10,cs),
(90,-10,o),
(65,15,o),
(65,65,cs),
(65,665,ls),
(65,715,o),
(90,740,o),
(140,740,cs),
(190,740,o),
(215,715,o),
(215,665,cs)
);
},
{
closed = 1;
nodes = (
(175,460,l),
(356,695,ls),
(379,725,o),
(408,740,o),
(442,740,cs),
(491,740,o),
(538,708,o),
(494,648,cs),
(168,201,l)
);
},
{
closed = 1;
nodes = (
(309,444,l),
(524,88,ls),
(563,23,o),
(523,-10,o),
(468,-10,cs),
(429,-10,o),
(402,7,o),
(382,39,cs),
(208,321,l)
);
}
);
width = 600;
},
{
layerId = "921C946B-68A7-49D6-9396-60D462B577B8";
shapes = (
{
closed = 1;
nodes = (
(182,35,ls),
(182,5,o),
(167,-10,o),
(137,-10,cs),
(107,-10,o),
(92,5,o),
(92,35,cs),
(92,695,ls),
(92,725,o),
(107,740,o),
(137,740,cs),
(167,740,o),
(182,725,o),
(182,695,cs)
);
},
{
closed = 1;
nodes = (
(167,394,l),
(404,712,ls),
(418,731,o),
(437,740,o),
(455,740,cs),
(480,740,o),
(517,722,o),
(489,684,cs),
(167,248,l)
);
},
{
closed = 1;
nodes = (
(275,442,l),
(514,51,ls),
(539,10,o),
(516,-10,o),
(480,-10,cs),
(455,-10,o),
(438,0,o),
(426,20,cs),
(215,357,l)
);
}
);
width = 600;
},
{
layerId = "A9EA4EA3-63FD-46BE-AE35-8F493BD0E280";
shapes = (
{
closed = 1;
nodes = (
(160,15,ls),
(160,-2,o),
(152,-10,o),
(135,-10,cs),
(118,-10,o),
(110,-2,o),
(110,15,cs),
(110,715,ls),
(110,732,o),
(118,740,o),
(135,740,cs),
(152,740,o),
(160,732,o),
(160,715,cs)
);
},
{
closed = 1;
nodes = (
(143,328,l),
(442,723,ls),
(453,737,o),
(463,740,o),
(473,740,cs),
(494,740,o),
(512,728,o),
(494,705,cs),
(143,247,l)
);
},
{
closed = 1;
nodes = (
(268,444,l),
(520,25,ls),
(534,2,o),
(517,-10,o),
(499,-10,cs),
(487,-10,o),
(477,-5,o),
(470,7,cs),
(233,399,l)
);
}
);
width = 600;
}
);
unicode = 75;
},
{
glyphname = L;
layers = (
{
layerId = "E79C6012-54E0-4B47-AAB7-371DB4DAB7F2";
shapes = (
{
closed = 1;
nodes = (
(235,0,ls),
(155,0,o),
(115,40,o),
(115,120,cs),
(115,665,ls),
(115,715,o),
(140,740,o),
(190,740,cs),
(240,740,o),
(265,715,o),
(265,665,cs),
(265,195,ls),
(265,155,o),
(285,135,o),
(325,135,cs),
(493,135,ls),
(538,135,o),
(560,113,o),
(560,68,cs),
(560,23,o),
(537,0,o),
(492,0,cs)
);
}
);
width = 600;
},
{
layerId = "921C946B-68A7-49D6-9396-60D462B577B8";
shapes = (
{
closed = 1;
nodes = (
(210,0,ls),
(156,0,o),
(130,26,o),
(130,80,cs),
(130,695,ls),
(130,725,o),
(145,740,o),
(175,740,cs),
(205,740,o),
(220,725,o),
(220,695,cs),
(220,130,ls),
(220,103,o),
(233,90,o),
(260,90,cs),
(505,90,ls),
(532,90,o),
(550,72,o),
(550,45,cs),
(550,18,o),
(532,0,o),
(505,0,cs)
);
}
);
width = 600;
},
{
layerId = "A9EA4EA3-63FD-46BE-AE35-8F493BD0E280";
shapes = (
{
closed = 1;
nodes = (
(200,0,ls),
(160,0,o),
(140,20,o),
(140,60,cs),
(140,715,ls),
(140,732,o),
(148,740,o),
(165,740,cs),
(182,740,o),
(190,732,o),
(190,715,cs),
(190,80,ls),
(190,60,o),
(200,50,o),
(220,50,cs),
(520,50,ls),
(535,50,o),
(545,40,o),
(545,25,cs),
(545,10,o),
(535,0,o),
(520,0,cs)
);
}
);
width = 600;
}
);
unicode = 76;
},
{
glyphname = M;
layers = (
{
layerId = "E79C6012-54E0-4B47-AAB7-371DB4DAB7F2";
shapes = (
{
closed = 1;
nodes = (
(560,60,ls),
(560,13,o),
(537,-10,o),
(490,-10,cs),
(443,-10,o),
(420,13,o),
(420,60,cs),
(420,510,ls),
(420,517,o),
(412,517,o),
(411,510,cs),
(372,298,ls),
(365,259,o),
(340,240,o),
(300,240,cs),
(260,240,o),
(235,259,o),
(228,298,cs),
(189,510,ls),
(188,516,o),
(180,517,o),
(180,510,cs),
(180,60,ls),
(180,13,o),
(157,-10,o),
(110,-10,cs),
(63,-10,o),
(40,13,o),
(40,60,cs),
(40,608,ls),
(40,696,o),
(75,740,o),
(154,740,cs),
(216,740,o),
(247,713,o),
(256,658,cs),
(290,460,ls),
(293,440,o),
(308,439,o),
(311,460,cs),
(344,658,ls),
(353,713,o),
(394,740,o),
(452,740,cs),
(525,740,o),
(560,696,o),
(560,614,cs)
);
}
);
width = 600;
},
{
layerId = "921C946B-68A7-49D6-9396-60D462B577B8";
shapes = (
{
closed = 1;
nodes = (
(540,35,ls),
(540,5,o),
(525,-10,o),
(495,-10,cs),
(465,-10,o),
(450,5,o),
(450,35,cs),
(450,590,ls),
(450,602,o),
(441,602,o),
(437,590,cs),
(351,297,ls),
(344,272,o),
(326,260,o),
(300,260,cs),
(274,260,o),
(256,272,o),
(249,297,cs),
(163,590,ls),
(159,603,o),
(150,602,o),
(150,590,cs),
(150,35,ls),
(150,5,o),
(135,-10,o),
(105,-10,cs),
(75,-10,o),
(60,5,o),
(60,35,cs),
(60,655,ls),
(60,712,o),
(88,740,o),
(140,740,cs),
(181,740,o),
(207,722,o),
(217,685,cs),
(289,410,ls),
(294,392,o),
(306,392,o),
(311,410,cs),
(383,685,ls),
(393,722,o),
(419,740,o),
(460,740,cs),
(512,740,o),
(540,712,o),
(540,655,cs)
);
}
);
width = 600;
},
{
layerId = "A9EA4EA3-63FD-46BE-AE35-8F493BD0E280";
shapes = (
{
closed = 1;
nodes = (
(510,15,ls),
(510,-2,o),
(502,-10,o),
(485,-10,cs),
(468,-10,o),
(460,-2,o),
(460,15,cs),
(460,640,ls),
(460,650,o),
(451,651,o),
(447,640,cs),
(337,306,ls),
(331,288,o),
(319,280,o),
(300,280,cs),
(281,280,o),
(269,288,o),
(263,306,cs),
(153,640,ls),
(149,652,o),
(140,649,o),
(140,640,cs),
(140,15,ls),
(140,-2,o),
(132,-10,o),
(115,-10,cs),
(98,-10,o),
(90,-2,o),
(90,15,cs),
(90,692,ls),
(90,724,o),
(106,740,o),
(137,740,cs),
(162,740,o),
(178,729,o),
(185,706,cs),
(291,380,ls),
(295,368,o),
(305,368,o),
(309,380,cs),
(415,706,ls),
(422,729,o),
(438,740,o),
(463,740,cs),
(494,740,o),
(510,724,o),
(510,692,cs)
);
}
);
width = 600;
}
);
unicode = 77;
},
{
glyphname = N;
layers = (
{
layerId = "E79C6012-54E0-4B47-AAB7-371DB4DAB7F2";
shapes = (
{
closed = 1;
nodes = (
(50,629,ls),
(50,703,o),
(87,740,o),
(156,740,cs),
(211,740,o),
(241,716,o),
(257,669,cs),
(400,240,ls),
(401,236,o),
(403,234,o),
(406,234,cs),
(409,234,o),
(410,236,o),
(410,240,cs),
(410,670,ls),
(410,717,o),
(433,740,o),
(480,740,cs),
(527,740,o),
(550,717,o),
(550,670,cs),
(550,101,ls),
(550,27,o),
(513,-10,o),
(444,-10,cs),
(389,-10,o),
(359,14,o),
(343,61,cs),
(200,490,ls),
(199,494,o),
(197,496,o),
(194,496,cs),
(191,496,o),
(190,494,o),
(190,490,cs),
(190,60,ls),
(190,13,o),
(167,-10,o),
(120,-10,cs),
(73,-10,o),
(50,13,o),
(50,60,cs)
);
}
);
width = 600;
},
{
layerId = "921C946B-68A7-49D6-9396-60D462B577B8";
shapes = (
{
closed = 1;
nodes = (
(80,662,ls),
(80,714,o),
(106,740,o),
(154,740,cs),
(193,740,o),
(214,723,o),
(226,690,cs),
(421,150,ls),
(422,146,o),
(423,144,o),
(426,144,cs),
(429,144,o),
(430,146,o),
(430,150,cs),
(430,695,ls),
(430,725,o),
(445,740,o),
(475,740,cs),
(505,740,o),
(520,725,o),
(520,695,cs),
(520,68,ls),
(520,16,o),
(494,-10,o),
(446,-10,cs),
(407,-10,o),
(386,7,o),
(374,40,cs),
(179,580,ls),
(178,584,o),
(177,586,o),
(174,586,cs),
(171,586,o),
(170,584,o),
(170,580,cs),
(170,35,ls),
(170,5,o),
(155,-10,o),
(125,-10,cs),
(95,-10,o),
(80,5,o),
(80,35,cs)
);
}
);
width = 600;
},
{
layerId = "A9EA4EA3-63FD-46BE-AE35-8F493BD0E280";
shapes = (
{
closed = 1;
nodes = (
(110,693,ls),
(110,724,o),
(126,740,o),
(157,740,cs),
(181,740,o),
(196,729,o),
(204,707,cs),
(430,80,ls),
(431,76,o),
(433,74,o),
(436,74,cs),
(439,74,o),
(440,76,o),
(440,80,cs),
(440,715,ls),
(440,732,o),
(448,740,o),
(465,740,cs),
(482,740,o),
(490,732,o),
(490,715,cs),
(490,37,ls),
(490,6,o),
(474,-10,o),
(443,-10,cs),
(419,-10,o),
(404,1,o),
(396,23,cs),
(170,650,ls),
(169,654,o),
(167,656,o),
(164,656,cs),
(161,656,o),
(160,654,o),
(160,650,cs),
(160,15,ls),
(160,-2,o),
(152,-10,o),
(135,-10,cs),
(118,-10,o),
(110,-2,o),
(110,15,cs)
);
}
);
width = 600;
}
);
unicode = 78;
},
{
glyphname = O;
layers = (
{
layerId = "E79C6012-54E0-4B47-AAB7-371DB4DAB7F2";
shapes = (
{
closed = 1;
nodes = (
(395,125,o),
(405,283,o),
(405,365,cs),
(405,448,o),
(395,605,o),
(300,605,cs),
(206,605,o),
(195,447,o),
(195,365,cs),
(195,283,o),
(206,125,o),
(300,125,cs)
);
},
{
closed = 1;
nodes = (
(85,-10,o),
(45,208,o),
(45,365,cs),
(45,522,o),
(82,740,o),
(300,740,cs),
(516,740,o),
(555,524,o),
(555,371,cs),
(555,208,o),
(514,-10,o),
(300,-10,cs)
);
}
);
width = 600;
},
{
layerId = "921C946B-68A7-49D6-9396-60D462B577B8";
shapes = (
{
closed = 1;
nodes = (
(428,80,o),
(447,271,o),
(447,367,cs),
(447,460,o),
(429,650,o),
(300,650,cs),
(171,650,o),
(153,459,o),
(153,366,cs),
(153,271,o),
(172,80,o),
(300,80,cs)
);
},
{
closed = 1;
nodes = (
(100,-10,o),
(63,208,o),
(63,367,cs),
(63,522,o),
(98,740,o),
(300,740,cs),
(501,740,o),
(537,524,o),
(537,368,cs),
(537,208,o),
(499,-10,o),
(300,-10,cs)
);
}
);
width = 600;
},
{
layerId = "A9EA4EA3-63FD-46BE-AE35-8F493BD0E280";
shapes = (
{
closed = 1;
nodes = (
(453,40,o),
(480,260,o),
(480,367,cs),
(480,472,o),
(454,690,o),
(300,690,cs),
(146,690,o),
(120,470,o),
(120,365,cs),
(120,260,o),
(147,40,o),
(300,40,cs)
);
},
{
closed = 1;
nodes = (
(106,-10,o),
(70,208,o),
(70,367,cs),
(70,522,o),
(104,740,o),
(300,740,cs),
(496,740,o),
(530,524,o),
(530,369,cs),
(530,208,o),
(493,-10,o),
(300,-10,cs)
);
}
);
width = 600;
}
);
unicode = 79;
},
{
glyphname = OE;
layers = (
{
layerId = "E79C6012-54E0-4B47-AAB7-371DB4DAB7F2";
shapes = (
{
closed = 1;
nodes = (
(295,115,o),
(305,283,o),
(305,365,cs),
(305,448,o),
(295,615,o),
(220,615,cs),
(146,615,o),
(135,447,o),
(135,365,cs),
(135,283,o),
(146,115,o),
(220,115,cs)
);
},
{
closed = 1;
nodes = (
(25,-10,o),
(-15,208,o),
(-15,365,cs),
(-15,522,o),
(25,740,o),
(220,740,cs),
(419,740,o),
(455,524,o),
(455,365,cs),
(455,208,o),
(414,-10,o),
(220,-10,cs)
);
},
{
closed = 1;
nodes = (
(265,0,l),
(355,130,l),
(550,130,ls),
(594,130,o),
(615,109,o),
(615,65,cs),
(615,21,o),
(594,0,o),
(550,0,cs)
);
},
{
closed = 1;
nodes = (
(345,308,l),
(345,440,l),
(518,440,ls),
(560,440,o),
(584,417,o),
(584,375,cs),
(584,333,o),
(560,308,o),
(518,308,cs)
);
},
{
closed = 1;
nodes = (
(355,600,l),
(265,730,l),
(550,730,ls),
(594,730,o),
(615,709,o),
(615,665,cs),
(615,621,o),
(594,600,o),
(550,600,cs)
);
}
);
width = 600;
},
{
layerId = "921C946B-68A7-49D6-9396-60D462B577B8";
shapes = (
{
closed = 1;
nodes = (
(328,80,o),
(347,271,o),
(347,365,cs),
(347,460,o),
(329,650,o),
(220,650,cs),
(111,650,o),
(93,459,o),
(93,365,cs),
(93,271,o),
(112,80,o),
(220,80,cs)
);
},
{
closed = 1;
nodes = (
(40,-10,o),
(3,208,o),
(3,365,cs),
(3,522,o),
(40,740,o),
(220,740,cs),
(403,740,o),
(437,524,o),
(437,365,cs),
(437,208,o),
(399,-10,o),
(220,-10,cs)
);
},
{
closed = 1;
nodes = (
(260,0,l),
(310,90,l),
(559,90,ls),
(586,90,o),
(600,72,o),
(600,45,cs),
(600,18,o),
(586,0,o),
(559,0,cs)
);
},
{
closed = 1;
nodes = (
(385,337,l),
(385,427,l),
(525,427,ls),
(552,427,o),
(570,409,o),
(570,382,cs),
(570,355,o),
(552,337,o),
(525,337,cs)
);
},
{
closed = 1;
nodes = (
(310,640,l),
(260,730,l),
(559,730,ls),
(586,730,o),
(600,712,o),
(600,685,cs),
(600,658,o),
(586,640,o),
(559,640,cs)
);
}
);
width = 600;
},
{
layerId = "A9EA4EA3-63FD-46BE-AE35-8F493BD0E280";
shapes = (
{
closed = 1;
nodes = (
(353,40,o),
(374,260,o),
(374,365,cs),
(374,472,o),
(354,690,o),
(220,690,cs),
(86,690,o),
(66,470,o),
(66,365,cs),
(66,260,o),
(87,40,o),
(220,40,cs)
);
},
{
closed = 1;
nodes = (
(46,-10,o),
(16,208,o),
(16,365,cs),
(16,522,o),
(46,740,o),
(220,740,cs),
(398,740,o),
(424,524,o),
(424,365,cs),
(424,208,o),
(393,-10,o),
(220,-10,cs)
);
},
{
closed = 1;
nodes = (
(270,0,l),
(285,50,l),
(567,50,ls),
(582,50,o),
(590,40,o),
(590,25,cs),
(590,10,o),
(582,0,o),
(567,0,cs)
);
},
{
closed = 1;
nodes = (
(400,356,l),
(400,406,l),
(533,406,ls),
(548,406,o),
(555,396,o),
(555,381,cs),
(555,366,o),
(548,356,o),
(533,356,cs)
);
},
{
closed = 1;
nodes = (
(285,680,l),
(270,730,l),
(567,730,ls),
(582,730,o),
(590,720,o),
(590,705,cs),
(590,690,o),
(582,680,o),
(567,680,cs)
);
}
);
width = 600;
}
);
unicode = 338;
},
{
glyphname = P;
layers = (
{
layerId = "E79C6012-54E0-4B47-AAB7-371DB4DAB7F2";
shapes = (
{
closed = 1;
nodes = (
(141,416,l),
(315,416,ls),
(374,416,o),
(420,445,o),
(420,508,cs),
(420,571,o),
(374,600,o),
(315,600,cs),
(266,600,ls),
(233,600,o),
(216,583,o),
(216,550,cs),
(216,65,ls),
(216,15,o),
(190,-10,o),
(140,-10,cs),
(90,-10,o),
(66,15,o),
(66,65,cs),
(66,630,ls),
(66,697,o),
(99,730,o),
(166,730,cs),
(315,730,ls),
(451,730,o),
(570,654,o),
(570,508,cs),
(570,363,o),
(450,286,o),
(315,286,cs),
(141,286,l)
);
}
);
width = 600;
},
{
layerId = "921C946B-68A7-49D6-9396-60D462B577B8";
shapes = (
{
closed = 1;
nodes = (
(137,410,l),
(327,410,ls),
(398,410,o),
(457,449,o),
(457,525,cs),
(457,602,o),
(399,640,o),
(327,640,cs),
(222,640,ls),
(195,640,o),
(182,627,o),
(182,600,c),
(182,35,ls),
(182,5,o),
(167,-10,o),
(137,-10,cs),
(107,-10,o),
(92,5,o),
(92,35,cs),
(92,650,ls),
(92,704,o),
(118,730,o),
(172,730,cs),
(327,730,ls),
(453,730,o),
(550,656,o),
(550,525,cs),
(550,394,o),
(452,320,o),
(327,320,cs),
(137,320,l)
);
}
);
width = 600;
},
{
layerId = "A9EA4EA3-63FD-46BE-AE35-8F493BD0E280";
shapes = (
{
closed = 1;
nodes = (
(140,394,l),
(325,394,ls),
(416,394,o),
(485,440,o),
(485,537,cs),
(485,635,o),
(417,680,o),
(325,680,cs),
(190,680,ls),
(170,680,o),
(160,670,o),
(160,650,cs),
(160,15,ls),
(160,-2,o),
(152,-10,o),
(135,-10,cs),
(118,-10,o),
(110,-2,o),
(110,15,cs),
(110,670,ls),
(110,710,o),
(130,730,o),
(170,730,cs),
(325,730,ls),
(443,730,o),
(535,660,o),
(535,537,cs),
(535,414,o),
(443,344,o),
(325,344,cs),
(140,344,l)
);
}
);
width = 600;
}
);
unicode = 80;
},
{
glyphname = Thorn;
layers = (
{
layerId = "E79C6012-54E0-4B47-AAB7-371DB4DAB7F2";
shapes = (
{
closed = 1;
nodes = (
(95,0,o),
(70,25,o),
(70,75,cs),
(70,655,ls),
(70,705,o),
(95,730,o),
(145,730,cs),
(195,730,o),
(220,705,o),
(220,655,cs),
(220,620,ls),
(220,603,o),
(228,595,o),
(245,595,cs),
(340,595,ls),
(412,595,o),
(515,544,o),
(570,448,o),
(570,380,qs),
(570,280,o),
(447,165,o),
(340,165,qs),
(245,165,ls),
(228,165,o),
(220,157,o),
(220,140,cs),
(220,75,ls),
(220,25,o),
(195,0,o),
(145,0,cs)
);
},
{
closed = 1;
nodes = (
(220,315,ls),
(220,298,o),
(228,290,o),
(245,290,cs),
(315,290,ls),
(366,290,o),
(420,337,o),
(420,380,qs),
(420,424,o),
(366,470,o),
(315,470,qs),
(245,470,ls),
(228,470,o),
(220,462,o),
(220,445,cs)
);
}
);
width = 600;
},
{
layerId = "921C946B-68A7-49D6-9396-60D462B577B8";
shapes = (
{
closed = 1;
nodes = (
(105,0,o),
(90,15,o),
(90,45,cs),
(90,685,ls),
(90,715,o),
(105,730,o),
(135,730,cs),
(165,730,o),
(180,715,o),
(180,685,cs),
(180,600,ls),
(180,587,o),
(187,580,o),
(200,580,cs),
(333,580,ls),
(399,580,o),
(496,530,o),
(550,440,o),
(550,380,qs),
(550,289,o),
(432,180,o),
(333,180,qs),
(200,180,ls),
(187,180,o),
(180,173,o),
(180,160,cs),
(180,45,ls),
(180,15,o),
(165,0,o),
(135,0,cs)
);
},
{
closed = 1;
nodes = (
(180,280,ls),
(180,267,o),
(187,260,o),
(200,260,cs),
(333,260,ls),
(391,260,o),
(457,325,o),
(457,380,qs),
(457,436,o),
(390,500,o),
(333,500,qs),
(200,500,ls),
(187,500,o),
(180,493,o),
(180,480,cs)
);
}
);
width = 600;
},
{
layerId = "A9EA4EA3-63FD-46BE-AE35-8F493BD0E280";
shapes = (
{
closed = 1;
nodes = (
(113,0,o),
(105,8,o),
(105,25,cs),
(105,705,ls),
(105,722,o),
(113,730,o),
(130,730,cs),
(147,730,o),
(155,722,o),
(155,705,cs),
(155,580,ls),
(155,570,o),
(160,565,o),
(170,565,cs),
(333,565,ls),
(394,565,o),
(482,520,o),
(530,437,o),
(530,380,qs),
(530,295,o),
(424,195,o),
(333,195,qs),
(170,195,ls),
(160,195,o),
(155,190,o),
(155,180,cs),
(155,25,ls),
(155,8,o),
(147,0,o),
(130,0,cs)
);
},
{
closed = 1;
nodes = (
(155,256,ls),
(155,246,o),
(160,241,o),
(170,241,cs),
(333,241,ls),
(401,241,o),
(480,316,o),
(480,380,qs),
(480,445,o),
(401,520,o),
(333,520,qs),
(170,520,ls),
(160,520,o),
(155,515,o),
(155,505,cs)
);
}
);
width = 600;
}
);
unicode = 222;
},
{
glyphname = Q;
layers = (
{
layerId = "E79C6012-54E0-4B47-AAB7-371DB4DAB7F2";
shapes = (
{
closed = 1;
nodes = (
(395,115,o),
(405,283,o),
(405,365,cs),
(405,448,o),
(395,615,o),
(300,615,cs),
(206,615,o),
(195,447,o),
(195,365,cs),
(195,283,o),
(206,115,o),
(300,115,cs)
);
},
{
closed = 1;
nodes = (
(85,-10,o),
(45,208,o),
(45,368,cs),
(45,522,o),
(82,740,o),
(300,740,cs),
(516,740,o),
(555,524,o),
(555,368,cs),
(555,208,o),
(514,-10,o),
(300,-10,cs)
);
},
{
closed = 1;
nodes = (
(308,-177,ls),
(269,-165,o),
(252,-138,o),
(264,-97,cs),
(276,-59,o),
(302,-45,o),
(340,-56,cs),
(501,-102,ls),
(541,-114,o),
(558,-141,o),
(545,-183,cs),
(533,-224,o),
(506,-233,o),
(468,-223,cs)
);
}
);
width = 600;
},
{
layerId = "921C946B-68A7-49D6-9396-60D462B577B8";
shapes = (
{
closed = 1;
nodes = (
(428,80,o),
(447,271,o),
(447,367,cs),
(447,460,o),
(429,650,o),
(300,650,cs),
(171,650,o),
(153,459,o),
(153,366,cs),
(153,271,o),
(172,80,o),
(300,80,cs)
);
},
{
closed = 1;
nodes = (
(100,-10,o),
(63,208,o),
(63,367,cs),
(63,522,o),
(98,740,o),
(300,740,cs),
(501,740,o),
(537,524,o),
(537,368,cs),
(537,208,o),
(499,-10,o),
(300,-10,cs)
);
},
{
closed = 1;
nodes = (
(300,-154,ls),
(270,-146,o),
(261,-127,o),
(269,-99,cs),
(276,-76,o),
(291,-61,o),
(316,-67,cs),
(496,-113,ls),
(525,-121,o),
(537,-141,o),
(529,-168,cs),
(521,-196,o),
(498,-207,o),
(473,-200,cs)
);
}
);
width = 600;
},
{
layerId = "A9EA4EA3-63FD-46BE-AE35-8F493BD0E280";
shapes = (
{
closed = 1;
nodes = (
(453,40,o),
(480,260,o),
(480,367,cs),
(480,472,o),
(454,690,o),
(300,690,cs),
(146,690,o),
(120,470,o),
(120,365,cs),
(120,260,o),
(147,40,o),
(300,40,cs)
);
},
{
closed = 1;
nodes = (
(106,-10,o),
(70,208,o),
(70,367,cs),
(70,522,o),
(104,740,o),
(300,740,cs),
(496,740,o),
(530,524,o),
(530,369,cs),
(530,208,o),
(493,-10,o),
(300,-10,cs)
);
},
{
closed = 1;
nodes = (
(291,-124,ls),
(273,-119,o),
(271,-107,o),
(274,-95,cs),
(278,-78,o),
(291,-73,o),
(304,-76,cs),
(497,-127,ls),
(514,-131,o),
(519,-145,o),
(515,-159,cs),
(511,-175,o),
(498,-180,o),
(484,-176,cs)
);
}
);
width = 600;
}
);
unicode = 81;
},
{
glyphname = R;
layers = (
{
anchors = (
{
name = bottom;
position = "{300, 0}";
},
{
name = top;
position = "{300, 730}";
}
);
layerId = "E79C6012-54E0-4B47-AAB7-371DB4DAB7F2";
shapes = (
{
closed = 1;
nodes = (
(400,360,l),
(540,79,ls),
(570,19,o),
(552,-10,o),
(479,-10,cs),
(446,-10,o),
(419,-4,o),
(400,35,cs),
(254,340,l)
);
},
{
closed = 1;
nodes = (
(141,416,l),
(315,416,ls),
(374,416,o),
(420,445,o),
(420,508,cs),
(420,571,o),
(374,600,o),
(315,600,cs),
(266,600,ls),
(233,600,o),
(216,583,o),
(216,550,cs),
(216,65,ls),
(216,15,o),
(190,-10,o),
(140,-10,cs),
(90,-10,o),
(66,15,o),
(66,65,cs),
(66,630,ls),
(66,697,o),
(99,730,o),
(166,730,cs),
(315,730,ls),
(451,730,o),
(570,654,o),
(570,508,cs),
(570,363,o),
(450,286,o),
(315,286,cs),
(141,286,l)
);
}
);
width = 600;
},
{
anchors = (
{
name = bottom;
position = "{300, 0}";
},
{
name = top;
position = "{300, 730}";
}
);
layerId = "921C946B-68A7-49D6-9396-60D462B577B8";
shapes = (
{
closed = 1;
nodes = (
(368,380,l),
(531,49,ls),
(551,9,o),
(538,-10,o),
(500,-10,cs),
(472,-10,o),
(456,0,o),
(446,20,cs),
(274,373,l)
);
},
{
closed = 1;
nodes = (
(137,410,l),
(327,410,ls),
(398,410,o),
(457,449,o),
(457,525,cs),
(457,602,o),
(399,640,o),
(327,640,cs),
(222,640,ls),
(195,640,o),
(182,627,o),
(182,600,cs),
(182,35,ls),
(182,5,o),
(167,-10,o),
(137,-10,cs),
(107,-10,o),
(92,5,o),
(92,35,cs),
(92,650,ls),
(92,704,o),
(118,730,o),
(172,730,cs),
(327,730,ls),
(453,730,o),
(550,656,o),
(550,525,cs),
(550,394,o),
(452,320,o),
(327,320,cs),
(137,320,l)
);
}
);
width = 600;
},
{
anchors = (
{
name = bottom;
position = "{300, 0}";
},
{
name = top;
position = "{300, 730}";
}
);
layerId = "A9EA4EA3-63FD-46BE-AE35-8F493BD0E280";
shapes = (
{
closed = 1;
nodes = (
(340,370,l),
(521,25,ls),
(533,1,o),
(527,-10,o),
(504,-10,cs),
(487,-10,o),
(477,-4,o),
(471,8,cs),
(286,369,l)
);
},
{
closed = 1;
nodes = (
(140,394,l),
(325,394,ls),
(416,394,o),
(485,440,o),
(485,537,cs),
(485,635,o),
(417,680,o),
(325,680,cs),
(190,680,ls),
(170,680,o),
(160,670,o),
(160,650,cs),
(160,15,ls),
(160,-2,o),
(152,-10,o),
(135,-10,cs),
(118,-10,o),
(110,-2,o),
(110,15,cs),
(110,670,ls),
(110,710,o),
(130,730,o),
(170,730,cs),
(325,730,ls),
(443,730,o),
(535,660,o),
(535,537,cs),
(535,414,o),
(443,344,o),
(325,344,cs),
(140,344,l)
);
}
);
width = 600;
}
);
unicode = 82;
},
{
glyphname = S;
layers = (
{
anchors = (
{
name = bottom;
position = "{300, 0}";
},
{
name = top;
position = "{300, 730}";
}
);
layerId = "E79C6012-54E0-4B47-AAB7-371DB4DAB7F2";
shapes = (
{
closed = 1;
nodes = (
(403,538,o),
(427,529,o),
(459,529,cs),
(520,529,o),
(542,570,o),
(512,632,cs),
(480,697,o),
(406,740,o),
(300,740,cs),
(154,740,o),
(64,659,o),
(64,533,cs),
(64,412,o),
(120,350,o),
(247,320,cs),
(335,299,ls),
(382,288,o),
(406,247,o),
(406,206,cs),
(406,154,o),
(365,125,o),
(300,125,cs),
(255,125,o),
(220,143,o),
(203,170,cs),
(181,204,o),
(157,210,o),
(134,210,cs),
(68,210,o),
(43,165,o),
(71,106,cs),
(104,37,o),
(176,-10,o),
(300,-10,cs),
(473,-10,o),
(553,75,o),
(553,208,cs),
(553,323,o),
(481,404,o),
(366,431,cs),
(275,452,ls),
(231,462,o),
(211,484,o),
(211,533,cs),
(211,580,o),
(243,605,o),
(300,605,cs),
(337,605,o),
(364,592,o),
(380,570,cs)
);
}
);
width = 600;
},
{
anchors = (
{
name = bottom;
position = "{300, 0}";
},
{
name = top;
position = "{300, 730}";
}
);
layerId = "921C946B-68A7-49D6-9396-60D462B577B8";
shapes = (
{
closed = 1;
nodes = (
(423,558,o),
(437,547,o),
(463,547,cs),
(495,547,o),
(509,564,o),
(503,592,cs),
(483,681,o),
(404,740,o),
(297,740,cs),
(174,740,o),
(90,661,o),
(90,545,cs),
(90,451,o),
(146,378,o),
(238,352,cs),
(349,321,ls),
(407,305,o),
(438,259,o),
(438,199,cs),
(438,122,o),
(387,80,o),
(301,80,cs),
(235,80,o),
(190,108,o),
(172,162,cs),
(162,191,o),
(141,200,o),
(114,200,cs),
(86,200,o),
(72,180,o),
(76,155,cs),
(94,51,o),
(180,-10,o),
(300,-10,cs),
(440,-10,o),
(528,72,o),
(528,199,cs),
(528,301,o),
(471,380,o),
(374,407,cs),
(260,439,ls),
(208,454,o),
(180,493,o),
(180,547,cs),
(180,604,o),
(226,650,o),
(297,650,cs),
(351,650,o),
(393,633,o),
(412,585,cs)
);
}
);
width = 600;
},
{
anchors = (
{
name = bottom;
position = "{300, 0}";
},
{
name = top;
position = "{300, 730}";
}
);
layerId = "A9EA4EA3-63FD-46BE-AE35-8F493BD0E280";
shapes = (
{
closed = 1;
nodes = (
(453,557,o),
(462,550,o),
(478,550,cs),
(495,550,o),
(504,558,o),
(502,574,cs),
(491,672,o),
(411,740,o),
(300,740,cs),
(186,740,o),
(105,666,o),
(105,559,cs),
(105,471,o),
(161,399,o),
(249,372,cs),
(351,341,ls),
(422,319,o),
(465,257,o),
(465,184,cs),
(465,94,o),
(395,40,o),
(300,40,cs),
(208,40,o),
(152,94,o),
(141,173,cs),
(137,199,o),
(127,205,o),
(111,205,cs),
(94,205,o),
(84,192,o),
(86,176,cs),
(97,65,o),
(179,-10,o),
(300,-10,cs),
(425,-10,o),
(515,69,o),
(515,183,cs),
(515,279,o),
(456,357,o),
(363,386,cs),
(261,418,ls),
(195,439,o),
(155,495,o),
(155,561,cs),
(155,642,o),
(215,690,o),
(301,690,cs),
(384,690,o),
(434,638,o),
(449,574,cs)
);
}
);
width = 600;
}
);
unicode = 83;
},
{
glyphname = Germandbls;
layers = (
{
layerId = "E79C6012-54E0-4B47-AAB7-371DB4DAB7F2";
shapes = (
{
closed = 1;
nodes = (
(83,0,o),
(60,23,o),
(60,68,cs),
(60,511,ls),
(60,652,o),
(161,730,o),
(296,730,cs),
(452,730,ls),
(515,730,o),
(546,699,o),
(546,636,cs),
(546,605,o),
(535,577,o),
(514,554,cs),
(425,458,ls),
(403,434,o),
(407,420,o),
(439,407,cs),
(517,375,o),
(559,305,o),
(559,215,cs),
(559,74,o),
(450,4,o),
(321,0,cs),
(280,-1,o),
(259,21,o),
(259,63,cs),
(259,103,o),
(277,122,o),
(321,128,cs),
(370,135,o),
(408,157,o),
(408,227,cs),
(408,291,o),
(376,314,o),
(332,323,cs),
(280,333,o),
(259,355,o),
(259,401,cs),
(259,426,o),
(267,447,o),
(284,465,cs),
(378,568,ls),
(401,593,o),
(396,605,o),
(362,605,cs),
(295,605,ls),
(237,605,o),
(195,571,o),
(195,511,cs),
(195,68,ls),
(195,23,o),
(173,0,o),
(128,0,cs)
);
}
);
width = 600;
},
{
layerId = "921C946B-68A7-49D6-9396-60D462B577B8";
shapes = (
{
closed = 1;
nodes = (
(107,0,o),
(92,15,o),
(92,45,cs),
(92,524,ls),
(92,650,o),
(177,730,o),
(302,730,cs),
(470,730,ls),
(509,730,o),
(529,710,o),
(529,671,cs),
(529,651,o),
(524,634,o),
(512,618,cs),
(391,455,ls),
(376,434,o),
(380,424,o),
(407,417,cs),
(496,393,o),
(540,310,o),
(540,215,cs),
(540,63,o),
(439,0,o),
(299,0,cs),
(272,0,o),
(258,14,o),
(258,41,cs),
(258,68,o),
(271,82,o),
(299,83,cs),
(379,87,o),
(445,107,o),
(445,215,cs),
(445,310,o),
(392,336,o),
(322,343,cs),
(286,346,o),
(270,363,o),
(270,397,cs),
(270,414,o),
(275,430,o),
(285,444,cs),
(410,616,ls),
(426,638,o),
(421,648,o),
(394,648,cs),
(302,648,ls),
(226,648,o),
(182,599,o),
(182,524,cs),
(182,45,ls),
(182,15,o),
(167,0,o),
(137,0,cs)
);
}
);
width = 600;
},
{
layerId = "A9EA4EA3-63FD-46BE-AE35-8F493BD0E280";
shapes = (
{
closed = 1;
nodes = (
(118,0,o),
(110,8,o),
(110,25,cs),
(110,543,ls),
(110,660,o),
(190,730,o),
(305,730,cs),
(486,730,ls),
(507,730,o),
(517,720,o),
(517,699,cs),
(517,689,o),
(514,680,o),
(508,672,cs),
(334,431,ls),
(322,415,o),
(326,408,o),
(346,405,cs),
(449,392,o),
(520,322,o),
(520,210,cs),
(520,48,o),
(412,0,o),
(270,0,cs),
(255,0,o),
(248,8,o),
(248,23,cs),
(248,38,o),
(255,45,o),
(270,45,cs),
(378,47,o),
(470,69,o),
(470,208,cs),
(470,329,o),
(397,362,o),
(299,367,cs),
(280,368,o),
(270,378,o),
(270,397,cs),
(270,407,o),
(272,415,o),
(278,423,cs),
(449,661,ls),
(461,677,o),
(456,685,o),
(436,685,cs),
(305,685,ls),
(218,685,o),
(160,631,o),
(160,543,cs),
(160,25,ls),
(160,8,o),
(152,0,o),
(135,0,cs)
);
}
);
width = 600;
}
);
unicode = 7838;
},
{
glyphname = T;
layers = (
{
layerId = "E79C6012-54E0-4B47-AAB7-371DB4DAB7F2";
shapes = (
{
closed = 1;
nodes = (
(225,595,l),
(108,595,ls),
(63,595,o),
(40,618,o),
(40,663,cs),
(40,708,o),
(62,730,o),
(107,730,cs),
(493,730,ls),
(538,730,o),
(560,708,o),
(560,663,cs),
(560,618,o),
(537,595,o),
(492,595,cs),
(375,595,l),
(375,75,ls),
(375,25,o),
(350,0,o),
(300,0,cs),
(250,0,o),
(225,25,o),
(225,75,cs)
);
}
);
width = 600;
},
{
layerId = "921C946B-68A7-49D6-9396-60D462B577B8";
shapes = (
{
closed = 1;
nodes = (
(255,640,l),
(100,640,ls),
(73,640,o),
(55,658,o),
(55,685,cs),
(55,712,o),
(73,730,o),
(100,730,cs),
(500,730,ls),
(527,730,o),
(545,712,o),
(545,685,cs),
(545,658,o),
(527,640,o),
(500,640,cs),
(345,640,l),
(345,35,ls),
(345,5,o),
(330,-10,o),
(300,-10,cs),
(270,-10,o),
(255,5,o),
(255,35,cs)
);
}
);
width = 600;
},
{
layerId = "A9EA4EA3-63FD-46BE-AE35-8F493BD0E280";
shapes = (
{
closed = 1;
nodes = (
(276,680,l),
(85,680,ls),
(70,680,o),
(60,690,o),
(60,705,cs),
(60,720,o),
(70,730,o),
(85,730,cs),
(515,730,ls),
(530,730,o),
(540,720,o),
(540,705,cs),
(540,690,o),
(529,680,o),
(514,680,cs),
(325,680,l),
(326,15,ls),
(326,-2,o),
(318,-10,o),
(301,-10,cs),
(284,-10,o),
(276,-2,o),
(276,15,cs)
);
}
);
width = 600;
}
);
unicode = 84;
},
{
glyphname = U;
layers = (
{
layerId = "E79C6012-54E0-4B47-AAB7-371DB4DAB7F2";
shapes = (
{
closed = 1;
nodes = (
(60,655,ls),
(60,705,o),
(85,730,o),
(135,730,cs),
(185,730,o),
(210,705,o),
(210,655,cs),
(210,225,ls),
(210,169,o),
(238,120,o),
(300,120,cs),
(361,120,o),
(390,169,o),
(390,225,cs),
(390,655,ls),
(390,705,o),
(415,730,o),
(465,730,cs),
(515,730,o),
(540,705,o),
(540,655,cs),
(540,224,ls),
(540,80,o),
(442,-10,o),
(300,-10,cs),
(157,-10,o),
(60,79,o),
(60,224,cs)
);
}
);
width = 600;
},
{
layerId = "921C946B-68A7-49D6-9396-60D462B577B8";
shapes = (
{
closed = 1;
nodes = (
(90,685,ls),
(90,715,o),
(105,730,o),
(135,730,cs),
(165,730,o),
(180,715,o),
(180,685,cs),
(180,210,ls),
(180,131,o),
(218,80,o),
(300,80,cs),
(382,80,o),
(420,132,o),
(420,210,cs),
(420,685,ls),
(420,715,o),
(435,730,o),
(465,730,cs),
(495,730,o),
(510,715,o),
(510,685,cs),
(510,210,ls),
(510,77,o),
(436,-10,o),
(300,-10,cs),
(165,-10,o),
(90,78,o),
(90,210,cs)
);
}
);
width = 600;
},
{
layerId = "A9EA4EA3-63FD-46BE-AE35-8F493BD0E280";
shapes = (
{
closed = 1;
nodes = (
(108,705,ls),
(108,722,o),
(116,730,o),
(133,730,cs),
(150,730,o),
(158,722,o),
(158,705,cs),
(158,200,ls),
(158,110,o),
(204,40,o),
(300,40,cs),
(396,40,o),
(442,110,o),
(442,200,cs),
(442,705,ls),
(442,722,o),
(450,730,o),
(467,730,cs),
(484,730,o),
(492,722,o),
(492,705,cs),
(492,200,ls),
(492,84,o),
(422,-10,o),
(300,-10,cs),
(177,-10,o),
(108,84,o),
(108,200,cs)
);
}
);
width = 600;
}
);
unicode = 85;
},
{
glyphname = V;
layers = (
{
layerId = "E79C6012-54E0-4B47-AAB7-371DB4DAB7F2";
shapes = (
{
closed = 1;
nodes = (
(46,662,ls),
(32,714,o),
(62,740,o),
(106,740,cs),
(142,740,o),
(170,723,o),
(178,688,cs),
(281,263,ls),
(289,230,o),
(311,230,o),
(319,263,cs),
(422,688,ls),
(430,723,o),
(458,740,o),
(494,740,cs),
(538,740,o),
(568,714,o),
(554,662,cs),
(394,62,ls),
(381,13,o),
(350,-10,o),
(300,-10,cs),
(250,-10,o),
(219,13,o),
(206,62,cs)
);
}
);
width = 600;
},
{
layerId = "921C946B-68A7-49D6-9396-60D462B577B8";
shapes = (
{
closed = 1;
nodes = (
(64,688,ls),
(57,714,o),
(63,740,o),
(102,740,cs),
(128,740,o),
(148,728,o),
(154,705,cs),
(285,185,ls),
(293,155,o),
(307,155,o),
(315,185,cs),
(446,705,ls),
(452,728,o),
(472,740,o),
(498,740,cs),
(537,740,o),
(543,714,o),
(536,688,cs),
(363,38,ls),
(354,6,o),
(334,-10,o),
(300,-10,cs),
(267,-10,o),
(246,6,o),
(237,38,cs)
);
}
);
width = 600;
},
{
layerId = "A9EA4EA3-63FD-46BE-AE35-8F493BD0E280";
shapes = (
{
closed = 1;
nodes = (
(78,711,ls),
(74,727,o),
(80,740,o),
(100,740,cs),
(113,740,o),
(127,734,o),
(130,721,cs),
(290,100,ls),
(295,80,o),
(305,80,o),
(310,100,cs),
(470,721,ls),
(473,734,o),
(487,740,o),
(500,740,cs),
(520,740,o),
(526,727,o),
(522,711,cs),
(338,19,ls),
(333,0,o),
(320,-10,o),
(300,-10,cs),
(280,-10,o),
(267,0,o),
(262,19,cs)
);
}
);
width = 600;
}
);
unicode = 86;
},
{
glyphname = W;
layers = (
{
layerId = "E79C6012-54E0-4B47-AAB7-371DB4DAB7F2";
shapes = (
{
closed = 1;
nodes = (
(27,670,ls),
(24,717,o),
(43,740,o),
(88,740,cs),
(130,740,o),
(152,720,o),
(154,680,cs),
(177,245,ls),
(178,231,o),
(186,229,o),
(188,244,cs),
(230,515,ls),
(236,552,o),
(262,570,o),
(300,570,cs),
(338,570,o),
(364,552,o),
(370,515,cs),
(412,244,ls),
(414,229,o),
(422,230,o),
(423,245,cs),
(446,688,ls),
(448,723,o),
(467,740,o),
(509,740,cs),
(557,740,o),
(575,717,o),
(571,670,cs),
(526,71,ls),
(522,17,o),
(490,-10,o),
(436,-10,cs),
(382,-10,o),
(351,16,o),
(343,70,cs),
(309,291,ls),
(307,305,o),
(293,306,o),
(291,291,cs),
(257,73,ls),
(248,18,o),
(218,-10,o),
(162,-10,cs),
(106,-10,o),
(73,17,o),
(69,73,cs)
);
}
);
width = 600;
},
{
layerId = "921C946B-68A7-49D6-9396-60D462B577B8";
shapes = (
{
closed = 1;
nodes = (
(37,685,ls),
(34,722,o),
(49,740,o),
(83,740,cs),
(111,740,o),
(125,728,o),
(127,703,cs),
(167,145,ls),
(168,133,o),
(176,132,o),
(178,144,cs),
(244,523,ls),
(250,555,o),
(268,570,o),
(300,570,cs),
(332,570,o),
(350,555,o),
(356,523,cs),
(422,145,ls),
(424,134,o),
(432,134,o),
(433,146,cs),
(473,703,ls),
(475,728,o),
(489,740,o),
(517,740,cs),
(551,740,o),
(566,722,o),
(563,685,cs),
(504,50,ls),
(500,10,o),
(477,-10,o),
(436,-10,cs),
(395,-10,o),
(372,10,o),
(365,50,cs),
(307,401,ls),
(305,412,o),
(295,412,o),
(293,401,cs),
(235,51,ls),
(228,10,o),
(205,-10,o),
(164,-10,cs),
(123,-10,o),
(99,10,o),
(95,51,cs)
);
}
);
width = 600;
},
{
layerId = "A9EA4EA3-63FD-46BE-AE35-8F493BD0E280";
shapes = (
{
closed = 1;
nodes = (
(59,710,ls),
(57,730,o),
(65,740,o),
(85,740,cs),
(100,740,o),
(107,734,o),
(108,720,cs),
(169,55,ls),
(169,50,o),
(174,49,o),
(175,55,cs),
(262,539,ls),
(266,560,o),
(279,570,o),
(300,570,cs),
(321,570,o),
(334,560,o),
(338,539,cs),
(427,55,ls),
(428,50,o),
(433,50,o),
(433,55,cs),
(492,720,ls),
(493,734,o),
(500,740,o),
(515,740,cs),
(535,740,o),
(543,730,o),
(541,710,cs),
(475,27,ls),
(473,2,o),
(458,-10,o),
(433,-10,cs),
(408,-10,o),
(393,2,o),
(388,27,cs),
(304,485,ls),
(303,490,o),
(297,490,o),
(296,485,cs),
(212,27,ls),
(207,2,o),
(193,-10,o),
(168,-10,cs),
(143,-10,o),
(127,2,o),
(125,27,cs)
);
}
);
width = 600;
}
);
unicode = 87;
},
{
glyphname = X;
layers = (
{
layerId = "E79C6012-54E0-4B47-AAB7-371DB4DAB7F2";
shapes = (
{
closed = 1;
nodes = (
(208,40,ls),
(191,7,o),
(167,-10,o),
(129,-10,cs),
(76,-10,o),
(36,23,o),
(70,88,cs),
(380,690,ls),
(397,723,o),
(420,740,o),
(458,740,cs),
(511,740,o),
(550,708,o),
(517,642,cs)
);
},
{
closed = 1;
nodes = (
(530,88,ls),
(563,22,o),
(524,-10,o),
(471,-10,cs),
(433,-10,o),
(408,7,o),
(392,40,cs),
(83,642,ls),
(49,707,o),
(89,740,o),
(142,740,cs),
(180,740,o),
(203,723,o),
(220,690,cs)
);
}
);
width = 600;
},
{
layerId = "921C946B-68A7-49D6-9396-60D462B577B8";
shapes = (
{
closed = 1;
nodes = (
(155,20,ls),
(144,0,o),
(129,-10,o),
(107,-10,cs),
(77,-10,o),
(50,9,o),
(72,48,cs),
(435,711,ls),
(446,731,o),
(461,740,o),
(482,740,cs),
(512,740,o),
(539,721,o),
(517,682,cs)
);
},
{
closed = 1;
nodes = (
(528,49,ls),
(550,10,o),
(523,-10,o),
(493,-10,cs),
(471,-10,o),
(456,0,o),
(445,20,cs),
(82,682,ls),
(60,720,o),
(88,740,o),
(119,740,cs),
(139,740,o),
(154,731,o),
(165,711,cs)
);
}
);
width = 600;
},
{
layerId = "A9EA4EA3-63FD-46BE-AE35-8F493BD0E280";
shapes = (
{
closed = 1;
nodes = (
(117,6,ls),
(111,-5,o),
(102,-10,o),
(91,-10,cs),
(75,-10,o),
(59,1,o),
(71,22,cs),
(467,724,ls),
(473,735,o),
(482,740,o),
(493,740,cs),
(510,740,o),
(527,729,o),
(514,707,cs)
);
},
{
closed = 1;
nodes = (
(529,22,ls),
(541,1,o),
(525,-10,o),
(509,-10,cs),
(498,-10,o),
(489,-5,o),
(483,6,cs),
(86,707,ls),
(73,729,o),
(90,740,o),
(107,740,cs),
(118,740,o),
(127,735,o),
(133,724,cs)
);
}
);
width = 600;
}
);
unicode = 88;
},
{
glyphname = Y;
layers = (
{
layerId = "E79C6012-54E0-4B47-AAB7-371DB4DAB7F2";
shapes = (
{
closed = 1;
nodes = (
(250,-10,o),
(225,15,o),
(225,65,cs),
(225,230,ls),
(225,250,o),
(221,269,o),
(213,287,cs),
(52,655,ls),
(31,704,o),
(66,740,o),
(115,740,cs),
(150,740,o),
(177,721,o),
(193,683,cs),
(289,448,ls),
(297,429,o),
(303,429,o),
(311,448,cs),
(407,683,ls),
(423,721,o),
(450,740,o),
(485,740,cs),
(534,740,o),
(569,704,o),
(548,655,cs),
(387,287,ls),
(379,269,o),
(375,250,o),
(375,230,cs),
(375,65,ls),
(375,15,o),
(350,-10,o),
(300,-10,cs)
);
}
);
width = 600;
},
{
layerId = "921C946B-68A7-49D6-9396-60D462B577B8";
shapes = (
{
closed = 1;
nodes = (
(270,-10,o),
(255,5,o),
(255,35,cs),
(255,248,ls),
(255,265,o),
(251,281,o),
(244,296,cs),
(59,690,ls),
(47,716,o),
(69,740,o),
(91,740,cs),
(116,740,o),
(129,735,o),
(143,706,cs),
(290,390,ls),
(297,375,o),
(303,375,o),
(310,390,cs),
(457,706,ls),
(471,735,o),
(484,740,o),
(509,740,cs),
(531,740,o),
(553,716,o),
(541,690,cs),
(356,296,ls),
(349,281,o),
(345,265,o),
(345,248,cs),
(345,35,ls),
(345,5,o),
(330,-10,o),
(300,-10,cs)
);
}
);
width = 600;
},
{
layerId = "A9EA4EA3-63FD-46BE-AE35-8F493BD0E280";
shapes = (
{
closed = 1;
nodes = (
(283,-10,o),
(275,-2,o),
(275,15,cs),
(275,260,ls),
(275,273,o),
(272,286,o),
(266,298,cs),
(64,711,ls),
(56,727,o),
(71,740,o),
(86,740,cs),
(96,740,o),
(109,734,o),
(115,721,cs),
(291,356,ls),
(297,344,o),
(303,344,o),
(309,356,cs),
(485,721,ls),
(491,734,o),
(504,740,o),
(514,740,cs),
(529,740,o),
(544,727,o),
(536,711,cs),
(334,298,ls),
(328,286,o),
(325,273,o),
(325,260,cs),
(325,15,ls),
(325,-2,o),
(317,-10,o),
(300,-10,cs)
);
}
);
width = 600;
}
);
unicode = 89;
},
{
glyphname = Z;
layers = (
{
layerId = "E79C6012-54E0-4B47-AAB7-371DB4DAB7F2";
shapes = (
{
closed = 1;
nodes = (
(176,0,ls),
(108,0,o),
(75,33,o),
(75,97,cs),
(75,124,o),
(81,144,o),
(92,164,cs),
(328,569,ls),
(338,586,o),
(333,595,o),
(313,595,cs),
(150,595,ls),
(105,595,o),
(83,618,o),
(83,663,cs),
(83,708,o),
(106,730,o),
(151,730,cs),
(413,730,ls),
(481,730,o),
(514,697,o),
(514,631,cs),
(514,606,o),
(509,586,o),
(497,566,cs),
(260,161,ls),
(250,144,o),
(255,135,o),
(275,135,cs),
(458,135,ls),
(503,135,o),
(525,113,o),
(525,68,cs),
(525,23,o),
(503,0,o),
(458,0,cs)
);
}
);
width = 600;
},
{
layerId = "921C946B-68A7-49D6-9396-60D462B577B8";
shapes = (
{
closed = 1;
nodes = (
(153,0,ls),
(108,0,o),
(85,23,o),
(85,68,cs),
(85,83,o),
(88,96,o),
(96,109,cs),
(391,618,ls),
(399,632,o),
(396,640,o),
(379,640,cs),
(135,640,ls),
(108,640,o),
(90,658,o),
(90,685,cs),
(90,712,o),
(108,730,o),
(135,730,cs),
(437,730,ls),
(482,730,o),
(505,708,o),
(505,663,cs),
(505,648,o),
(502,634,o),
(494,621,cs),
(199,112,ls),
(191,98,o),
(194,90,o),
(211,90,cs),
(470,90,ls),
(497,90,o),
(515,72,o),
(515,45,cs),
(515,18,o),
(497,0,o),
(470,0,cs)
);
}
);
width = 600;
},
{
layerId = "A9EA4EA3-63FD-46BE-AE35-8F493BD0E280";
shapes = (
{
closed = 1;
nodes = (
(127,0,ls),
(102,0,o),
(90,13,o),
(90,36,cs),
(90,46,o),
(92,54,o),
(96,61,cs),
(433,663,ls),
(440,675,o),
(436,680,o),
(423,680,cs),
(121,680,ls),
(106,680,o),
(94,690,o),
(94,705,cs),
(94,720,o),
(106,730,o),
(121,730,cs),
(454,730,ls),
(483,730,o),
(497,716,o),
(497,687,cs),
(497,677,o),
(495,669,o),
(490,661,cs),
(157,67,ls),
(150,55,o),
(154,50,o),
(167,50,cs),
(485,50,ls),
(500,50,o),
(510,40,o),
(510,25,cs),
(510,10,o),
(500,0,o),
(485,0,cs)
);
}
);
width = 600;
}
);
unicode = 90;
},
{
glyphname = a;
layers = (
{
layerId = "E79C6012-54E0-4B47-AAB7-371DB4DAB7F2";
shapes = (
{
closed = 1;
nodes = (
(135,-10,o),
(40,63,o),
(40,238,cs),
(40,417,o),
(120,560,o),
(270,560,cs),
(395,560,o),
(425,432,o),
(425,298,cs),
(425,106,o),
(365,-10,o),
(230,-10,cs)
);
},
{
closed = 1;
nodes = (
(312,125,o),
(369,176,o),
(369,295,cs),
(369,372,o),
(355,425,o),
(304,425,cs),
(230,425,o),
(190,340,o),
(190,242,cs),
(190,175,o),
(213,125,o),
(262,125,cs)
);
},
{
closed = 1;
nodes = (
(392,538,o),
(421,560,o),
(467,560,cs),
(512,560,o),
(528,539,o),
(522,494,cs),
(502,352,o),
(494,222,o),
(529,54,cs),
(538,9,o),
(527,-10,o),
(482,-10,cs),
(436,-10,o),
(402,10,o),
(393,54,cs),
(358,222,o),
(366,352,o),
(386,494,cs)
);
}
);
width = 600;
},
{
layerId = "921C946B-68A7-49D6-9396-60D462B577B8";
shapes = (
{
closed = 1;
nodes = (
(146,-10,o),
(70,49,o),
(70,224,cs),
(70,409,o),
(144,560,o),
(300,560,cs),
(427,560,o),
(435,412,o),
(435,308,cs),
(435,162,o),
(395,-10,o),
(242,-10,cs)
);
},
{
closed = 1;
nodes = (
(334,80,o),
(395,172,o),
(395,308,cs),
(395,372,o),
(395,470,o),
(308,470,cs),
(225,470,o),
(160,360,o),
(160,215,cs),
(160,130,o),
(190,80,o),
(251,80,cs)
);
},
{
closed = 1;
nodes = (
(419,549,o),
(437,560,o),
(465,560,cs),
(497,560,o),
(509,546,o),
(504,516,cs),
(478,358,o),
(476,214,o),
(520,34,cs),
(527,5,o),
(516,-10,o),
(486,-10,cs),
(456,-10,o),
(437,5,o),
(430,34,cs),
(384,214,o),
(390,358,o),
(414,516,cs)
);
}
);
width = 600;
},
{
layerId = "A9EA4EA3-63FD-46BE-AE35-8F493BD0E280";
shapes = (
{
closed = 1;
nodes = (
(136,-10,o),
(90,82,o),
(90,205,cs),
(90,392,o),
(162,560,o),
(320,560,cs),
(445,560,o),
(444,418,o),
(441,298,cs),
(438,168,o),
(393,-10,o),
(248,-10,cs)
);
},
{
closed = 1;
nodes = (
(351,40,o),
(412,190,o),
(416,301,cs),
(419,390,o),
(424,510,o),
(318,510,cs),
(200,510,o),
(140,361,o),
(140,205,cs),
(140,103,o),
(178,40,o),
(246,40,cs)
);
},
{
closed = 1;
nodes = (
(439,552,o),
(449,560,o),
(466,560,cs),
(483,560,o),
(489,552,o),
(487,535,cs),
(462,350,o),
(452,208,o),
(496,14,cs),
(500,-2,o),
(494,-10,o),
(477,-10,cs),
(460,-10,o),
(450,-2,o),
(446,14,cs),
(400,208,o),
(412,350,o),
(437,535,cs)
);
}
);
width = 600;
}
);
unicode = 97;
},
{
glyphname = ae;
layers = (
{
layerId = "E79C6012-54E0-4B47-AAB7-371DB4DAB7F2";
shapes = (
{
closed = 1;
nodes = (
(218,330,ls),
(235,330,o),
(243,338,o),
(243,355,cs),
(243,400,ls),
(243,428,o),
(232,463,o),
(198,463,cs),
(180,463,o),
(168,453,o),
(161,439,cs),
(146,409,o),
(135,400,o),
(113,400,cs),
(56,400,o),
(29,433,o),
(50,478,cs),
(72,527,o),
(118,560,o),
(181,560,cs),
(239,560,o),
(294,530,o),
(301,468,c),
(308,530,o),
(364,560,o),
(421,560,cs),
(514,560,o),
(570,489,o),
(570,400,cs),
(570,350,ls),
(570,283,o),
(537,250,o),
(470,250,cs),
(386,250,ls),
(369,250,o),
(361,242,o),
(361,225,cs),
(361,150,ls),
(361,122,o),
(372,87,o),
(406,87,cs),
(424,87,o),
(436,97,o),
(443,111,cs),
(458,141,o),
(469,150,o),
(491,150,cs),
(548,150,o),
(574,117,o),
(554,72,cs),
(532,23,o),
(487,-10,o),
(424,-10,cs),
(368,-10,o),
(308,20,o),
(301,81,c),
(294,18,o),
(236,-10,o),
(178,-10,cs),
(80,-10,o),
(28,68,o),
(28,159,cs),
(28,261,o),
(96,330,o),
(198,330,cs)
);
},
{
closed = 1;
nodes = (
(243,225,ls),
(243,242,o),
(235,250,o),
(218,250,cs),
(198,250,ls),
(156,250,o),
(147,201,o),
(147,168,cs),
(147,136,o),
(156,87,o),
(197,87,cs),
(231,87,o),
(243,121,o),
(243,150,cs)
);
},
{
closed = 1;
nodes = (
(361,355,ls),
(361,338,o),
(369,330,o),
(386,330,cs),
(426,330,ls),
(443,330,o),
(451,338,o),
(451,355,cs),
(451,400,ls),
(451,428,o),
(440,463,o),
(406,463,cs),
(372,463,o),
(361,428,o),
(361,400,cs)
);
}
);
width = 600;
},
{
anchors = (
{
name = m.uni0308;
position = "{300, 550}";
}
);
layerId = "921C946B-68A7-49D6-9396-60D462B577B8";
shapes = (
{
closed = 1;
nodes = (
(243,324,ls),
(256,324,o),
(263,331,o),
(263,344,cs),
(263,399,ls),
(263,443,o),
(245,485,o),
(195,485,cs),
(162,485,o),
(139,467,o),
(130,440,cs),
(124,421,o),
(116,414,o),
(100,414,cs),
(63,414,o),
(44,434,o),
(54,466,cs),
(71,521,o),
(116,560,o),
(182,560,cs),
(238,560,o),
(296,532,o),
(304,471,c),
(311,530,o),
(365,560,o),
(420,560,cs),
(513,560,o),
(565,488,o),
(565,400,cs),
(565,336,ls),
(565,282,o),
(539,256,o),
(485,256,cs),
(363,256,ls),
(350,256,o),
(343,249,o),
(343,236,cs),
(343,150,ls),
(343,106,o),
(362,65,o),
(412,65,cs),
(445,65,o),
(468,82,o),
(477,109,cs),
(484,129,o),
(492,137,o),
(509,137,cs),
(549,137,o),
(568,115,o),
(556,82,cs),
(537,26,o),
(487,-10,o),
(420,-10,cs),
(365,-10,o),
(315,24,o),
(304,80,c),
(292,21,o),
(235,-10,o),
(178,-10,cs),
(82,-10,o),
(31,70,o),
(31,159,cs),
(31,250,o),
(86,324,o),
(182,324,cs)
);
},
{
closed = 1;
nodes = (
(263,236,ls),
(263,249,o),
(256,256,o),
(243,256,cs),
(184,256,ls),
(132,256,o),
(115,203,o),
(115,160,cs),
(115,112,o),
(137,65,o),
(191,65,cs),
(241,65,o),
(263,105,o),
(263,150,cs)
);
},
{
closed = 1;
nodes = (
(343,344,ls),
(343,331,o),
(350,324,o),
(363,324,cs),
(461,324,ls),
(474,324,o),
(481,331,o),
(481,344,cs),
(481,400,ls),
(481,443,o),
(461,485,o),
(412,485,cs),
(363,485,o),
(343,443,o),
(343,400,cs)
);
}
);
width = 600;
},
{
layerId = "A9EA4EA3-63FD-46BE-AE35-8F493BD0E280";
shapes = (
{
closed = 1;
nodes = (
(264,312,ls),
(274,312,o),
(279,317,o),
(279,327,cs),
(279,410,ls),
(279,462,o),
(253,517,o),
(194,517,cs),
(141,517,o),
(112,477,o),
(107,430,cs),
(106,419,o),
(100,414,o),
(90,414,cs),
(68,414,o),
(58,426,o),
(61,446,cs),
(72,510,o),
(115,560,o),
(187,560,cs),
(241,560,o),
(294,531,o),
(303,474,c),
(315,530,o),
(368,560,o),
(422,560,cs),
(510,560,o),
(560,494,o),
(560,410,cs),
(560,329,ls),
(560,289,o),
(540,269,o),
(500,269,cs),
(342,269,ls),
(332,269,o),
(327,264,o),
(327,254,cs),
(327,140,ls),
(327,82,o),
(361,34,o),
(423,34,cs),
(476,34,o),
(507,73,o),
(512,121,cs),
(513,132,o),
(519,137,o),
(529,137,cs),
(551,137,o),
(562,125,o),
(558,105,cs),
(547,39,o),
(500,-10,o),
(426,-10,cs),
(373,-10,o),
(315,19,o),
(303,75,c),
(292,16,o),
(228,-10,o),
(174,-10,cs),
(83,-10,o),
(40,74,o),
(40,155,cs),
(40,235,o),
(81,312,o),
(170,312,cs)
);
},
{
closed = 1;
nodes = (
(279,254,ls),
(279,264,o),
(274,269,o),
(264,269,cs),
(170,269,ls),
(109,269,o),
(88,206,o),
(88,155,cs),
(88,97,o),
(116,31,o),
(183,31,cs),
(246,31,o),
(279,81,o),
(279,140,cs)
);
},
{
closed = 1;
nodes = (
(327,327,ls),
(327,317,o),
(332,312,o),
(342,312,cs),
(497,312,ls),
(507,312,o),
(512,317,o),
(512,327,cs),
(512,410,ls),
(512,466,o),
(480,517,o),
(419,517,cs),
(358,517,o),
(327,466,o),
(327,410,cs)
);
}
);
width = 600;
}
);
unicode = 230;
},
{
glyphname = b;
layers = (
{
layerId = "E79C6012-54E0-4B47-AAB7-371DB4DAB7F2";
shapes = (
{
closed = 1;
nodes = (
(83,-10,o),
(60,14,o),
(60,63,cs),
(60,665,ls),
(60,715,o),
(85,740,o),
(135,740,cs),
(185,740,o),
(210,715,o),
(210,665,cs),
(210,459,l),
(230,523,o),
(273,560,o),
(337,560,cs),
(512,560,o),
(555,406,o),
(555,274,cs),
(555,148,o),
(515,-10,o),
(355,-10,cs),
(273,-10,o),
(220,37,o),
(205,99,c),
(205,63,ls),
(205,14,o),
(183,-10,o),
(133,-10,cs)
);
},
{
closed = 1;
nodes = (
(393,140,o),
(405,207,o),
(405,273,cs),
(405,341,o),
(392,420,o),
(311,420,cs),
(249,420,o),
(210,373,o),
(210,315,cs),
(210,235,ls),
(210,181,o),
(257,140,o),
(317,140,cs)
);
}
);
width = 600;
},
{
layerId = "921C946B-68A7-49D6-9396-60D462B577B8";
shapes = (
{
closed = 1;
nodes = (
(105,-10,o),
(90,5,o),
(90,36,cs),
(90,695,ls),
(90,725,o),
(105,740,o),
(135,740,cs),
(165,740,o),
(180,725,o),
(180,695,cs),
(180,456,l),
(199,519,o),
(244,560,o),
(317,560,cs),
(486,560,o),
(520,400,o),
(520,276,cs),
(520,152,o),
(486,-10,o),
(327,-10,cs),
(257,-10,o),
(205,21,o),
(180,100,c),
(180,36,ls),
(180,5,o),
(165,-10,o),
(135,-10,cs)
);
},
{
closed = 1;
nodes = (
(415,75,o),
(430,197,o),
(430,282,cs),
(430,364,o),
(416,475,o),
(302,475,cs),
(230,475,o),
(180,380,o),
(180,316,cs),
(180,206,ls),
(180,143,o),
(245,75,o),
(318,75,cs)
);
}
);
width = 600;
},
{
layerId = "A9EA4EA3-63FD-46BE-AE35-8F493BD0E280";
shapes = (
{
closed = 1;
nodes = (
(118,-10,o),
(110,-2,o),
(110,15,cs),
(110,715,ls),
(110,732,o),
(118,740,o),
(135,740,cs),
(152,740,o),
(160,732,o),
(160,715,cs),
(160,449,l),
(187,521,o),
(237,560,o),
(310,560,cs),
(461,560,o),
(505,394,o),
(505,275,cs),
(505,155,o),
(461,-10,o),
(313,-10,cs),
(205,-10,o),
(166,47,o),
(160,88,c),
(160,15,ls),
(160,-2,o),
(152,-10,o),
(135,-10,cs)
);
},
{
closed = 1;
nodes = (
(428,38,o),
(455,177,o),
(455,275,cs),
(455,373,o),
(428,512,o),
(303,512,cs),
(229,512,o),
(160,425,o),
(160,355,cs),
(160,194,ls),
(160,119,o),
(224,38,o),
(312,38,cs)
);
}
);
width = 600;
}
);
unicode = 98;
},
{
glyphname = c;
layers = (
{
layerId = "E79C6012-54E0-4B47-AAB7-371DB4DAB7F2";
shapes = (
{
closed = 1;
nodes = (
(55,479,o),
(164,560,o),
(306,560,cs),
(425,560,o),
(497,503,o),
(515,450,cs),
(528,412,o),
(514,371,o),
(481,357,cs),
(459,348,o),
(425,349,o),
(411,372,cs),
(390,407,o),
(357,425,o),
(319,425,cs),
(263,425,o),
(205,387,o),
(205,274,cs),
(205,169,o),
(255,125,o),
(315,125,cs),
(352,125,o),
(381,130,o),
(410,153,cs),
(437,174,o),
(472,180,o),
(500,160,cs),
(526,141,o),
(534,94,o),
(513,69,cs),
(455,0,o),
(395,-10,o),
(317,-10,cs),
(163,-10,o),
(55,78,o),
(55,278,cs)
);
}
);
width = 600;
},
{
layerId = "921C946B-68A7-49D6-9396-60D462B577B8";
shapes = (
{
closed = 1;
nodes = (
(80,479,o),
(193,560,o),
(327,560,cs),
(427,560,o),
(487,522,o),
(511,482,cs),
(529,452,o),
(523,428,o),
(501,415,cs),
(477,401,o),
(454,405,o),
(442,425,cs),
(428,447,o),
(391,470,o),
(333,470,cs),
(236,470,o),
(170,406,o),
(170,279,cs),
(170,148,o),
(240,80,o),
(332,80,cs),
(367,80,o),
(409,88,o),
(429,108,cs),
(445,124,o),
(471,129,o),
(493,110,cs),
(510,95,o),
(513,69,o),
(486,38,cs),
(450,-4,o),
(389,-10,o),
(330,-10,cs),
(184,-10,o),
(80,78,o),
(80,274,cs)
);
}
);
width = 600;
},
{
layerId = "A9EA4EA3-63FD-46BE-AE35-8F493BD0E280";
shapes = (
{
closed = 1;
nodes = (
(100,479,o),
(201,560,o),
(341,560,cs),
(427,560,o),
(468,530,o),
(486,500,cs),
(504,470,o),
(492,454,o),
(479,448,cs),
(466,443,o),
(452,448,o),
(441,466,cs),
(425,491,o),
(384,510,o),
(339,510,cs),
(247,510,o),
(150,432,o),
(150,273,cs),
(150,130,o),
(229,40,o),
(351,40,cs),
(397,40,o),
(430,53,o),
(454,71,cs),
(469,82,o),
(486,85,o),
(496,75,cs),
(506,64,o),
(505,46,o),
(491,33,cs),
(458,3,o),
(415,-10,o),
(339,-10,cs),
(200,-10,o),
(100,78,o),
(100,278,cs)
);
}
);
width = 600;
}
);
unicode = 99;
},
{
glyphname = d;
layers = (
{
layerId = "E79C6012-54E0-4B47-AAB7-371DB4DAB7F2";
shapes = (
{
closed = 1;
nodes = (
(417,-10,o),
(395,14,o),
(395,63,cs),
(395,99,l),
(380,37,o),
(327,-10,o),
(245,-10,cs),
(85,-10,o),
(45,148,o),
(45,274,cs),
(45,406,o),
(88,560,o),
(263,560,cs),
(327,560,o),
(370,523,o),
(390,459,c),
(390,665,ls),
(390,715,o),
(415,740,o),
(465,740,cs),
(515,740,o),
(540,715,o),
(540,665,cs),
(540,63,ls),
(540,14,o),
(517,-10,o),
(467,-10,cs)
);
},
{
closed = 1;
nodes = (
(343,140,o),
(390,181,o),
(390,235,cs),
(390,315,ls),
(390,373,o),
(351,420,o),
(289,420,cs),
(208,420,o),
(195,341,o),
(195,273,cs),
(195,207,o),
(207,140,o),
(283,140,cs)
);
}
);
width = 600;
},
{
layerId = "921C946B-68A7-49D6-9396-60D462B577B8";
shapes = (
{
closed = 1;
nodes = (
(435,-10,o),
(420,5,o),
(420,36,cs),
(420,100,l),
(395,21,o),
(343,-10,o),
(273,-10,cs),
(114,-10,o),
(80,152,o),
(80,276,cs),
(80,400,o),
(114,560,o),
(283,560,cs),
(356,560,o),
(401,519,o),
(420,456,c),
(420,695,ls),
(420,725,o),
(435,740,o),
(465,740,cs),
(495,740,o),
(510,725,o),
(510,695,cs),
(510,36,ls),
(510,5,o),
(495,-10,o),
(465,-10,cs)
);
},
{
closed = 1;
nodes = (
(355,75,o),
(420,143,o),
(420,206,cs),
(420,316,ls),
(420,380,o),
(370,475,o),
(298,475,cs),
(184,475,o),
(170,364,o),
(170,282,cs),
(170,197,o),
(185,75,o),
(282,75,cs)
);
}
);
width = 600;
},
{
layerId = "A9EA4EA3-63FD-46BE-AE35-8F493BD0E280";
shapes = (
{
closed = 1;
nodes = (
(448,-10,o),
(440,-2,o),
(440,15,cs),
(440,88,l),
(434,47,o),
(395,-10,o),
(287,-10,cs),
(139,-10,o),
(95,155,o),
(95,275,cs),
(95,394,o),
(139,560,o),
(290,560,cs),
(363,560,o),
(413,521,o),
(440,449,c),
(440,715,ls),
(440,732,o),
(448,740,o),
(465,740,cs),
(482,740,o),
(490,732,o),
(490,715,cs),
(490,15,ls),
(490,-2,o),
(482,-10,o),
(465,-10,cs)
);
},
{
closed = 1;
nodes = (
(376,38,o),
(440,119,o),
(440,194,cs),
(440,355,ls),
(440,425,o),
(371,512,o),
(297,512,cs),
(172,512,o),
(145,373,o),
(145,275,cs),
(145,177,o),
(172,38,o),
(288,38,cs)
);
}
);
width = 600;
}
);
unicode = 100;
},
{
glyphname = eth;
layers = (
{
layerId = "E79C6012-54E0-4B47-AAB7-371DB4DAB7F2";
shapes = (
{
closed = 1;
nodes = (
(174,632,ls),
(190,638,o),
(193,646,o),
(184,660,cs),
(182,663,ls),
(152,708,o),
(167,730,o),
(229,730,cs),
(271,730,o),
(306,717,o),
(314,707,cs),
(318,702,ls),
(325,693,o),
(334,690,o),
(345,694,cs),
(427,723,ls),
(471,739,o),
(493,724,o),
(493,677,cs),
(493,654,o),
(482,638,o),
(460,630,cs),
(417,614,ls),
(401,608,o),
(398,599,o),
(408,586,cs),
(446,537,ls),
(528,430,o),
(560,337,o),
(560,251,cs),
(560,96,o),
(459,0,o),
(300,0,cs),
(143,0,o),
(40,94,o),
(40,236,cs),
(40,368,o),
(122,456,o),
(243,456,cs),
(312,456,o),
(365,410,o),
(385,375,c),
(391,375,l),
(392,380,o),
(372,414,o),
(314,489,cs),
(276,538,ls),
(266,551,o),
(253,556,o),
(237,550,cs),
(172,526,ls),
(128,510,o),
(106,525,o),
(106,572,cs),
(106,595,o),
(117,611,o),
(139,619,cs)
);
},
{
closed = 1;
nodes = (
(367,125,o),
(410,168,o),
(410,235,cs),
(410,301,o),
(366,345,o),
(300,345,cs),
(233,345,o),
(190,302,o),
(190,235,cs),
(190,168,o),
(233,125,o),
(300,125,cs)
);
}
);
width = 600;
},
{
layerId = "921C946B-68A7-49D6-9396-60D462B577B8";
shapes = (
{
closed = 1;
nodes = (
(219,623,ls),
(231,629,o),
(233,636,o),
(225,647,cs),
(206,674,ls),
(179,712,o),
(188,730,o),
(234,730,cs),
(257,730,o),
(276,720,o),
(289,701,cs),
(302,682,ls),
(310,671,o),
(319,668,o),
(331,674,cs),
(413,712,ls),
(445,727,o),
(461,718,o),
(461,682,cs),
(461,664,o),
(453,651,o),
(437,644,cs),
(373,614,ls),
(361,608,o),
(358,601,o),
(366,590,cs),
(433,493,ls),
(492,408,o),
(530,308,o),
(530,223,cs),
(530,83,o),
(438,-10,o),
(299,-10,cs),
(162,-10,o),
(70,80,o),
(70,215,cs),
(70,348,o),
(154,436,o),
(281,436,cs),
(339,436,o),
(380,404,o),
(395,380,c),
(409,380,l),
(403,393,o),
(381,429,o),
(345,480,cs),
(292,555,ls),
(284,566,o),
(274,569,o),
(262,563,cs),
(165,518,ls),
(133,503,o),
(117,512,o),
(117,548,cs),
(117,566,o),
(125,578,o),
(141,586,cs)
);
},
{
closed = 1;
nodes = (
(384,70,o),
(440,128,o),
(440,215,cs),
(440,302,o),
(384,360,o),
(299,360,cs),
(216,360,o),
(160,302,o),
(160,215,cs),
(160,128,o),
(216,70,o),
(299,70,cs)
);
}
);
width = 600;
},
{
layerId = "A9EA4EA3-63FD-46BE-AE35-8F493BD0E280";
shapes = (
{
closed = 1;
nodes = (
(248,617,ls),
(257,621,o),
(259,627,o),
(253,635,cs),
(210,694,ls),
(193,718,o),
(199,730,o),
(228,730,cs),
(243,730,o),
(254,724,o),
(263,712,c),
(301,657,ls),
(307,649,o),
(315,647,o),
(324,651,cs),
(437,704,l),
(453,712,o),
(461,706,o),
(461,688,cs),
(461,679,o),
(457,673,o),
(449,669,c),
(346,621,ls),
(337,617,o),
(335,611,o),
(341,603,cs),
(401,517,ls),
(482,402,o),
(520,302,o),
(520,213,cs),
(520,78,o),
(434,-10,o),
(300,-10,cs),
(167,-10,o),
(80,79,o),
(80,215,cs),
(80,350,o),
(161,436,o),
(290,436,cs),
(363,436,o),
(420,385,o),
(442,347,c),
(445,347,l),
(439,366,o),
(411,419,o),
(358,491,cs),
(293,581,ls),
(287,589,o),
(279,591,o),
(270,587,cs),
(141,526,ls),
(125,518,o),
(117,524,o),
(117,542,cs),
(117,551,o),
(121,557,o),
(129,561,c)
);
},
{
closed = 1;
nodes = (
(400,40,o),
(465,109,o),
(465,216,cs),
(465,318,o),
(395,390,o),
(300,390,cs),
(199,390,o),
(135,322,o),
(135,215,cs),
(135,108,o),
(199,40,o),
(300,40,cs)
);
}
);
width = 600;
}
);
unicode = 240;
},
{
glyphname = dcaron;
layers = (
{
layerId = "E79C6012-54E0-4B47-AAB7-371DB4DAB7F2";
shapes = (
{
closed = 1;
nodes = (
(327,47,o),
(315,34,qs),
(274,-10,o),
(218,-10,qs),
(133,-10,o),
(20,131,o),
(20,275,qs),
(20,419,o),
(117,560,o),
(202,560,qs),
(273,560,o),
(322,505,qs),
(329,498,o),
(332,492,qs),
(336,485,o),
(344,486,o),
(344,506,cs),
(344,665,ls),
(344,715,o),
(369,740,o),
(419,740,cs),
(469,740,o),
(494,715,o),
(494,665,cs),
(494,63,ls),
(494,14,o),
(470,-10,o),
(421,-10,cs),
(372,-10,o),
(349,13,o),
(349,62,cs),
(349,64,ls),
(349,69,o),
(345,69,o),
(342,65,cs)
);
},
{
closed = 1;
nodes = (
(289,140,o),
(344,199,o),
(344,235,qs),
(344,315,ls),
(344,361,o),
(289,420,o),
(246,420,qs),
(210,420,o),
(170,354,o),
(170,275,qs),
(170,197,o),
(210,140,o),
(246,140,qs)
);
},
{
closed = 1;
nodes = (
(516,550,o),
(498,569,o),
(501,607,cs),
(506,669,ls),
(509,710,o),
(531,730,o),
(572,730,cs),
(613,730,o),
(631,710,o),
(626,669,cs),
(619,607,ls),
(615,569,o),
(594,550,o),
(555,550,cs)
);
}
);
width = 600;
},
{
layerId = "921C946B-68A7-49D6-9396-60D462B577B8";
shapes = (
{
closed = 1;
nodes = (
(360,45,o),
(338,27,qs),
(293,-10,o),
(238,-10,qs),
(165,-10,o),
(67,125,o),
(67,275,qs),
(67,425,o),
(165,560,o),
(238,560,qs),
(305,560,o),
(338,523,qs),
(358,500,o),
(374,476,qs),
(376,473,o),
(378,473,o),
(378,476,cs),
(378,695,ls),
(378,725,o),
(393,740,o),
(423,740,cs),
(453,740,o),
(468,725,o),
(468,695,cs),
(468,35,ls),
(468,5,o),
(453,-10,o),
(423,-10,cs),
(393,-10,o),
(378,5,o),
(378,35,cs),
(378,74,ls),
(378,76,o),
(375,77,o),
(374,74,cs)
);
},
{
closed = 1;
nodes = (
(300,73,o),
(378,163,o),
(378,205,qs),
(378,315,ls),
(378,381,o),
(304,475,o),
(265,475,qs),
(220,475,o),
(157,393,o),
(157,275,qs),
(157,158,o),
(221,73,o),
(258,73,qs)
);
},
{
closed = 1;
nodes = (
(528,550,o),
(516,562,o),
(518,587,cs),
(527,688,ls),
(529,716,o),
(544,730,o),
(572,730,cs),
(600,730,o),
(612,716,o),
(608,688,cs),
(595,587,ls),
(592,562,o),
(578,550,o),
(553,550,cs)
);
}
);
width = 600;
},
{
layerId = "A9EA4EA3-63FD-46BE-AE35-8F493BD0E280";
shapes = (
{
closed = 1;
nodes = (
(384,51,o),
(361,31,qs),
(313,-10,o),
(257,-10,qs),
(184,-10,o),
(85,129,o),
(85,275,qs),
(85,420,o),
(184,560,o),
(257,560,qs),
(323,560,o),
(361,519,qs),
(382,497,o),
(395,474,qs),
(397,471,o),
(400,471,o),
(400,475,cs),
(400,715,ls),
(400,732,o),
(408,740,o),
(425,740,cs),
(442,740,o),
(450,732,o),
(450,715,cs),
(450,15,ls),
(450,-2,o),
(442,-10,o),
(425,-10,cs),
(408,-10,o),
(400,-2,o),
(400,15,cs),
(400,75,ls),
(400,79,o),
(397,80,o),
(395,76,cs)
);
},
{
closed = 1;
nodes = (
(309,38,o),
(400,131,o),
(400,194,qs),
(400,355,ls),
(400,409,o),
(320,512,o),
(267,512,qs),
(210,512,o),
(135,404,o),
(135,275,qs),
(135,145,o),
(210,38,o),
(267,38,qs)
);
},
{
closed = 1;
nodes = (
(537,550,o),
(531,557,o),
(533,571,cs),
(551,704,ls),
(553,721,o),
(564,730,o),
(581,730,cs),
(598,730,o),
(605,721,o),
(602,704,cs),
(576,571,ls),
(573,557,o),
(565,550,o),
(551,550,cs)
);
}
);
width = 600;
}
);
unicode = 271;
},
{
glyphname = dcroat;
layers = (
{
anchors = (
{
name = t.uni0308;
position = "{410, 700}";
}
);
layerId = "E79C6012-54E0-4B47-AAB7-371DB4DAB7F2";
shapes = (
{
closed = 1;
nodes = (
(368,46,o),
(355,34,qs),
(304,-10,o),
(238,-10,qs),
(158,-10,o),
(40,121,o),
(40,255,qs),
(40,379,o),
(162,510,o),
(242,510,qs),
(316,510,o),
(355,475,qs),
(363,468,o),
(369,464,qs),
(375,460,o),
(384,461,o),
(384,469,cs),
(384,665,ls),
(384,715,o),
(409,740,o),
(459,740,cs),
(509,740,o),
(534,715,o),
(534,665,cs),
(534,63,ls),
(534,14,o),
(510,-10,o),
(461,-10,cs),
(412,-10,o),
(389,13,o),
(389,62,cs),
(389,64,ls),
(389,69,o),
(385,69,o),
(382,65,cs)
);
},
{
closed = 1;
nodes = (
(329,140,o),
(384,199,o),
(384,235,qs),
(384,265,ls),
(384,311,o),
(333,370,o),
(286,370,qs),
(245,370,o),
(190,319,o),
(190,255,qs),
(190,192,o),
(245,140,o),
(286,140,qs)
);
},
{
closed = 1;
nodes = (
(295,555,ls),
(258,555,o),
(240,573,o),
(240,610,cs),
(240,647,o),
(258,665,o),
(295,665,cs),
(555,665,ls),
(592,665,o),
(610,647,o),
(610,610,cs),
(610,573,o),
(592,555,o),
(555,555,cs)
);
}
);
width = 600;
},
{
anchors = (
{
name = _m.uni0308;
position = "{420, 488}";
},
{
name = _t.uni0308;
position = "{420, 488}";
},
{
name = t.uni0308;
position = "{420, 703}";
}
);
layerId = "921C946B-68A7-49D6-9396-60D462B577B8";
shapes = (
{
closed = 1;
nodes = (
(400,45,o),
(378,27,qs),
(333,-10,o),
(268,-10,qs),
(185,-10,o),
(77,135,o),
(77,255,qs),
(77,375,o),
(185,510,o),
(268,510,qs),
(343,510,o),
(378,473,qs),
(399,451,o),
(414,426,qs),
(416,423,o),
(418,423,o),
(418,426,cs),
(418,695,ls),
(418,725,o),
(433,740,o),
(463,740,cs),
(493,740,o),
(508,725,o),
(508,695,cs),
(508,35,ls),
(508,5,o),
(493,-10,o),
(463,-10,cs),
(433,-10,o),
(418,5,o),
(418,35,cs),
(418,74,ls),
(418,76,o),
(415,77,o),
(414,74,cs)
);
},
{
closed = 1;
nodes = (
(340,73,o),
(418,163,o),
(418,205,qs),
(418,265,ls),
(418,331,o),
(342,425,o),
(295,425,qs),
(240,425,o),
(167,343,o),
(167,255,qs),
(167,168,o),
(241,73,o),
(288,73,qs)
);
},
{
closed = 1;
nodes = (
(297,572,ls),
(272,572,o),
(260,585,o),
(260,610,cs),
(260,635,o),
(272,647,o),
(297,647,cs),
(552,647,ls),
(577,647,o),
(590,635,o),
(590,610,cs),
(590,585,o),
(577,572,o),
(552,572,cs)
);
}
);
width = 600;
},
{
anchors = (
{
name = t.uni0308;
position = "{440, 687}";
}
);
layerId = "A9EA4EA3-63FD-46BE-AE35-8F493BD0E280";
shapes = (
{
closed = 1;
nodes = (
(424,51,o),
(401,31,qs),
(353,-10,o),
(287,-10,qs),
(204,-10,o),
(95,129,o),
(95,255,qs),
(95,370,o),
(204,510,o),
(287,510,qs),
(363,510,o),
(401,469,qs),
(422,447,o),
(435,424,qs),
(437,421,o),
(440,421,o),
(440,425,cs),
(440,715,ls),
(440,732,o),
(448,740,o),
(465,740,cs),
(482,740,o),
(490,732,o),
(490,715,cs),
(490,15,ls),
(490,-2,o),
(482,-10,o),
(465,-10,cs),
(448,-10,o),
(440,-2,o),
(440,15,cs),
(440,75,ls),
(440,79,o),
(437,80,o),
(435,76,cs)
);
},
{
closed = 1;
nodes = (
(349,38,o),
(440,131,o),
(440,194,qs),
(440,305,ls),
(440,359,o),
(360,462,o),
(297,462,qs),
(230,462,o),
(145,354,o),
(145,255,qs),
(145,145,o),
(230,38,o),
(297,38,qs)
);
},
{
closed = 1;
nodes = (
(311,588,ls),
(297,588,o),
(290,596,o),
(290,610,cs),
(290,624,o),
(297,631,o),
(311,631,cs),
(559,631,ls),
(573,631,o),
(580,624,o),
(580,610,cs),
(580,596,o),
(573,588,o),
(559,588,cs)
);
}
);
width = 600;
}
);
unicode = 273;
},
{
glyphname = e;
layers = (
{
layerId = "E79C6012-54E0-4B47-AAB7-371DB4DAB7F2";
shapes = (
{
closed = 1;
nodes = (
(497,173,o),
(518,138,o),
(518,101,cs),
(518,80,o),
(512,63,o),
(486,41,cs),
(446,8,o),
(390,-10,o),
(305,-10,cs),
(140,-10,o),
(62,117,o),
(62,270,cs),
(62,417,o),
(134,560,o),
(306,560,cs),
(471,560,o),
(533,429,o),
(533,295,cs),
(533,251,o),
(513,230,o),
(472,230,cs),
(141,230,l),
(141,340,l),
(395,340,ls),
(403,340,o),
(407,343,o),
(407,354,cs),
(407,396,o),
(371,425,o),
(302,425,cs),
(235,425,o),
(196,371,o),
(196,286,cs),
(196,161,o),
(255,125,o),
(313,125,cs),
(356,125,o),
(402,143,o),
(419,157,cs),
(432,167,o),
(447,173,o),
(461,173,cs)
);
}
);
width = 600;
},
{
layerId = "921C946B-68A7-49D6-9396-60D462B577B8";
shapes = (
{
closed = 1;
nodes = (
(484,132,o),
(503,110,o),
(503,88,cs),
(503,76,o),
(498,66,o),
(482,50,cs),
(440,10,o),
(385,-10,o),
(319,-10,cs),
(165,-10,o),
(73,98,o),
(73,272,cs),
(73,425,o),
(143,560,o),
(313,560,cs),
(472,560,o),
(515,443,o),
(515,287,cs),
(515,263,o),
(496,240,o),
(468,240,cs),
(128,240,l),
(128,320,l),
(409,320,ls),
(416,320,o),
(425,325,o),
(425,353,cs),
(425,410,o),
(388,470,o),
(303,470,cs),
(207,470,o),
(163,389,o),
(163,280,cs),
(163,145,o),
(225,80,o),
(320,80,cs),
(379,80,o),
(413,104,o),
(433,120,cs),
(444,129,o),
(449,132,o),
(459,132,cs)
);
}
);
width = 600;
},
{
layerId = "A9EA4EA3-63FD-46BE-AE35-8F493BD0E280";
shapes = (
{
closed = 1;
nodes = (
(478.407,113.99,o),
(490,95.77,o),
(490,82,cs),
(490,75,o),
(487,69,o),
(482,64,cs),
(431,10,o),
(395,-10,o),
(300,-10,cs),
(142,-10,o),
(83,106,o),
(83,263,cs),
(83,418,o),
(140,560,o),
(305,560,cs),
(460,560,o),
(503,432,o),
(503,288,cs),
(503,273,o),
(492,258,o),
(476,258,cs),
(110,258,l),
(108,308,l),
(445,308,ls),
(451,308,o),
(453,311,o),
(453,329,cs),
(453,409,o),
(416,510,o),
(302,510,cs),
(180,510,o),
(133,389,o),
(133,287,cs),
(133,129,o),
(190,40,o),
(302,40,cs),
(363,40,o),
(398,57,o),
(441,100,cs),
(447,106,o),
(454.003,113.99,o),
(463.75,113.99,cs)
);
}
);
width = 600;
}
);
unicode = 101;
},
{
glyphname = f;
layers = (
{
layerId = "E79C6012-54E0-4B47-AAB7-371DB4DAB7F2";
shapes = (
{
closed = 1;
nodes = (
(111,340,ls),
(66,340,o),
(44,363,o),
(44,408,cs),
(44,453,o),
(66,475,o),
(111,475,cs),
(474,475,ls),
(519,475,o),
(541,453,o),
(541,408,cs),
(541,363,o),
(519,340,o),
(474,340,cs)
);
},
{
closed = 1;
nodes = (
(200,545,ls),
(200,653,o),
(284,730,o),
(405,730,cs),
(466,730,ls),
(510,730,o),
(531,709,o),
(531,665,cs),
(531,621,o),
(510,600,o),
(466,600,cs),
(405,600,ls),
(372,600,o),
(350,578,o),
(350,545,cs),
(350,65,ls),
(350,15,o),
(325,-10,o),
(275,-10,cs),
(225,-10,o),
(200,15,o),
(200,65,cs)
);
}
);
width = 600;
},
{
layerId = "921C946B-68A7-49D6-9396-60D462B577B8";
shapes = (
{
closed = 1;
nodes = (
(99,380,ls),
(72,380,o),
(55,398,o),
(55,425,cs),
(55,452,o),
(72,470,o),
(99,470,cs),
(486,470,ls),
(513,470,o),
(530,452,o),
(530,425,cs),
(530,398,o),
(513,380,o),
(486,380,cs)
);
},
{
closed = 1;
nodes = (
(215,570,ls),
(215,669,o),
(293,730,o),
(389,730,cs),
(474,730,ls),
(501,730,o),
(520,712,o),
(520,685,cs),
(520,658,o),
(501,640,o),
(474,640,cs),
(389,640,ls),
(335,640,o),
(305,600,o),
(305,570,cs),
(305,35,ls),
(305,5,o),
(290,-10,o),
(260,-10,cs),
(230,-10,o),
(215,5,o),
(215,35,cs)
);
}
);
width = 600;
},
{
layerId = "A9EA4EA3-63FD-46BE-AE35-8F493BD0E280";
shapes = (
{
closed = 1;
nodes = (
(90,419,ls),
(75,419,o),
(65,430,o),
(65,445,cs),
(65,460,o),
(75,469,o),
(90,469,cs),
(493,469,ls),
(508,469,o),
(518,460,o),
(518,445,cs),
(518,430,o),
(508,419,o),
(493,419,cs)
);
},
{
closed = 1;
nodes = (
(235,595,ls),
(235,672,o),
(291,730,o),
(375,730,cs),
(484,730,ls),
(499,730,o),
(508,720,o),
(508,705,cs),
(508,690,o),
(499,680,o),
(484,680,cs),
(375,680,ls),
(322,680,o),
(285,637,o),
(285,595,cs),
(285,15,ls),
(285,-2,o),
(277,-10,o),
(260,-10,cs),
(243,-10,o),
(235,-2,o),
(235,15,cs)
);
}
);
width = 600;
}
);
unicode = 102;
},
{
glyphname = g;
layers = (
{
layerId = "E79C6012-54E0-4B47-AAB7-371DB4DAB7F2";
shapes = (
{
closed = 1;
nodes = (
(395,99,l),
(380,37,o),
(327,-10,o),
(245,-10,cs),
(85,-10,o),
(45,148,o),
(45,274,cs),
(45,406,o),
(88,560,o),
(263,560,cs),
(327,560,o),
(370,523,o),
(390,459,c),
(390,485,ls),
(390,535,o),
(415,560,o),
(465,560,cs),
(515,560,o),
(540,535,o),
(540,485,cs),
(540,0,ls),
(540,-172,o),
(473,-270,o),
(280,-270,cs),
(201,-270,o),
(130,-241,o),
(77,-181,cs),
(65,-167,o),
(57,-148,o),
(57,-130,cs),
(57,-93,o),
(91,-53,o),
(133,-53,cs),
(146,-53,o),
(160,-57,o),
(171,-67,cs),
(204,-98,o),
(247,-135,o),
(301,-135,cs),
(362,-135,o),
(395,-88,o),
(395,0,cs)
);
},
{
closed = 1;
nodes = (
(343,140,o),
(390,181,o),
(390,235,cs),
(390,315,ls),
(390,373,o),
(351,420,o),
(289,420,cs),
(208,420,o),
(195,341,o),
(195,273,cs),
(195,207,o),
(207,140,o),
(283,140,cs)
);
}
);
width = 600;
},
{
layerId = "921C946B-68A7-49D6-9396-60D462B577B8";
shapes = (
{
closed = 1;
nodes = (
(420,120,l),
(395,41,o),
(343,10,o),
(273,10,cs),
(114,10,o),
(80,157,o),
(80,281,cs),
(80,405,o),
(114,560,o),
(283,560,cs),
(356,560,o),
(401,519,o),
(420,456,c),
(420,515,ls),
(420,545,o),
(435,560,o),
(465,560,cs),
(495,560,o),
(510,545,o),
(510,515,cs),
(510,0,ls),
(510,-169,o),
(413,-240,o),
(292,-240,cs),
(199,-240,o),
(143,-202,o),
(106,-156,cs),
(96,-144,o),
(92,-132,o),
(92,-120,cs),
(92,-98,o),
(109,-64,o),
(139,-64,cs),
(154,-64,o),
(164,-70,o),
(173,-82,cs),
(202,-117,o),
(249,-150,o),
(304,-150,cs),
(353,-150,o),
(420,-114,o),
(420,0,cs)
);
},
{
closed = 1;
nodes = (
(355,95,o),
(420,163,o),
(420,226,cs),
(420,316,ls),
(420,380,o),
(370,475,o),
(298,475,cs),
(184,475,o),
(170,369,o),
(170,287,cs),
(170,202,o),
(185,95,o),
(282,95,cs)
);
}
);
width = 600;
},
{
layerId = "A9EA4EA3-63FD-46BE-AE35-8F493BD0E280";
shapes = (
{
closed = 1;
nodes = (
(440,128,l),
(434,87,o),
(395,30,o),
(287,30,cs),
(139,30,o),
(95,165,o),
(95,285,cs),
(95,404,o),
(139,560,o),
(290,560,cs),
(363,560,o),
(413,521,o),
(440,449,c),
(440,535,ls),
(440,552,o),
(448,560,o),
(465,560,cs),
(482,560,o),
(490,552,o),
(490,535,cs),
(490,0,ls),
(490,-173,o),
(391,-210,o),
(296,-210,cs),
(209,-210,o),
(160,-179,o),
(128,-147,cs),
(116,-134,o),
(112,-127,o),
(112,-114,cs),
(112,-97,o),
(121,-85,o),
(137,-85,cs),
(143,-85,o),
(150,-87,o),
(160,-97,cs),
(176,-113,o),
(236,-160,o),
(298,-160,cs),
(376,-160,o),
(440,-128,o),
(440,0,cs)
);
},
{
closed = 1;
nodes = (
(376,78,o),
(440,159,o),
(440,234,cs),
(440,355,ls),
(440,425,o),
(371,512,o),
(297,512,cs),
(172,512,o),
(145,383,o),
(145,285,cs),
(145,187,o),
(172,78,o),
(288,78,cs)
);
}
);
width = 600;
}
);
unicode = 103;
},
{
glyphname = h;
layers = (
{
layerId = "E79C6012-54E0-4B47-AAB7-371DB4DAB7F2";
shapes = (
{
closed = 1;
nodes = (
(212,65,ls),
(212,15,o),
(187,-10,o),
(137,-10,cs),
(87,-10,o),
(62,15,o),
(62,65,cs),
(62,667,ls),
(62,716,o),
(86,740,o),
(131,740,cs),
(176,740,o),
(207,716,o),
(207,667,cs),
(207,450,l),
(228,520,o),
(275,560,o),
(339,560,cs),
(467,560,o),
(538,469,o),
(538,355,cs),
(538,65,ls),
(538,15,o),
(513,-10,o),
(463,-10,cs),
(413,-10,o),
(388,15,o),
(388,65,cs),
(388,325,ls),
(388,371,o),
(368,420,o),
(313,420,cs),
(251,420,o),
(212,373,o),
(212,315,cs)
);
}
);
width = 600;
},
{
layerId = "921C946B-68A7-49D6-9396-60D462B577B8";
shapes = (
{
closed = 1;
nodes = (
(185,35,ls),
(185,5,o),
(170,-10,o),
(140,-10,cs),
(110,-10,o),
(95,5,o),
(95,35,cs),
(95,695,ls),
(95,725,o),
(110,740,o),
(140,740,cs),
(170,740,o),
(185,725,o),
(185,695,cs),
(185,456,l),
(204,519,o),
(249,560,o),
(322,560,cs),
(428,560,o),
(505,484,o),
(505,370,cs),
(505,35,ls),
(505,5,o),
(490,-10,o),
(460,-10,cs),
(430,-10,o),
(415,5,o),
(415,35,cs),
(415,344,ls),
(415,413,o),
(378,475,o),
(307,475,cs),
(235,475,o),
(185,380,o),
(185,316,cs)
);
}
);
width = 600;
},
{
layerId = "A9EA4EA3-63FD-46BE-AE35-8F493BD0E280";
shapes = (
{
closed = 1;
nodes = (
(165,15,ls),
(165,-2,o),
(157,-10,o),
(140,-10,cs),
(123,-10,o),
(115,-2,o),
(115,15,cs),
(115,715,ls),
(115,732,o),
(123,740,o),
(140,740,cs),
(157,740,o),
(165,732,o),
(165,715,cs),
(165,449,l),
(192,521,o),
(242,560,o),
(315,560,cs),
(423,560,o),
(485,476,o),
(485,367,cs),
(485,15,ls),
(485,-2,o),
(477,-10,o),
(460,-10,cs),
(443,-10,o),
(435,-2,o),
(435,15,cs),
(435,355,ls),
(435,438,o),
(391,512,o),
(308,512,cs),
(234,512,o),
(165,425,o),
(165,355,cs)
);
}
);
width = 600;
}
);
unicode = 104;
},
{
glyphname = idotless;
layers = (
{
layerId = "E79C6012-54E0-4B47-AAB7-371DB4DAB7F2";
shapes = (
{
closed = 1;
nodes = (
(493,135,ls),
(538,135,o),
(560,113,o),
(560,68,cs),
(560,23,o),
(537,0,o),
(492,0,cs),
(138,0,ls),
(93,0,o),
(70,23,o),
(70,68,cs),
(70,113,o),
(92,135,o),
(137,135,cs)
);
},
{
closed = 1;
nodes = (
(252,55,l),
(252,339,ls),
(252,376,o),
(234,395,o),
(197,395,cs),
(160,395,ls),
(113,395,o),
(90,417,o),
(90,462,cs),
(90,507,o),
(113,530,o),
(160,530,cs),
(282,530,ls),
(362,530,o),
(402,490,o),
(402,410,cs),
(402,55,l)
);
}
);
width = 600;
},
{
layerId = "921C946B-68A7-49D6-9396-60D462B577B8";
shapes = (
{
closed = 1;
nodes = (
(512,90,ls),
(539,90,o),
(555,72,o),
(555,45,cs),
(555,18,o),
(539,0,o),
(512,0,cs),
(128,0,ls),
(101,0,o),
(85,18,o),
(85,45,cs),
(85,72,o),
(101,90,o),
(128,90,cs)
);
},
{
closed = 1;
nodes = (
(280,40,l),
(280,400,ls),
(280,427,o),
(267,440,o),
(240,440,cs),
(149,440,ls),
(122,440,o),
(105,458,o),
(105,485,cs),
(105,512,o),
(122,530,o),
(149,530,cs),
(290,530,ls),
(344,530,o),
(370,504,o),
(370,450,cs),
(370,40,l)
);
}
);
width = 600;
},
{
layerId = "A9EA4EA3-63FD-46BE-AE35-8F493BD0E280";
shapes = (
{
closed = 1;
nodes = (
(510,50,ls),
(525,50,o),
(535,40,o),
(535,25,cs),
(535,10,o),
(526,0,o),
(511,0,cs),
(119,0,ls),
(104,0,o),
(95,10,o),
(95,25,cs),
(95,40,o),
(104,50,o),
(119,50,cs)
);
},
{
closed = 1;
nodes = (
(296,25,l),
(296,450,ls),
(296,470,o),
(286,480,o),
(266,480,cs),
(145,480,ls),
(130,480,o),
(120,490,o),
(120,505,cs),
(120,520,o),
(130,530,o),
(145,530,cs),
(286,530,ls),
(326,530,o),
(346,510,o),
(346,470,cs),
(346,25,l)
);
}
);
width = 600;
}
);
unicode = 305;
},
{
glyphname = ij;
layers = (
{
layerId = "E79C6012-54E0-4B47-AAB7-371DB4DAB7F2";
shapes = (
{
closed = 1;
nodes = (
(152,-180,ls),
(107,-180,o),
(85,-158,o),
(85,-113,cs),
(85,-68,o),
(107,-45,o),
(152,-45,cs),
(280,-45,ls),
(318,-45,o),
(365,5,o),
(365,45,qs),
(365,475,ls),
(365,525,o),
(390,550,o),
(440,550,cs),
(490,550,o),
(515,525,o),
(515,475,cs),
(515,40,ls),
(515,-62,o),
(395,-180,o),
(291,-180,qs)
);
},
{
closed = 1;
nodes = (
(85,475,ls),
(85,525,o),
(110,550,o),
(160,550,cs),
(210,550,o),
(235,525,o),
(235,475,cs),
(235,140,ls),
(235,90,o),
(210,65,o),
(160,65,cs),
(110,65,o),
(85,90,o),
(85,140,cs)
);
},
{
closed = 1;
nodes = (
(119,637,o),
(70,679,o),
(70,715,qs),
(70,751,o),
(119,793,o),
(160,793,qs),
(201,793,o),
(250,751,o),
(250,715,qs),
(250,679,o),
(201,637,o),
(160,637,qs)
);
},
{
closed = 1;
nodes = (
(399,637,o),
(350,679,o),
(350,715,qs),
(350,751,o),
(399,793,o),
(440,793,qs),
(481,793,o),
(530,751,o),
(530,715,qs),
(530,679,o),
(481,637,o),
(440,637,qs)
);
}
);
width = 600;
},
{
layerId = "921C946B-68A7-49D6-9396-60D462B577B8";
shapes = (
{
closed = 1;
nodes = (
(149,-180,ls),
(122,-180,o),
(108,-166,o),
(108,-139,cs),
(108,-112,o),
(122,-98,o),
(149,-98,cs),
(274,-98,ls),
(336,-98,o),
(405,-30,o),
(405,31,qs),
(405,505,ls),
(405,535,o),
(420,550,o),
(450,550,cs),
(480,550,o),
(495,535,o),
(495,505,cs),
(495,31,ls),
(495,-66,o),
(375,-180,o),
(274,-180,qs)
);
},
{
closed = 1;
nodes = (
(108,505,ls),
(108,535,o),
(123,550,o),
(153,550,cs),
(183,550,o),
(198,535,o),
(198,505,cs),
(198,45,ls),
(198,15,o),
(183,0,o),
(153,0,cs),
(123,0,o),
(108,15,o),
(108,45,cs)
);
},
{
closed = 1;
nodes = (
(118,649,o),
(80,683,o),
(80,712,qs),
(80,742,o),
(118,777,o),
(151,777,qs),
(184,777,o),
(222,742,o),
(222,712,qs),
(222,683,o),
(184,649,o),
(151,649,qs)
);
},
{
closed = 1;
nodes = (
(416,649,o),
(378,683,o),
(378,712,qs),
(378,742,o),
(416,777,o),
(449,777,qs),
(482,777,o),
(520,742,o),
(520,712,qs),
(520,683,o),
(482,649,o),
(449,649,qs)
);
}
);
width = 600;
},
{
layerId = "A9EA4EA3-63FD-46BE-AE35-8F493BD0E280";
shapes = (
{
closed = 1;
nodes = (
(150,-180,ls),
(135,-180,o),
(127,-173,o),
(127,-158,cs),
(127,-143,o),
(135,-135,o),
(150,-135,cs),
(281,-135,ls),
(352,-135,o),
(425,-60,o),
(425,10,qs),
(425,525,ls),
(425,542,o),
(433,550,o),
(450,550,cs),
(467,550,o),
(475,542,o),
(475,525,cs),
(475,10,ls),
(475,-79,o),
(373,-180,o),
(281,-180,qs)
);
},
{
closed = 1;
nodes = (
(127,525,ls),
(127,542,o),
(135,550,o),
(152,550,cs),
(169,550,o),
(177,542,o),
(177,525,cs),
(177,25,ls),
(177,8,o),
(169,0,o),
(152,0,cs),
(135,0,o),
(127,8,o),
(127,25,cs)
);
},
{
closed = 1;
nodes = (
(126,655,o),
(94,685,o),
(94,710,qs),
(94,735,o),
(126,765,o),
(152,765,qs),
(178,765,o),
(210,735,o),
(210,710,qs),
(210,685,o),
(178,655,o),
(152,655,qs)
);
},
{
closed = 1;
nodes = (
(422,655,o),
(390,685,o),
(390,710,qs),
(390,735,o),
(422,765,o),
(448,765,qs),
(474,765,o),
(506,735,o),
(506,710,qs),
(506,685,o),
(474,655,o),
(448,655,qs)
);
}
);
width = 600;
}
);
unicode = 307;
},
{
glyphname = ij_acute;
layers = (
{
anchors = (
{
name = m.uni0308;
position = "{495, 785}";
}
);
layerId = "E79C6012-54E0-4B47-AAB7-371DB4DAB7F2";
shapes = (
{
closed = 1;
nodes = (
(85,-68,o),
(107,-45,o),
(152,-45,cs),
(280,-45,ls),
(318,-45,o),
(365,5,o),
(365,45,qs),
(365,475,ls),
(365,525,o),
(390,550,o),
(440,550,cs),
(490,550,o),
(515,525,o),
(515,475,cs),
(515,40,ls),
(515,-62,o),
(395,-180,o),
(291,-180,qs),
(152,-180,ls),
(107,-180,o),
(85,-158,o),
(85,-113,cs)
);
},
{
closed = 1;
nodes = (
(110,65,o),
(85,90,o),
(85,140,cs),
(85,475,ls),
(85,525,o),
(110,550,o),
(160,550,cs),
(210,550,o),
(235,525,o),
(235,475,cs),
(235,140,ls),
(235,90,o),
(210,65,o),
(160,65,cs)
);
},
{
closed = 1;
nodes = (
(394,645,o),
(382,671,o),
(422,724,cs),
(437,745,ls),
(461,778,o),
(489,785,o),
(528,785,cs),
(595,785,o),
(607,759,o),
(564,708,cs),
(543,683,ls),
(522,657,o),
(494,645,o),
(461,645,cs)
);
},
{
closed = 1;
nodes = (
(110,645,o),
(98,671,o),
(138,724,cs),
(153,745,ls),
(177,778,o),
(205,785,o),
(244,785,cs),
(311,785,o),
(323,759,o),
(280,708,cs),
(259,683,ls),
(238,657,o),
(210,645,o),
(177,645,cs)
);
}
);
width = 600;
},
{
anchors = (
{
name = m.uni0308;
position = "{495, 785}";
}
);
layerId = "921C946B-68A7-49D6-9396-60D462B577B8";
shapes = (
{
closed = 1;
nodes = (
(108,-112,o),
(122,-98,o),
(149,-98,cs),
(274,-98,ls),
(336,-98,o),
(405,-30,o),
(405,31,qs),
(405,505,ls),
(405,535,o),
(420,550,o),
(450,550,cs),
(480,550,o),
(495,535,o),
(495,505,cs),
(495,31,ls),
(495,-66,o),
(375,-180,o),
(274,-180,qs),
(149,-180,ls),
(122,-180,o),
(108,-166,o),
(108,-139,cs)
);
},
{
closed = 1;
nodes = (
(123,0,o),
(108,15,o),
(108,45,cs),
(108,505,ls),
(108,535,o),
(123,550,o),
(153,550,cs),
(183,550,o),
(198,535,o),
(198,505,cs),
(198,45,ls),
(198,15,o),
(183,0,o),
(153,0,cs)
);
},
{
closed = 1;
nodes = (
(417,645,o),
(409,661,o),
(434,694,cs),
(483,759,ls),
(496,776,o),
(513,785,o),
(535,785,cs),
(578,785,o),
(587,768,o),
(560,734,cs),
(508,669,ls),
(495,653,o),
(479,645,o),
(458,645,cs)
);
},
{
closed = 1;
nodes = (
(128,645,o),
(120,661,o),
(145,694,cs),
(194,759,ls),
(207,776,o),
(224,785,o),
(246,785,cs),
(289,785,o),
(298,768,o),
(271,734,cs),
(219,669,ls),
(206,653,o),
(190,645,o),
(169,645,cs)
);
}
);
width = 600;
},
{
anchors = (
{
name = m.uni0308;
position = "{499, 785}";
}
);
layerId = "A9EA4EA3-63FD-46BE-AE35-8F493BD0E280";
shapes = (
{
closed = 1;
nodes = (
(127,-143,o),
(135,-135,o),
(150,-135,cs),
(281,-135,ls),
(352,-135,o),
(425,-60,o),
(425,10,qs),
(425,525,ls),
(425,542,o),
(433,550,o),
(450,550,cs),
(467,550,o),
(475,542,o),
(475,525,cs),
(475,10,ls),
(475,-79,o),
(373,-180,o),
(281,-180,qs),
(150,-180,ls),
(135,-180,o),
(127,-173,o),
(127,-158,cs)
);
},
{
closed = 1;
nodes = (
(135,0,o),
(127,8,o),
(127,25,cs),
(127,525,ls),
(127,542,o),
(135,550,o),
(152,550,cs),
(169,550,o),
(177,542,o),
(177,525,cs),
(177,25,ls),
(177,8,o),
(169,0,o),
(152,0,cs)
);
},
{
closed = 1;
nodes = (
(431,645,o),
(427,654,o),
(441,673,cs),
(514,769,ls),
(522,780,o),
(533,785,o),
(546,785,cs),
(572,785,o),
(576,775,o),
(560,754,cs),
(484,659,ls),
(477,650,o),
(467,645,o),
(455,645,cs)
);
},
{
closed = 1;
nodes = (
(136,645,o),
(132,654,o),
(146,673,cs),
(219,769,ls),
(227,780,o),
(238,785,o),
(251,785,cs),
(277,785,o),
(281,775,o),
(265,754,cs),
(189,659,ls),
(182,650,o),
(172,645,o),
(160,645,cs)
);
}
);
width = 600;
}
);
},
{
glyphname = jdotless;
layers = (
{
layerId = "E79C6012-54E0-4B47-AAB7-371DB4DAB7F2";
shapes = (
{
closed = 1;
nodes = (
(315,339,ls),
(315,376,o),
(297,395,o),
(260,395,cs),
(168,395,ls),
(125,395,o),
(103,417,o),
(103,461,cs),
(103,507,o),
(126,530,o),
(173,530,cs),
(345,530,ls),
(425,530,o),
(465,490,o),
(465,410,cs),
(465,46,ls),
(465,-162,o),
(409,-270,o),
(225,-270,cs),
(182,-270,o),
(118,-264,o),
(42,-181,cs),
(29,-167,o),
(22,-145,o),
(22,-128,cs),
(22,-95,o),
(47,-57,o),
(88,-53,cs),
(113,-51,o),
(135,-63,o),
(154,-88,cs),
(167,-106,o),
(195,-135,o),
(237,-135,cs),
(290,-135,o),
(315,-89,o),
(315,22,cs)
);
}
);
width = 600;
},
{
layerId = "921C946B-68A7-49D6-9396-60D462B577B8";
shapes = (
{
closed = 1;
nodes = (
(350,400,ls),
(350,427,o),
(337,440,o),
(310,440,cs),
(175,440,ls),
(148,440,o),
(130,458,o),
(130,485,cs),
(130,510,o),
(148,530,o),
(175,530,cs),
(360,530,ls),
(414,530,o),
(440,504,o),
(440,450,cs),
(440,-33,ls),
(440,-157,o),
(352,-240,o),
(240,-240,cs),
(162,-240,o),
(106,-199,o),
(61,-148,cs),
(53,-140,o),
(50,-129,o),
(50,-120,cs),
(50,-99,o),
(66,-68,o),
(96,-68,cs),
(115,-68,o),
(128,-81,o),
(142,-97,cs),
(165,-123,o),
(193,-150,o),
(240,-150,cs),
(296,-150,o),
(350,-113,o),
(350,-47,cs)
);
}
);
width = 600;
},
{
layerId = "A9EA4EA3-63FD-46BE-AE35-8F493BD0E280";
shapes = (
{
closed = 1;
nodes = (
(366,450,ls),
(366,470,o),
(356,480,o),
(336,480,cs),
(175,480,ls),
(160,480,o),
(150,490,o),
(150,505,cs),
(150,520,o),
(160,530,o),
(175,530,cs),
(356,530,ls),
(396,530,o),
(416,510,o),
(416,470,cs),
(416,-63,ls),
(416,-156,o),
(339,-220,o),
(239,-220,cs),
(151,-220,o),
(100,-170,o),
(75,-144,cs),
(70,-139,o),
(69,-131,o),
(69,-127,cs),
(69,-114,o),
(80,-94,o),
(92,-94,cs),
(99,-94,o),
(107,-101,o),
(117,-111,cs),
(154,-146,o),
(188,-170,o),
(237,-170,cs),
(306,-170,o),
(366,-123,o),
(366,-67,cs)
);
}
);
width = 600;
}
);
unicode = 567;
},
{
glyphname = k;
layers = (
{
layerId = "E79C6012-54E0-4B47-AAB7-371DB4DAB7F2";
shapes = (
{
closed = 1;
nodes = (
(225,65,ls),
(225,15,o),
(200,-10,o),
(150,-10,cs),
(100,-10,o),
(75,15,o),
(75,65,cs),
(75,665,ls),
(75,715,o),
(100,740,o),
(150,740,cs),
(200,740,o),
(225,715,o),
(225,665,cs)
);
},
{
closed = 1;
nodes = (
(202,136,l),
(202,340,l),
(373,527,ls),
(395,551,o),
(420,560,o),
(445,560,cs),
(499,560,o),
(539,507,o),
(495,459,cs)
);
},
{
closed = 1;
nodes = (
(364,348,l),
(533,86,ls),
(564,38,o),
(523,-10,o),
(478,-10,cs),
(440,-10,o),
(410,1,o),
(390,33,cs),
(258,240,l)
);
}
);
width = 600;
},
{
layerId = "921C946B-68A7-49D6-9396-60D462B577B8";
shapes = (
{
closed = 1;
nodes = (
(190,35,ls),
(190,5,o),
(175,-10,o),
(145,-10,cs),
(115,-10,o),
(100,5,o),
(100,35,cs),
(100,695,ls),
(100,725,o),
(115,740,o),
(145,740,cs),
(175,740,o),
(190,725,o),
(190,695,cs)
);
},
{
closed = 1;
nodes = (
(164,163,l),
(164,287,l),
(415,539,ls),
(430,554,o),
(445,560,o),
(462,560,cs),
(500,560,o),
(517,524,o),
(491,497,cs)
);
},
{
closed = 1;
nodes = (
(332,360,l),
(518,46,ls),
(536,16,o),
(515,-10,o),
(491,-10,cs),
(469,-10,o),
(446,-10,o),
(430,18,cs),
(266,297,l)
);
}
);
width = 600;
},
{
layerId = "A9EA4EA3-63FD-46BE-AE35-8F493BD0E280";
shapes = (
{
closed = 1;
nodes = (
(170,15,ls),
(170,-2,o),
(162,-10,o),
(145,-10,cs),
(128,-10,o),
(120,-2,o),
(120,15,cs),
(120,715,ls),
(120,732,o),
(128,740,o),
(145,740,cs),
(162,740,o),
(170,732,o),
(170,715,cs)
);
},
{
closed = 1;
nodes = (
(160,179,l),
(160,260,l),
(438,546,ls),
(447,555,o),
(457,560,o),
(467,560,cs),
(488,560,o),
(503,536,o),
(487,519,cs)
);
},
{
closed = 1;
nodes = (
(314,355,l),
(510,23,ls),
(519,8,o),
(507,-10,o),
(489,-10,cs),
(478,-10,o),
(468,-4,o),
(462,7,cs),
(279,321,l)
);
}
);
width = 600;
}
);
unicode = 107;
},
{
glyphname = l;
layers = (
{
layerId = "E79C6012-54E0-4B47-AAB7-371DB4DAB7F2";
shapes = (
{
closed = 1;
nodes = (
(510,155,o),
(534,147,o),
(552,112,cs),
(574,71,o),
(564,37,o),
(526,19,cs),
(481,-1,o),
(434,-10,o),
(393,-10,cs),
(252,-10,o),
(200,95,o),
(200,264,cs),
(200,536,ls),
(200,576,o),
(180,596,o),
(140,596,cs),
(110,596,ls),
(65,596,o),
(43,618,o),
(43,663,cs),
(43,708,o),
(65,730,o),
(110,730,cs),
(230,730,ls),
(310,730,o),
(350,690,o),
(350,610,cs),
(350,280,ls),
(350,195,o),
(369,140,o),
(417,140,cs),
(423,140,o),
(441,141,o),
(463,145,cs)
);
}
);
width = 600;
},
{
layerId = "921C946B-68A7-49D6-9396-60D462B577B8";
shapes = (
{
closed = 1;
nodes = (
(505,95,o),
(522,88,o),
(532,64,cs),
(544,37,o),
(536,17,o),
(502,5,cs),
(472,-6,o),
(425,-10,o),
(400,-10,cs),
(268,-10,o),
(220,97,o),
(220,257,cs),
(220,608,ls),
(220,635,o),
(207,648,o),
(180,648,cs),
(106,648,ls),
(79,648,o),
(65,662,o),
(65,689,cs),
(65,716,o),
(79,730,o),
(106,730,cs),
(230,730,ls),
(284,730,o),
(310,704,o),
(310,650,cs),
(310,274,ls),
(310,178,o),
(331,80,o),
(414,80,cs),
(428,80,o),
(454,83,o),
(472,87,cs)
);
}
);
width = 600;
},
{
layerId = "A9EA4EA3-63FD-46BE-AE35-8F493BD0E280";
shapes = (
{
closed = 1;
nodes = (
(485,56,o),
(495,53,o),
(501,40,cs),
(508,26,o),
(504,15,o),
(484,6,cs),
(465,-2,o),
(429,-10,o),
(390,-10,cs),
(264,-10,o),
(230,74,o),
(230,252,cs),
(230,653,ls),
(230,673,o),
(220,683,o),
(200,683,cs),
(103,683,ls),
(87,683,o),
(80,691,o),
(80,707,cs),
(80,723,o),
(88,730,o),
(104,730,cs),
(220,730,ls),
(260,730,o),
(280,710,o),
(280,670,cs),
(280,270,ls),
(280,120,o),
(307,40,o),
(399,40,cs),
(419,40,o),
(448,44,o),
(466,50,cs)
);
}
);
width = 600;
}
);
unicode = 108;
},
{
glyphname = m;
layers = (
{
layerId = "E79C6012-54E0-4B47-AAB7-371DB4DAB7F2";
shapes = (
{
closed = 1;
nodes = (
(58,-10,o),
(33,10,o),
(33,54,cs),
(33,499,ls),
(33,541,o),
(63,560,o),
(100,560,cs),
(141,560,o),
(168,537,o),
(168,499,cs),
(168,480,l),
(178,529,o),
(209,560,o),
(255,560,cs),
(313,560,o),
(349,521,o),
(358,480,c),
(366,521,o),
(391,560,o),
(453,560,cs),
(520,560,o),
(564,515,o),
(564,440,cs),
(564,54,ls),
(564,10,o),
(540,-10,o),
(498,-10,cs),
(455,-10,o),
(429,11,o),
(429,55,cs),
(429,393,ls),
(429,417,o),
(419,436,o),
(398,436,cs),
(376,436,o),
(368,417,o),
(368,393,cs),
(368,49,ls),
(368,8,o),
(339,-10,o),
(300,-10,cs),
(261,-10,o),
(233,8,o),
(233,49,cs),
(233,393,ls),
(233,416,o),
(225,436,o),
(203,436,cs),
(181,436,o),
(168,416,o),
(168,393,cs),
(168,55,ls),
(168,11,o),
(144,-10,o),
(101,-10,cs)
);
}
);
width = 600;
},
{
layerId = "921C946B-68A7-49D6-9396-60D462B577B8";
shapes = (
{
closed = 1;
nodes = (
(76,0,o),
(55,13,o),
(55,42,cs),
(55,520,ls),
(55,545,o),
(75,560,o),
(100,560,cs),
(126,560,o),
(145,545,o),
(145,520,cs),
(145,485,l),
(159,531,o),
(180,560,o),
(234,560,cs),
(291,560,o),
(326,525,o),
(332,485,c),
(342,527,o),
(369,560,o),
(429,560,cs),
(511,560,o),
(545,497,o),
(545,418,cs),
(545,42,ls),
(545,13,o),
(525,0,o),
(498,0,cs),
(471,0,o),
(451,13,o),
(451,42,cs),
(451,409,ls),
(451,445,o),
(438,481,o),
(396,481,cs),
(355,481,o),
(342,446,o),
(342,410,cs),
(342,37,ls),
(342,11,o),
(324,0,o),
(300,0,cs),
(276,0,o),
(258,11,o),
(258,37,cs),
(258,409,ls),
(258,444,o),
(246,481,o),
(204,481,cs),
(162,481,o),
(149,447,o),
(149,410,cs),
(149,42,ls),
(149,13,o),
(130,0,o),
(103,0,cs)
);
}
);
width = 600;
},
{
layerId = "A9EA4EA3-63FD-46BE-AE35-8F493BD0E280";
shapes = (
{
closed = 1;
nodes = (
(84,-10,o),
(75,-1,o),
(75,15,cs),
(75,538,ls),
(75,553,o),
(86,560,o),
(100,560,cs),
(116,560,o),
(125,553,o),
(125,538,cs),
(125,490,l),
(141,531,o),
(173,560,o),
(218,560,cs),
(271,560,o),
(303,534,o),
(318,490,c),
(339,534,o),
(360,560,o),
(415,560,cs),
(491,560,o),
(525,499,o),
(525,431,cs),
(525,14,ls),
(525,-2,o),
(517,-10,o),
(501,-10,cs),
(485,-10,o),
(476,-2,o),
(476,14,cs),
(476,420,ls),
(476,468,o),
(455,513,o),
(401,513,cs),
(347,513,o),
(324,468,o),
(324,420,cs),
(324,14,ls),
(324,-2,o),
(316,-10,o),
(300,-10,cs),
(284,-10,o),
(275,-2,o),
(275,14,cs),
(275,420,ls),
(275,468,o),
(254,513,o),
(200,513,cs),
(146,513,o),
(124,468,o),
(124,420,cs),
(124,14,ls),
(124,-2,o),
(116,-10,o),
(100,-10,cs)
);
}
);
width = 600;
}
);
unicode = 109;
},
{
glyphname = n;
layers = (
{
layerId = "E79C6012-54E0-4B47-AAB7-371DB4DAB7F2";
shapes = (
{
closed = 1;
nodes = (
(212,65,ls),
(212,15,o),
(187,-10,o),
(137,-10,cs),
(87,-10,o),
(62,15,o),
(62,65,cs),
(62,487,ls),
(62,536,o),
(86,560,o),
(131,560,cs),
(176,560,o),
(207,536,o),
(207,487,cs),
(207,450,l),
(228,520,o),
(275,560,o),
(339,560,cs),
(467,560,o),
(538,469,o),
(538,355,cs),
(538,65,ls),
(538,15,o),
(513,-10,o),
(463,-10,cs),
(413,-10,o),
(388,15,o),
(388,65,cs),
(388,325,ls),
(388,371,o),
(368,420,o),
(313,420,cs),
(251,420,o),
(212,373,o),
(212,315,cs)
);
}
);
width = 600;
},
{
layerId = "921C946B-68A7-49D6-9396-60D462B577B8";
shapes = (
{
closed = 1;
nodes = (
(185,35,ls),
(185,5,o),
(170,-10,o),
(140,-10,cs),
(110,-10,o),
(95,5,o),
(95,35,cs),
(95,515,ls),
(95,545,o),
(110,560,o),
(140,560,cs),
(170,560,o),
(185,545,o),
(185,515,cs),
(185,456,l),
(204,519,o),
(249,560,o),
(322,560,cs),
(428,560,o),
(505,484,o),
(505,370,cs),
(505,35,ls),
(505,5,o),
(490,-10,o),
(460,-10,cs),
(430,-10,o),
(415,5,o),
(415,35,cs),
(415,344,ls),
(415,413,o),
(378,475,o),
(307,475,cs),
(235,475,o),
(185,380,o),
(185,316,cs)
);
}
);
width = 600;
},
{
layerId = "A9EA4EA3-63FD-46BE-AE35-8F493BD0E280";
shapes = (
{
closed = 1;
nodes = (
(165,15,ls),
(165,-2,o),
(157,-10,o),
(140,-10,cs),
(123,-10,o),
(115,-2,o),
(115,15,cs),
(115,535,ls),
(115,552,o),
(123,560,o),
(140,560,cs),
(157,560,o),
(165,552,o),
(165,535,cs),
(165,449,l),
(192,521,o),
(242,560,o),
(315,560,cs),
(423,560,o),
(485,476,o),
(485,367,cs),
(485,15,ls),
(485,-2,o),
(477,-10,o),
(460,-10,cs),
(443,-10,o),
(435,-2,o),
(435,15,cs),
(435,355,ls),
(435,438,o),
(391,512,o),
(308,512,cs),
(234,512,o),
(165,425,o),
(165,355,cs)
);
}
);
width = 600;
}
);
unicode = 110;
},
{
glyphname = o;
layers = (
{
layerId = "E79C6012-54E0-4B47-AAB7-371DB4DAB7F2";
shapes = (
{
closed = 1;
nodes = (
(135,-10,o),
(55,123,o),
(55,275,cs),
(55,427,o),
(135,560,o),
(300,560,cs),
(465,560,o),
(545,429,o),
(545,275,cs),
(545,123,o),
(465,-10,o),
(300,-10,cs)
);
},
{
closed = 1;
nodes = (
(365,115,o),
(395,190,o),
(395,275,cs),
(395,362,o),
(365,435,o),
(300,435,cs),
(235,435,o),
(205,360,o),
(205,275,cs),
(205,190,o),
(235,115,o),
(300,115,cs)
);
}
);
width = 600;
},
{
layerId = "921C946B-68A7-49D6-9396-60D462B577B8";
shapes = (
{
closed = 1;
nodes = (
(146,-10,o),
(75,110,o),
(75,276,cs),
(75,440,o),
(144,560,o),
(300,560,cs),
(457,560,o),
(525,440,o),
(525,276,cs),
(525,110,o),
(455,-10,o),
(300,-10,cs)
);
},
{
closed = 1;
nodes = (
(394,80,o),
(435,160,o),
(435,276,cs),
(435,390,o),
(395,470,o),
(300,470,cs),
(205,470,o),
(165,390,o),
(165,275,cs),
(165,160,o),
(206,80,o),
(300,80,cs)
);
}
);
width = 600;
},
{
layerId = "A9EA4EA3-63FD-46BE-AE35-8F493BD0E280";
shapes = (
{
closed = 1;
nodes = (
(166,-10,o),
(90,100,o),
(90,275,cs),
(90,450,o),
(166,560,o),
(302,560,cs),
(438,560,o),
(510,450,o),
(510,278,cs),
(510,100,o),
(433,-10,o),
(300,-10,cs)
);
},
{
closed = 1;
nodes = (
(401,40,o),
(460,130,o),
(460,278,cs),
(460,420,o),
(406,510,o),
(302,510,cs),
(199,510,o),
(140,420,o),
(140,275,cs),
(140,130,o),
(198,40,o),
(300,40,cs)
);
}
);
width = 600;
}
);
unicode = 111;
},
{
glyphname = oe;
layers = (
{
layerId = "E79C6012-54E0-4B47-AAB7-371DB4DAB7F2";
shapes = (
{
closed = 1;
nodes = (
(565,350,ls),
(565,283,o),
(532,250,o),
(465,250,cs),
(382,250,ls),
(365,250,o),
(357,242,o),
(357,225,cs),
(357,140,ls),
(357,115,o),
(382,87,o),
(404,87,qs),
(426,87,o),
(438,101,qs),
(439,102,o),
(440,103,qs),
(460,130,o),
(473,140,o),
(488,140,cs),
(544,140,o),
(570,108,o),
(549,65,cs),
(540,47,o),
(525,32,qs),
(485,-10,o),
(420,-10,qs),
(382,-10,o),
(332,14,o),
(307,49,o),
(300,65,q),
(293,49,o),
(266,14,o),
(217,-10,o),
(180,-10,qs),
(115,-10,o),
(42,73,o),
(35,140,qs),
(25,229,o),
(25,321,o),
(35,410,cs),
(43,478,o),
(115,560,o),
(180,560,qs),
(217,560,o),
(266,536,o),
(293,501,o),
(300,485,q),
(307,501,o),
(332,536,o),
(382,560,o),
(420,560,qs),
(485,560,o),
(565,478,o),
(565,410,qs)
);
},
{
closed = 1;
nodes = (
(219,87,o),
(240,115,o),
(243,140,qs),
(253,229,o),
(253,321,o),
(243,410,cs),
(240,436,o),
(219,463,o),
(197,463,qs),
(175,463,o),
(153,435,o),
(150,410,qs),
(140,321,o),
(140,229,o),
(150,140,cs),
(153,115,o),
(175,87,o),
(197,87,qs)
);
},
{
closed = 1;
nodes = (
(357,355,ls),
(357,338,o),
(365,330,o),
(382,330,cs),
(400,330,ls),
(434,330,o),
(450,346,o),
(450,380,cs),
(450,410,ls),
(450,436,o),
(426,463,o),
(404,463,qs),
(382,463,o),
(357,435,o),
(357,410,qs)
);
}
);
width = 600;
},
{
layerId = "921C946B-68A7-49D6-9396-60D462B577B8";
shapes = (
{
closed = 1;
nodes = (
(565,330,ls),
(565,276,o),
(539,250,o),
(485,250,cs),
(363,250,ls),
(350,250,o),
(343,243,o),
(343,230,cs),
(343,150,ls),
(343,112,o),
(379,67,o),
(410,67,qs),
(437,67,o),
(455,83,qs),
(463,89,o),
(468,98,qs),
(480,118,o),
(489,125,o),
(505,125,cs),
(545,125,o),
(562,104,o),
(546,71,cs),
(534,46,o),
(514,27,qs),
(476,-10,o),
(420,-10,qs),
(380,-10,o),
(329,16,o),
(304,53,o),
(300,70,q),
(297,53,o),
(271,16,o),
(220,-10,o),
(180,-10,qs),
(113,-10,o),
(44,78,o),
(35,150,qs),
(25,233,o),
(25,318,o),
(35,400,cs),
(44,473,o),
(113,560,o),
(180,560,qs),
(220,560,o),
(271,534,o),
(297,497,o),
(300,480,q),
(304,497,o),
(329,534,o),
(380,560,o),
(420,560,qs),
(487,560,o),
(565,474,o),
(565,400,qs)
);
},
{
closed = 1;
nodes = (
(221,67,o),
(247,112,o),
(252,150,qs),
(262,233,o),
(262,318,o),
(252,400,cs),
(247,438,o),
(221,483,o),
(190,483,qs),
(158,483,o),
(125,438,o),
(120,400,qs),
(110,318,o),
(110,233,o),
(120,150,cs),
(125,112,o),
(158,67,o),
(190,67,qs)
);
},
{
closed = 1;
nodes = (
(343,343,ls),
(343,330,o),
(350,323,o),
(363,323,cs),
(440,323,ls),
(467,323,o),
(480,336,o),
(480,363,cs),
(480,400,ls),
(480,438,o),
(442,483,o),
(410,483,qs),
(379,483,o),
(343,438,o),
(343,400,qs)
);
}
);
width = 600;
},
{
layerId = "A9EA4EA3-63FD-46BE-AE35-8F493BD0E280";
shapes = (
{
closed = 1;
nodes = (
(565,320,ls),
(565,280,o),
(545,260,o),
(505,260,cs),
(342,260,ls),
(332,260,o),
(327,255,o),
(327,245,cs),
(327,140,ls),
(327,93,o),
(380,34,o),
(423,34,qs),
(465,35,o),
(491,60,qs),
(509,78,o),
(516,101,qs),
(522,118,o),
(530,125,o),
(546,125,cs),
(563,125,o),
(570,116,o),
(567,100,cs),
(558,56,o),
(527,27,qs),
(488,-10,o),
(426,-10,qs),
(388,-10,o),
(336,17,o),
(308,57,o),
(303,75,q),
(298,57,o),
(268,17,o),
(215,-10,o),
(174,-10,qs),
(110,-10,o),
(43,71,o),
(35,139,qs),
(25,228,o),
(25,319,o),
(35,408,cs),
(43,477,o),
(114,560,o),
(180,560,qs),
(219,560,o),
(270,532,o),
(299,493,o),
(303,474,q),
(309,493,o),
(338,532,o),
(388,560,o),
(423,560,qs),
(488,560,o),
(565,478,o),
(565,410,qs)
);
},
{
closed = 1;
nodes = (
(226,34,o),
(268,93,o),
(273,140,qs),
(283,229,o),
(283,321,o),
(273,410,cs),
(268,457,o),
(226,516,o),
(183,516,qs),
(140,516,o),
(91,457,o),
(86,408,qs),
(76,319,o),
(76,228,o),
(86,139,cs),
(91,92,o),
(140,34,o),
(183,34,qs)
);
},
{
closed = 1;
nodes = (
(327,325,ls),
(327,315,o),
(332,310,o),
(342,310,cs),
(485,310,ls),
(505,310,o),
(515,320,o),
(515,340,cs),
(515,410,ls),
(515,457,o),
(463,516,o),
(420,516,qs),
(378,516,o),
(327,457,o),
(327,410,qs)
);
}
);
width = 600;
}
);
unicode = 339;
},
{
glyphname = p;
layers = (
{
layerId = "E79C6012-54E0-4B47-AAB7-371DB4DAB7F2";
shapes = (
{
closed = 1;
nodes = (
(183,560,o),
(205,536,o),
(205,487,cs),
(205,451,l),
(220,513,o),
(273,560,o),
(355,560,cs),
(515,560,o),
(555,402,o),
(555,276,cs),
(555,144,o),
(512,-10,o),
(337,-10,cs),
(273,-10,o),
(230,27,o),
(210,91,c),
(210,-115,ls),
(210,-165,o),
(185,-190,o),
(135,-190,cs),
(85,-190,o),
(60,-165,o),
(60,-115,cs),
(60,487,ls),
(60,536,o),
(83,560,o),
(133,560,cs)
);
},
{
closed = 1;
nodes = (
(257,410,o),
(210,369,o),
(210,315,cs),
(210,235,ls),
(210,177,o),
(249,130,o),
(311,130,cs),
(392,130,o),
(405,209,o),
(405,277,cs),
(405,343,o),
(393,410,o),
(317,410,cs)
);
}
);
width = 600;
},
{
layerId = "921C946B-68A7-49D6-9396-60D462B577B8";
shapes = (
{
closed = 1;
nodes = (
(165,560,o),
(180,545,o),
(180,514,cs),
(180,450,l),
(205,529,o),
(257,560,o),
(327,560,cs),
(486,560,o),
(520,398,o),
(520,274,cs),
(520,150,o),
(486,-10,o),
(317,-10,cs),
(244,-10,o),
(199,31,o),
(180,94,c),
(180,-145,ls),
(180,-175,o),
(165,-190,o),
(135,-190,cs),
(105,-190,o),
(90,-175,o),
(90,-145,cs),
(90,514,ls),
(90,545,o),
(105,560,o),
(135,560,cs)
);
},
{
closed = 1;
nodes = (
(245,475,o),
(180,407,o),
(180,344,cs),
(180,234,ls),
(180,170,o),
(230,75,o),
(302,75,cs),
(416,75,o),
(430,186,o),
(430,268,cs),
(430,353,o),
(415,475,o),
(318,475,cs)
);
}
);
width = 600;
},
{
layerId = "A9EA4EA3-63FD-46BE-AE35-8F493BD0E280";
shapes = (
{
closed = 1;
nodes = (
(152,560,o),
(160,552,o),
(160,535,cs),
(160,462,l),
(166,503,o),
(205,560,o),
(313,560,cs),
(461,560,o),
(505,395,o),
(505,275,cs),
(505,156,o),
(461,-10,o),
(310,-10,cs),
(237,-10,o),
(187,29,o),
(160,101,c),
(160,-165,ls),
(160,-182,o),
(152,-190,o),
(135,-190,cs),
(118,-190,o),
(110,-182,o),
(110,-165,cs),
(110,535,ls),
(110,552,o),
(118,560,o),
(135,560,cs)
);
},
{
closed = 1;
nodes = (
(224,512,o),
(160,431,o),
(160,356,cs),
(160,195,ls),
(160,125,o),
(229,38,o),
(303,38,cs),
(428,38,o),
(455,177,o),
(455,275,cs),
(455,373,o),
(428,512,o),
(312,512,cs)
);
}
);
width = 600;
}
);
unicode = 112;
},
{
glyphname = q;
layers = (
{
layerId = "E79C6012-54E0-4B47-AAB7-371DB4DAB7F2";
shapes = (
{
closed = 1;
nodes = (
(517,560,o),
(540,536,o),
(540,487,cs),
(540,-115,ls),
(540,-165,o),
(515,-190,o),
(465,-190,cs),
(415,-190,o),
(390,-165,o),
(390,-115,cs),
(390,91,l),
(370,27,o),
(327,-10,o),
(263,-10,cs),
(88,-10,o),
(45,144,o),
(45,276,cs),
(45,402,o),
(85,560,o),
(245,560,cs),
(327,560,o),
(380,513,o),
(395,451,c),
(395,487,ls),
(395,536,o),
(417,560,o),
(467,560,cs)
);
},
{
closed = 1;
nodes = (
(207,410,o),
(195,343,o),
(195,277,cs),
(195,209,o),
(208,130,o),
(289,130,cs),
(351,130,o),
(390,177,o),
(390,235,cs),
(390,315,ls),
(390,369,o),
(343,410,o),
(283,410,cs)
);
}
);
width = 600;
},
{
layerId = "921C946B-68A7-49D6-9396-60D462B577B8";
shapes = (
{
closed = 1;
nodes = (
(495,560,o),
(510,545,o),
(510,514,cs),
(510,-145,ls),
(510,-175,o),
(495,-190,o),
(465,-190,cs),
(435,-190,o),
(420,-175,o),
(420,-145,cs),
(420,94,l),
(401,31,o),
(356,-10,o),
(283,-10,cs),
(114,-10,o),
(80,150,o),
(80,274,cs),
(80,398,o),
(114,560,o),
(273,560,cs),
(343,560,o),
(395,529,o),
(420,450,c),
(420,514,ls),
(420,545,o),
(435,560,o),
(465,560,cs)
);
},
{
closed = 1;
nodes = (
(185,475,o),
(170,353,o),
(170,268,cs),
(170,186,o),
(184,75,o),
(298,75,cs),
(370,75,o),
(420,170,o),
(420,234,cs),
(420,344,ls),
(420,407,o),
(355,475,o),
(282,475,cs)
);
}
);
width = 600;
},
{
layerId = "A9EA4EA3-63FD-46BE-AE35-8F493BD0E280";
shapes = (
{
closed = 1;
nodes = (
(482,560,o),
(490,552,o),
(490,535,cs),
(490,-165,ls),
(490,-182,o),
(482,-190,o),
(465,-190,cs),
(448,-190,o),
(440,-182,o),
(440,-165,cs),
(440,101,l),
(413,29,o),
(363,-10,o),
(290,-10,cs),
(139,-10,o),
(95,156,o),
(95,275,cs),
(95,395,o),
(139,560,o),
(287,560,cs),
(395,560,o),
(434,503,o),
(440,462,c),
(440,535,ls),
(440,552,o),
(448,560,o),
(465,560,cs)
);
},
{
closed = 1;
nodes = (
(172,512,o),
(145,373,o),
(145,275,cs),
(145,177,o),
(172,38,o),
(297,38,cs),
(371,38,o),
(440,125,o),
(440,195,cs),
(440,356,ls),
(440,431,o),
(376,512,o),
(288,512,cs)
);
}
);
width = 600;
}
);
unicode = 113;
},
{
glyphname = r;
layers = (
{
anchors = (
{
name = bottom;
position = "{145, 0}";
},
{
name = top;
position = "{320, 550}";
}
);
layerId = "E79C6012-54E0-4B47-AAB7-371DB4DAB7F2";
shapes = (
{
closed = 1;
nodes = (
(111,-10,o),
(86,15,o),
(86,65,cs),
(86,487,ls),
(86,536,o),
(110,560,o),
(159,560,cs),
(208,560,o),
(231,536,o),
(231,487,cs),
(231,450,l),
(258,520,o),
(313,560,o),
(402,560,cs),
(516,560,o),
(562,481,o),
(562,360,cs),
(562,350,ls),
(562,300,o),
(537,275,o),
(487,275,cs),
(437,275,o),
(412,300,o),
(412,350,cs),
(412,352,ls),
(412,394,o),
(405,430,o),
(357,430,cs),
(303,430,o),
(236,387,o),
(236,328,cs),
(236,65,ls),
(236,15,o),
(211,-10,o),
(161,-10,cs)
);
}
);
width = 600;
},
{
anchors = (
{
name = bottom;
position = "{145, 0}";
},
{
name = top;
position = "{320, 550}";
}
);
layerId = "921C946B-68A7-49D6-9396-60D462B577B8";
shapes = (
{
closed = 1;
nodes = (
(127,-10,o),
(112,5,o),
(112,35,cs),
(112,515,ls),
(112,545,o),
(127,560,o),
(157,560,cs),
(187,560,o),
(202,545,o),
(202,515,cs),
(202,456,l),
(224,519,o),
(276,560,o),
(374,560,cs),
(495,560,o),
(530,468,o),
(530,362,cs),
(530,350,ls),
(530,320,o),
(515,305,o),
(485,305,cs),
(455,305,o),
(440,320,o),
(440,350,cs),
(440,362,ls),
(440,423,o),
(429,482,o),
(353,482,cs),
(284,482,o),
(202,432,o),
(202,350,cs),
(202,35,ls),
(202,5,o),
(187,-10,o),
(157,-10,cs)
);
}
);
width = 600;
},
{
anchors = (
{
name = bottom;
position = "{135, 0}";
},
{
name = top;
position = "{320, 550}";
}
);
layerId = "A9EA4EA3-63FD-46BE-AE35-8F493BD0E280";
shapes = (
{
closed = 1;
nodes = (
(140,-10,o),
(132,-2,o),
(132,15,cs),
(132,535,ls),
(132,552,o),
(140,560,o),
(157,560,cs),
(174,560,o),
(182,552,o),
(182,535,cs),
(182,449,l),
(208,521,o),
(275,560,o),
(368,560,cs),
(479,560,o),
(508,469,o),
(508,365,cs),
(508,355,ls),
(508,338,o),
(500,330,o),
(483,330,cs),
(466,330,o),
(458,338,o),
(458,355,cs),
(458,365,ls),
(458,443,o),
(445,517,o),
(354,517,cs),
(275,517,o),
(182,450,o),
(182,360,cs),
(182,15,ls),
(182,-2,o),
(174,-10,o),
(157,-10,cs)
);
}
);
width = 600;
}
);
unicode = 114;
},
{
glyphname = s;
layers = (
{
layerId = "E79C6012-54E0-4B47-AAB7-371DB4DAB7F2";
shapes = (
{
closed = 1;
nodes = (
(209,-10,o),
(148,7,o),
(97,61,cs),
(79,80,o),
(69,98,o),
(69,125,cs),
(69,165,o),
(91,191,o),
(125,191,cs),
(137,191,o),
(154,188,o),
(167,177,cs),
(206,143,o),
(252,120,o),
(300,120,cs),
(349,120,o),
(396,124,o),
(396,155,cs),
(396,169,o),
(386,182,o),
(363,190,cs),
(187,252,ls),
(122,275,o),
(80,315,o),
(80,398,cs),
(80,520,o),
(164,560,o),
(300,560,cs),
(381,560,o),
(458,536,o),
(496,493,cs),
(506,482,o),
(516,467,o),
(516,439,cs),
(516,397,o),
(493,374,o),
(458,374,cs),
(440,374,o),
(421,380,o),
(408,393,cs),
(391,410,o),
(353,430,o),
(300,430,cs),
(254,430,o),
(230,415,o),
(230,391,cs),
(230,375,o),
(239,371,o),
(257,364,cs),
(408,307,ls),
(488,277,o),
(540,251,o),
(540,157,cs),
(540,21,o),
(423,-10,o),
(300,-10,cs)
);
}
);
width = 600;
},
{
layerId = "921C946B-68A7-49D6-9396-60D462B577B8";
shapes = (
{
closed = 1;
nodes = (
(220,-10,o),
(154,10,o),
(101,71,cs),
(88,86,o),
(81,106,o),
(81,124,cs),
(81,153,o),
(100,162,o),
(119,162,cs),
(133,162,o),
(144,157,o),
(159,144,cs),
(205,102,o),
(235,80,o),
(300,80,cs),
(346,80,o),
(430,88,o),
(430,150,cs),
(430,190,o),
(401,209,o),
(362,222,cs),
(213,270,ls),
(158,288,o),
(102,321,o),
(102,406,cs),
(102,517,o),
(198,560,o),
(300,560,cs),
(386,560,o),
(463,530,o),
(497,475,cs),
(506,460,o),
(509,448,o),
(509,439,cs),
(509,418,o),
(495,399,o),
(469,399,cs),
(457,399,o),
(439,403,o),
(425,417,cs),
(393,449,o),
(361,470,o),
(300,470,cs),
(241,470,o),
(192,451,o),
(192,407,cs),
(192,382,o),
(208,363,o),
(233,354,cs),
(382,303,ls),
(456,278,o),
(520,242,o),
(520,149,cs),
(520,31,o),
(417,-10,o),
(301,-10,cs)
);
}
);
width = 600;
},
{
layerId = "A9EA4EA3-63FD-46BE-AE35-8F493BD0E280";
shapes = (
{
closed = 1;
nodes = (
(236,-10,o),
(162,0,o),
(120,55,cs),
(108,70,o),
(94,95,o),
(94,112,cs),
(94,125,o),
(102,135,o),
(118,135,cs),
(129,135,o),
(140,131,o),
(147,119,cs),
(179,65,o),
(228,40,o),
(300,40,cs),
(372,40,o),
(459,65,o),
(459,148,cs),
(459,195,o),
(430,230,o),
(386,241,cs),
(228,280,ls),
(164,296,o),
(110,330,o),
(110,413,cs),
(110,518,o),
(199,560,o),
(300,560,cs),
(390,560,o),
(453,528,o),
(488,472,cs),
(495,461,o),
(498,453,o),
(498,445,cs),
(498,431,o),
(488,425,o),
(475,425,cs),
(465,425,o),
(457,428,o),
(451,437,cs),
(413,494,o),
(359,510,o),
(300,510,cs),
(222,510,o),
(161,482,o),
(161,414,cs),
(161,363,o),
(195,337,o),
(243,325,cs),
(402,285,ls),
(463,270,o),
(510,227,o),
(510,152,cs),
(510,39,o),
(405,-10,o),
(300,-10,cs)
);
}
);
width = 600;
}
);
unicode = 115;
},
{
glyphname = germandbls;
layers = (
{
layerId = "E79C6012-54E0-4B47-AAB7-371DB4DAB7F2";
shapes = (
{
closed = 1;
nodes = (
(210,75,ls),
(210,25,o),
(185,0,o),
(135,0,cs),
(85,0,o),
(60,25,o),
(60,75,cs),
(60,512,ls),
(60,647,o),
(159,740,o),
(304,740,cs),
(445,740,o),
(544,659,o),
(544,541,cs),
(544,462,o),
(497,398,o),
(429,386,c),
(509,368,o),
(564,295,o),
(564,207,cs),
(564,84,o),
(471,0,o),
(337,0,cs),
(336,0,ls),
(292,0,o),
(271,21,o),
(271,65,cs),
(271,109,o),
(292,130,o),
(336,130,cs),
(339,130,ls),
(370,130,o),
(412,170,o),
(412,228,cs),
(412,286,o),
(377,325,o),
(330,325,cs),
(326,325,ls),
(289,325,o),
(271,343,o),
(271,380,cs),
(271,417,o),
(289,435,o),
(326,435,cs),
(330,435,ls),
(374,435,o),
(396,472,o),
(396,525,cs),
(396,578,o),
(357,615,o),
(303,615,cs),
(247,615,o),
(210,573,o),
(210,512,cs)
);
}
);
width = 600;
},
{
layerId = "921C946B-68A7-49D6-9396-60D462B577B8";
shapes = (
{
closed = 1;
nodes = (
(182,45,ls),
(182,15,o),
(167,0,o),
(137,0,cs),
(107,0,o),
(92,15,o),
(92,45,cs),
(92,534,ls),
(92,656,o),
(178,740,o),
(303,740,cs),
(428,740,o),
(513,665,o),
(513,556,cs),
(513,477,o),
(465,408,o),
(396,391,c),
(479,376,o),
(536,300,o),
(536,204,cs),
(536,83,o),
(446,0,o),
(315,0,cs),
(298,0,ls),
(271,0,o),
(257,14,o),
(257,41,cs),
(257,68,o),
(271,82,o),
(298,82,cs),
(305,82,ls),
(387,82,o),
(444,135,o),
(444,212,cs),
(444,289,o),
(391,342,o),
(314,342,cs),
(297,342,ls),
(270,342,o),
(257,355,o),
(257,382,cs),
(257,409,o),
(270,422,o),
(297,422,cs),
(303,422,ls),
(374,422,o),
(423,470,o),
(423,541,cs),
(423,612,o),
(374,660,o),
(303,660,cs),
(231,660,o),
(182,609,o),
(182,534,cs)
);
}
);
width = 600;
},
{
layerId = "A9EA4EA3-63FD-46BE-AE35-8F493BD0E280";
shapes = (
{
closed = 1;
nodes = (
(160,25,ls),
(160,8,o),
(152,0,o),
(135,0,cs),
(118,0,o),
(110,8,o),
(110,25,cs),
(110,543,ls),
(110,660,o),
(190,740,o),
(307,740,cs),
(423,740,o),
(502,663,o),
(502,550,cs),
(502,468,o),
(453,398,o),
(382,383,c),
(465,367,o),
(522,292,o),
(522,198,cs),
(522,81,o),
(434,0,o),
(307,0,cs),
(288,0,ls),
(273,0,o),
(265,8,o),
(265,23,cs),
(265,38,o),
(273,45,o),
(288,45,cs),
(307,45,ls),
(404,45,o),
(470,109,o),
(470,202,cs),
(470,295,o),
(404,359,o),
(307,359,cs),
(288,359,ls),
(273,359,o),
(265,367,o),
(265,382,cs),
(265,397,o),
(273,404,o),
(288,404,cs),
(307,404,ls),
(393,404,o),
(452,463,o),
(452,550,cs),
(452,636,o),
(393,695,o),
(307,695,cs),
(220,695,o),
(160,633,o),
(160,543,cs)
);
}
);
width = 600;
}
);
unicode = 223;
},
{
glyphname = longs;
layers = (
{
layerId = "E79C6012-54E0-4B47-AAB7-371DB4DAB7F2";
shapes = (
{
closed = 1;
nodes = (
(285,65,ls),
(285,15,o),
(260,-10,o),
(210,-10,cs),
(160,-10,o),
(135,15,o),
(135,65,cs),
(135,525,ls),
(135,650,o),
(219,730,o),
(350,730,cs),
(470,730,ls),
(514,730,o),
(535,709,o),
(535,665,cs),
(535,621,o),
(514,600,o),
(470,600,cs),
(360,600,ls),
(315,600,o),
(285,570,o),
(285,525,cs)
);
}
);
width = 600;
},
{
layerId = "921C946B-68A7-49D6-9396-60D462B577B8";
shapes = (
{
closed = 1;
nodes = (
(255,35,ls),
(255,5,o),
(240,-10,o),
(210,-10,cs),
(180,-10,o),
(165,5,o),
(165,35,cs),
(165,571,ls),
(165,666,o),
(233,730,o),
(334,730,cs),
(470,730,ls),
(497,730,o),
(510,717,o),
(510,690,cs),
(510,663,o),
(497,650,o),
(470,650,cs),
(334,650,ls),
(287,650,o),
(255,618,o),
(255,570,cs)
);
}
);
width = 600;
},
{
layerId = "A9EA4EA3-63FD-46BE-AE35-8F493BD0E280";
shapes = (
{
closed = 1;
nodes = (
(230,15,ls),
(230,-2,o),
(222,-10,o),
(205,-10,cs),
(188,-10,o),
(180,-2,o),
(180,15,cs),
(180,595,ls),
(180,678,o),
(233,730,o),
(316,730,cs),
(472,730,ls),
(487,730,o),
(495,723,o),
(495,708,cs),
(495,693,o),
(488,685,o),
(473,685,cs),
(315,685,ls),
(265,685,o),
(230,648,o),
(230,595,cs)
);
}
);
width = 600;
}
);
unicode = 383;
},
{
glyphname = t;
layers = (
{
layerId = "E79C6012-54E0-4B47-AAB7-371DB4DAB7F2";
shapes = (
{
closed = 1;
nodes = (
(472,530,ls),
(517,530,o),
(540,508,o),
(540,463,cs),
(540,418,o),
(517,395,o),
(472,395,cs),
(93,395,ls),
(49,395,o),
(27,417,o),
(27,461,cs),
(27,507,o),
(50,530,o),
(96,530,cs)
);
},
{
closed = 1;
nodes = (
(175,630,ls),
(175,680,o),
(200,705,o),
(250,705,cs),
(300,705,o),
(325,680,o),
(325,630,cs),
(325,230,ls),
(325,168,o),
(350,132,o),
(400,132,cs),
(417,132,o),
(436,136,o),
(450,142,cs),
(454,144,o),
(464,148,o),
(478,148,cs),
(516,148,o),
(544,120,o),
(544,80,cs),
(544,1,o),
(429,-10,o),
(376,-10,cs),
(233,-10,o),
(175,69,o),
(175,214,cs)
);
}
);
width = 600;
},
{
layerId = "921C946B-68A7-49D6-9396-60D462B577B8";
shapes = (
{
closed = 1;
nodes = (
(479,530,ls),
(506,530,o),
(520,512,o),
(520,485,cs),
(520,458,o),
(506,440,o),
(479,440,cs),
(88,440,ls),
(61,440,o),
(47,458,o),
(47,485,cs),
(47,512,o),
(61,530,o),
(88,530,cs)
);
},
{
closed = 1;
nodes = (
(205,660,ls),
(205,690,o),
(220,705,o),
(250,705,cs),
(280,705,o),
(295,690,o),
(295,660,cs),
(295,224,ls),
(295,148,o),
(311,80,o),
(395,80,cs),
(418,80,o),
(440,85,o),
(455,91,cs),
(468,97,o),
(481,99,o),
(489,99,cs),
(514,99,o),
(531,81,o),
(531,57,cs),
(531,-2,o),
(426,-10,o),
(382,-10,cs),
(246,-10,o),
(205,67,o),
(205,207,cs)
);
}
);
width = 600;
},
{
layerId = "A9EA4EA3-63FD-46BE-AE35-8F493BD0E280";
shapes = (
{
closed = 1;
nodes = (
(482,530,ls),
(497,530,o),
(505,520,o),
(505,505,cs),
(505,490,o),
(497,480,o),
(482,480,cs),
(85,480,ls),
(70,480,o),
(62,490,o),
(62,505,cs),
(62,520,o),
(70,530,o),
(85,530,cs)
);
},
{
closed = 1;
nodes = (
(225,680,ls),
(225,697,o),
(233,705,o),
(250,705,cs),
(267,705,o),
(275,697,o),
(275,680,cs),
(275,220,ls),
(275,110,o),
(299,45,o),
(400,45,cs),
(441,45,o),
(468,56,o),
(479,61,cs),
(488,65,o),
(492,66,o),
(496,66,cs),
(510,66,o),
(520,55,o),
(520,40,cs),
(520,-5,o),
(432,-10,o),
(384,-10,cs),
(301,-10,o),
(225,34,o),
(225,202,cs)
);
}
);
width = 600;
}
);
unicode = 116;
},
{
glyphname = u;
layers = (
{
layerId = "E79C6012-54E0-4B47-AAB7-371DB4DAB7F2";
shapes = (
{
closed = 1;
nodes = (
(388,235,ls),
(388,177,o),
(349,130,o),
(287,130,cs),
(232,130,o),
(212,179,o),
(212,225,cs),
(212,485,ls),
(212,535,o),
(187,560,o),
(137,560,cs),
(87,560,o),
(62,535,o),
(62,485,cs),
(62,195,ls),
(62,81,o),
(133,-10,o),
(261,-10,cs),
(325,-10,o),
(372,30,o),
(393,100,c),
(393,63,ls),
(393,14,o),
(424,-10,o),
(469,-10,cs),
(514,-10,o),
(538,14,o),
(538,63,cs),
(538,485,ls),
(538,535,o),
(513,560,o),
(463,560,cs),
(413,560,o),
(388,535,o),
(388,485,cs)
);
}
);
width = 600;
},
{
layerId = "921C946B-68A7-49D6-9396-60D462B577B8";
shapes = (
{
closed = 1;
nodes = (
(415,234,ls),
(415,170,o),
(365,75,o),
(293,75,cs),
(222,75,o),
(185,137,o),
(185,206,cs),
(185,515,ls),
(185,545,o),
(170,560,o),
(140,560,cs),
(110,560,o),
(95,545,o),
(95,515,cs),
(95,180,ls),
(95,66,o),
(172,-10,o),
(278,-10,cs),
(351,-10,o),
(396,31,o),
(415,94,c),
(415,35,ls),
(415,5,o),
(430,-10,o),
(460,-10,cs),
(490,-10,o),
(505,5,o),
(505,35,cs),
(505,515,ls),
(505,545,o),
(490,560,o),
(460,560,cs),
(430,560,o),
(415,545,o),
(415,515,cs)
);
}
);
width = 600;
},
{
layerId = "A9EA4EA3-63FD-46BE-AE35-8F493BD0E280";
shapes = (
{
closed = 1;
nodes = (
(435,195,ls),
(435,125,o),
(366,38,o),
(292,38,cs),
(209,38,o),
(165,112,o),
(165,195,cs),
(165,535,ls),
(165,552,o),
(157,560,o),
(140,560,cs),
(123,560,o),
(115,552,o),
(115,535,cs),
(115,183,ls),
(115,74,o),
(177,-10,o),
(285,-10,cs),
(358,-10,o),
(408,29,o),
(435,101,c),
(435,15,ls),
(435,-2,o),
(443,-10,o),
(460,-10,cs),
(477,-10,o),
(485,-2,o),
(485,15,cs),
(485,535,ls),
(485,552,o),
(477,560,o),
(460,560,cs),
(443,560,o),
(435,552,o),
(435,535,cs)
);
}
);
width = 600;
}
);
unicode = 117;
},
{
glyphname = v;
layers = (
{
layerId = "E79C6012-54E0-4B47-AAB7-371DB4DAB7F2";
shapes = (
{
closed = 1;
nodes = (
(56,482,ls),
(38,532,o),
(82,560,o),
(120,560,cs),
(152,560,o),
(177,540,o),
(188,508,cs),
(281,233,ls),
(289,210,o),
(311,210,o),
(319,233,cs),
(412,508,ls),
(423,540,o),
(448,560,o),
(480,560,cs),
(518,560,o),
(562,532,o),
(544,482,cs),
(394,62,ls),
(377,15,o),
(350,-10,o),
(300,-10,cs),
(250,-10,o),
(223,15,o),
(206,62,cs)
);
}
);
width = 600;
},
{
layerId = "921C946B-68A7-49D6-9396-60D462B577B8";
shapes = (
{
closed = 1;
nodes = (
(74,508,ls),
(65,534,o),
(83,560,o),
(116,560,cs),
(138,560,o),
(156,548,o),
(164,525,cs),
(285,175,ls),
(292,155,o),
(308,155,o),
(315,175,cs),
(436,525,ls),
(444,548,o),
(462,560,o),
(484,560,cs),
(517,560,o),
(535,534,o),
(526,508,cs),
(363,38,ls),
(352,6,o),
(334,-10,o),
(300,-10,cs),
(267,-10,o),
(248,6,o),
(237,38,cs)
);
}
);
width = 600;
},
{
layerId = "A9EA4EA3-63FD-46BE-AE35-8F493BD0E280";
shapes = (
{
closed = 1;
nodes = (
(88,531,ls),
(83,547,o),
(100,560,o),
(114,560,cs),
(123,560,o),
(136,554,o),
(140,541,cs),
(290,100,ls),
(296,83,o),
(304,83,o),
(310,100,cs),
(460,541,ls),
(464,554,o),
(477,560,o),
(486,560,cs),
(500,560,o),
(517,547,o),
(512,531,cs),
(338,19,ls),
(331,0,o),
(320,-10,o),
(300,-10,cs),
(280,-10,o),
(269,0,o),
(262,19,cs)
);
}
);
width = 600;
}
);
unicode = 118;
},
{
glyphname = w;
layers = (
{
anchors = (
{
name = bottom;
position = "{300, 0}";
},
{
name = top;
position = "{300, 550}";
}
);
layerId = "E79C6012-54E0-4B47-AAB7-371DB4DAB7F2";
shapes = (
{
closed = 1;
nodes = (
(115,0,o),
(84,27,o),
(76,80,cs),
(15,481,ls),
(8,527,o),
(27,550,o),
(72,550,cs),
(111,550,o),
(133,532,o),
(138,495,cs),
(178,195,ls),
(180,178,o),
(184,179,o),
(187,195,cs),
(221,385,ls),
(229,428,o),
(256,450,o),
(300,450,cs),
(344,450,o),
(371,428,o),
(379,385,cs),
(413,195,ls),
(416,179,o),
(420,178,o),
(422,195,cs),
(462,495,ls),
(467,532,o),
(489,550,o),
(528,550,cs),
(573,550,o),
(592,527,o),
(585,481,cs),
(523,79,ls),
(515,26,o),
(485,0,o),
(431,0,cs),
(377,0,o),
(344,26,o),
(335,78,cs),
(305,251,ls),
(302,267,o),
(298,267,o),
(295,251,cs),
(265,79,ls),
(256,26,o),
(223,0,o),
(169,0,cs)
);
}
);
width = 600;
},
{
anchors = (
{
name = bottom;
position = "{300, 0}";
},
{
name = top;
position = "{300, 550}";
}
);
layerId = "921C946B-68A7-49D6-9396-60D462B577B8";
shapes = (
{
closed = 1;
nodes = (
(139,0,o),
(117,19,o),
(111,57,cs),
(38,501,ls),
(33,534,o),
(46,550,o),
(78,550,cs),
(107,550,o),
(122,537,o),
(126,510,cs),
(177,140,ls),
(179,127,o),
(181,127,o),
(184,140,cs),
(239,391,ls),
(246,424,o),
(266,440,o),
(300,440,cs),
(334,440,o),
(354,424,o),
(361,391,cs),
(416,140,ls),
(419,127,o),
(421,127,o),
(423,140,cs),
(474,510,ls),
(478,537,o),
(493,550,o),
(522,550,cs),
(554,550,o),
(567,534,o),
(562,501,cs),
(489,57,ls),
(483,19,o),
(462,0,o),
(423,0,cs),
(384,0,o),
(361,18,o),
(353,56,cs),
(304,290,ls),
(301,303,o),
(299,303,o),
(296,290,cs),
(247,56,ls),
(239,18,o),
(217,0,o),
(178,0,cs)
);
}
);
width = 600;
},
{
anchors = (
{
name = bottom;
position = "{300, 0}";
},
{
name = top;
position = "{300, 550}";
}
);
layerId = "A9EA4EA3-63FD-46BE-AE35-8F493BD0E280";
shapes = (
{
closed = 1;
nodes = (
(155,0,o),
(141,11,o),
(137,35,cs),
(55,520,ls),
(52,540,o),
(61,550,o),
(81,550,cs),
(97,550,o),
(106,542,o),
(109,526,cs),
(178,85,ls),
(180,75,o),
(182,75,o),
(184,85,cs),
(263,401,ls),
(268,420,o),
(280,430,o),
(300,430,cs),
(320,430,o),
(332,420,o),
(337,401,cs),
(416,85,ls),
(418,75,o),
(420,75,o),
(422,85,cs),
(491,526,ls),
(494,542,o),
(503,550,o),
(519,550,cs),
(539,550,o),
(548,540,o),
(545,520,cs),
(462,35,ls),
(458,12,o),
(445,0,o),
(421,0,cs),
(397,0,o),
(382,11,o),
(376,34,cs),
(304,325,ls),
(302,335,o),
(298,335,o),
(296,325,cs),
(224,35,ls),
(218,12,o),
(203,0,o),
(179,0,cs)
);
}
);
width = 600;
}
);
unicode = 119;
},
{
glyphname = x;
layers = (
{
layerId = "E79C6012-54E0-4B47-AAB7-371DB4DAB7F2";
shapes = (
{
closed = 1;
nodes = (
(220,36,ls),
(200,6,o),
(173,-10,o),
(139,-10,cs),
(92,-10,o),
(44,22,o),
(86,84,cs),
(366,512,ls),
(386,543,o),
(413,560,o),
(447,560,cs),
(495,560,o),
(542,528,o),
(501,466,cs)
);
},
{
closed = 1;
nodes = (
(514,84,ls),
(556,22,o),
(508,-10,o),
(459,-10,cs),
(426,-10,o),
(400,5,o),
(380,36,cs),
(97,466,ls),
(58,525,o),
(106,560,o),
(154,560,cs),
(187,560,o),
(214,543,o),
(234,512,cs)
);
}
);
width = 600;
},
{
layerId = "921C946B-68A7-49D6-9396-60D462B577B8";
shapes = (
{
closed = 1;
nodes = (
(175,20,ls),
(162,1,o),
(145,-10,o),
(124,-10,cs),
(94,-10,o),
(63,11,o),
(89,49,cs),
(413,530,ls),
(426,550,o),
(444,560,o),
(466,560,cs),
(496,560,o),
(527,540,o),
(500,500,cs)
);
},
{
closed = 1;
nodes = (
(511,49,ls),
(537,11,o),
(506,-10,o),
(476,-10,cs),
(455,-10,o),
(438,0,o),
(425,20,cs),
(100,500,ls),
(73,540,o),
(106,560,o),
(135,560,cs),
(157,560,o),
(174,549,o),
(187,530,cs)
);
}
);
width = 600;
},
{
layerId = "A9EA4EA3-63FD-46BE-AE35-8F493BD0E280";
shapes = (
{
closed = 1;
nodes = (
(144,5,ls),
(137,-5,o),
(127,-10,o),
(114,-10,cs),
(98,-10,o),
(81,0,o),
(96,22,cs),
(443,543,ls),
(450,554,o),
(461,560,o),
(474,560,cs),
(491,560,o),
(507,550,o),
(492,528,cs)
);
},
{
closed = 1;
nodes = (
(504,22,ls),
(519,0,o),
(502,-10,o),
(484,-10,cs),
(473,-10,o),
(463,-6,o),
(456,5,cs),
(108,528,ls),
(95,548,o),
(110,560,o),
(126,560,cs),
(139,560,o),
(150,554,o),
(157,543,cs)
);
}
);
width = 600;
}
);
unicode = 120;
},
{
glyphname = y;
layers = (
{
layerId = "E79C6012-54E0-4B47-AAB7-371DB4DAB7F2";
shapes = (
{
closed = 1;
nodes = (
(424,517,ls),
(432,539,o),
(447,550,o),
(470,550,cs),
(523,550,o),
(549,532,o),
(549,494,cs),
(549,482,o),
(546,467,o),
(541,451,cs),
(386,-10,ls),
(367,-66,o),
(329,-177,o),
(275,-217,cs),
(223,-256,o),
(169,-270,o),
(130,-270,cs),
(83,-270,o),
(60,-250,o),
(60,-205,cs),
(60,-204,o),
(60,-204,o),
(60,-203,c),
(61,-165,o),
(79,-137,o),
(116,-137,cs),
(139,-137,o),
(153,-127,o),
(168,-114,cs),
(202,-84,o),
(212,-65,o),
(225,-29,cs)
);
},
{
closed = 1;
nodes = (
(69.7,454.8,ls),
(64,471,o),
(61,485.2,o),
(61,497,cs),
(61,533,o),
(87,550,o),
(128,550,cs),
(160,550,o),
(174,539,o),
(182,518,cs),
(351,53,l),
(265,-80,l)
);
}
);
width = 600;
},
{
layerId = "921C946B-68A7-49D6-9396-60D462B577B8";
shapes = (
{
closed = 1;
nodes = (
(447,528,ls),
(452,543,o),
(463,550,o),
(486,550,cs),
(516,550,o),
(532,538,o),
(532,514,cs),
(532,505,o),
(530,495,o),
(526,483,cs),
(354,-10,ls),
(334,-66,o),
(288,-160,o),
(238,-196,cs),
(208,-218,o),
(163,-229,o),
(130,-229,cs),
(95,-229,o),
(80,-216,o),
(80,-185,c),
(80,-185,o),
(80,-184,o),
(80,-184,c),
(80,-155,o),
(95,-139,o),
(127,-139,cs),
(148,-139,o),
(172,-132,o),
(190,-116,cs),
(228,-83,o),
(237,-57,o),
(253,-11,cs)
);
},
{
closed = 1;
nodes = (
(85,483,ls),
(81,493,o),
(78,505,o),
(78,515,cs),
(78,539,o),
(94,550,o),
(124,550,cs),
(147,550,o),
(158,543,o),
(163,528,cs),
(335,62,l),
(272,-23,l)
);
}
);
width = 600;
},
{
layerId = "A9EA4EA3-63FD-46BE-AE35-8F493BD0E280";
shapes = (
{
closed = 1;
nodes = (
(470,538,ls),
(473,546,o),
(479,550,o),
(491,550,cs),
(506,550,o),
(515,544,o),
(515,532,cs),
(515,528,o),
(514,525,o),
(512,520,cs),
(314,-10,ls),
(293,-66,o),
(270,-125,o),
(231,-159,cs),
(196,-189,o),
(160,-190,o),
(125,-190,cs),
(108,-190,o),
(100,-182,o),
(100,-165,c),
(100,-165,o),
(100,-164,o),
(100,-164,c),
(100,-148,o),
(108,-140,o),
(133,-140,cs),
(150,-140,o),
(177,-136,o),
(202,-113,cs),
(237,-82,o),
(259,-23,o),
(269,5,cs)
);
},
{
closed = 1;
nodes = (
(90,514,ls),
(87,521,o),
(86,526,o),
(86,531,cs),
(86,544,o),
(95,550,o),
(111,550,cs),
(124,550,o),
(130,546,o),
(133,538,cs),
(328,58,l),
(291,15,l)
);
}
);
width = 600;
}
);
unicode = 121;
},
{
glyphname = z;
layers = (
{
layerId = "E79C6012-54E0-4B47-AAB7-371DB4DAB7F2";
shapes = (
{
closed = 1;
nodes = (
(157,0,ls),
(99,0,o),
(70,29,o),
(70,84,cs),
(70,116,o),
(80,141,o),
(100,162,cs),
(301,371,ls),
(312,383,o),
(318,392,o),
(318,399,cs),
(318,409,o),
(306,415,o),
(282,415,cs),
(145,415,ls),
(101,415,o),
(80,438,o),
(80,482,cs),
(80,526,o),
(101,550,o),
(145,550,cs),
(432,550,ls),
(490,550,o),
(519,521,o),
(519,466,cs),
(519,434,o),
(509,409,o),
(489,388,cs),
(288,179,ls),
(277,167,o),
(271,158,o),
(271,151,cs),
(271,141,o),
(283,135,o),
(307,135,cs),
(465,135,ls),
(509,135,o),
(530,112,o),
(530,68,cs),
(530,24,o),
(509,0,o),
(465,0,cs)
);
}
);
width = 600;
},
{
layerId = "921C946B-68A7-49D6-9396-60D462B577B8";
shapes = (
{
closed = 1;
nodes = (
(150,0,ls),
(110,0,o),
(90,20,o),
(90,59,cs),
(90,80,o),
(96,97,o),
(109,113,cs),
(373,429,ls),
(380,437,o),
(383,443,o),
(383,448,cs),
(383,456,o),
(375,460,o),
(358,460,cs),
(142,460,ls),
(115,460,o),
(98,478,o),
(98,505,cs),
(98,532,o),
(115,550,o),
(142,550,cs),
(439,550,ls),
(479,550,o),
(499,530,o),
(499,491,cs),
(499,470,o),
(493,452,o),
(480,437,cs),
(211,121,ls),
(204,113,o),
(201,106,o),
(201,101,cs),
(201,94,o),
(209,90,o),
(225,90,cs),
(466,90,ls),
(493,90,o),
(510,72,o),
(510,45,cs),
(510,18,o),
(493,0,o),
(466,0,cs)
);
}
);
width = 600;
},
{
layerId = "A9EA4EA3-63FD-46BE-AE35-8F493BD0E280";
shapes = (
{
closed = 1;
nodes = (
(134,0,ls),
(113,0,o),
(103,10,o),
(103,31,cs),
(103,41,o),
(106,51,o),
(112,59,cs),
(410,475,ls),
(414,480,o),
(416,485,o),
(416,489,cs),
(416,496,o),
(409,500,o),
(397,500,cs),
(137,500,ls),
(122,500,o),
(112,510,o),
(112,525,cs),
(112,540,o),
(121,550,o),
(136,550,cs),
(453,550,ls),
(474,550,o),
(484,540,o),
(484,519,cs),
(484,509,o),
(481,499,o),
(475,490,cs),
(176,74,ls),
(172,68,o),
(170,64,o),
(170,60,cs),
(170,53,o),
(177,50,o),
(189,50,cs),
(472,50,ls),
(487,50,o),
(497,40,o),
(497,25,cs),
(497,10,o),
(487,0,o),
(472,0,cs)
);
}
);
width = 600;
}
);
unicode = 122;
},
{
glyphname = ordfeminine;
layers = (
{
layerId = "E79C6012-54E0-4B47-AAB7-371DB4DAB7F2";
shapes = (
{
closed = 1;
nodes = (
(358,473,o),
(310,452,o),
(275,452,cs),
(184,452,o),
(172,526,o),
(172,576,cs),
(172,639,o),
(206,742,o),
(315,742,cs),
(339,742,o),
(354,740,o),
(369,724,c),
(378,740,o),
(389,742,o),
(403,742,cs),
(426,742,o),
(433,726,o),
(433,713,cs),
(433,695,o),
(430,684,o),
(429,673,cs),
(422,619,o),
(419,552,o),
(440,500,cs),
(443,493,o),
(445,484,o),
(445,476,cs),
(445,462,o),
(431,452,o),
(412,452,cs),
(395,452,o),
(385,458,o),
(380,467,cs),
(377,473,o),
(372,495,o),
(370,509,c)
);
},
{
closed = 1;
nodes = (
(309,527,o),
(323,543,o),
(332,566,cs),
(340,588,o),
(343,613,o),
(343,628,cs),
(343,648,o),
(338,668,o),
(312,668,cs),
(275,668,o),
(257,610,o),
(257,581,cs),
(257,562,o),
(259,527,o),
(285,527,cs)
);
}
);
width = 600;
},
{
layerId = "921C946B-68A7-49D6-9396-60D462B577B8";
shapes = (
{
closed = 1;
nodes = (
(363,470,o),
(327,446,o),
(278,446,cs),
(198,446,o),
(182,517,o),
(182,570,cs),
(182,637,o),
(225,745,o),
(319,745,cs),
(336,745,o),
(357,739,o),
(372,728,c),
(376,742,o),
(388,745,o),
(401,745,cs),
(421,745,o),
(432,732,o),
(432,715,cs),
(432,696,o),
(429,688,o),
(428,679,cs),
(422,633,o),
(416,535,o),
(437,496,cs),
(442,489,o),
(444,481,o),
(444,473,cs),
(444,453,o),
(428,446,o),
(412,446,cs),
(395,446,o),
(389,452,o),
(384,465,cs),
(379,476,o),
(375,496,o),
(373,504,c)
);
},
{
closed = 1;
nodes = (
(314,510,o),
(343,538,o),
(352,567,cs),
(359,586,o),
(362,607,o),
(362,628,cs),
(362,660,o),
(348,681,o),
(316,681,cs),
(275,681,o),
(247,616,o),
(247,574,cs),
(247,548,o),
(250,510,o),
(284,510,cs)
);
}
);
width = 600;
},
{
layerId = "A9EA4EA3-63FD-46BE-AE35-8F493BD0E280";
shapes = (
{
closed = 1;
nodes = (
(361,474,o),
(308,446,o),
(274,446,cs),
(198,446,o),
(189,518,o),
(189,568,cs),
(189,640,o),
(226,746,o),
(321,746,cs),
(337,746,o),
(360,742,o),
(373,728,c),
(376,736,o),
(382,746,o),
(397,746,cs),
(412,746,o),
(420,734,o),
(420,722,cs),
(420,712,o),
(418,702,o),
(416,694,cs),
(407,642,o),
(396,535,o),
(423,487,cs),
(427,480,o),
(430,476,o),
(430,468,cs),
(430,454,o),
(422,446,o),
(408,446,cs),
(396,446,o),
(388,454,o),
(384,462,cs),
(378,472,o),
(372,495,o),
(370,508,c)
);
},
{
closed = 1;
nodes = (
(313,491,o),
(350,540,o),
(359,574,cs),
(364,592,o),
(366,610,o),
(366,629,cs),
(366,669,o),
(355,701,o),
(316,701,cs),
(265,701,o),
(234,619,o),
(234,569,cs),
(234,536,o),
(236,491,o),
(280,491,cs)
);
}
);
width = 600;
}
);
unicode = 170;
},
{
glyphname = ordmasculine;
layers = (
{
layerId = "E79C6012-54E0-4B47-AAB7-371DB4DAB7F2";
shapes = (
{
closed = 1;
nodes = (
(335,490,o),
(345,535,o),
(345,580,cs),
(345,625,o),
(335,670,o),
(300,670,cs),
(265,670,o),
(255,625,o),
(255,580,cs),
(255,535,o),
(265,490,o),
(300,490,cs)
);
},
{
closed = 1;
nodes = (
(205,420,o),
(170,500,o),
(170,580,cs),
(170,659,o),
(205,740,o),
(300,740,cs),
(396,740,o),
(430,660,o),
(430,580,cs),
(430,500,o),
(395,420,o),
(300,420,cs)
);
}
);
width = 600;
},
{
layerId = "921C946B-68A7-49D6-9396-60D462B577B8";
shapes = (
{
closed = 1;
nodes = (
(345,506,o),
(356,550,o),
(356,590,cs),
(356,630,o),
(346,675,o),
(300,675,cs),
(260,675,o),
(245,630,o),
(245,590,cs),
(245,550,o),
(260,506,o),
(300,506,cs)
);
},
{
closed = 1;
nodes = (
(209,440,o),
(180,520,o),
(180,590,cs),
(180,660,o),
(209,740,o),
(300,740,cs),
(396,740,o),
(420,660,o),
(420,590,cs),
(420,520,o),
(395,440,o),
(300,440,cs)
);
}
);
width = 600;
},
{
layerId = "A9EA4EA3-63FD-46BE-AE35-8F493BD0E280";
shapes = (
{
closed = 1;
nodes = (
(350,500,o),
(365,550,o),
(365,600,cs),
(365,652,o),
(350,700,o),
(300,700,cs),
(250,700,o),
(235,650,o),
(235,600,cs),
(235,550,o),
(250,500,o),
(300,500,cs)
);
},
{
closed = 1;
nodes = (
(215,460,o),
(190,536,o),
(190,600,cs),
(190,665,o),
(215,740,o),
(300,740,cs),
(385,740,o),
(410,667,o),
(410,600,cs),
(410,535,o),
(385,460,o),
(300,460,cs)
);
}
);
width = 600;
}
);
unicode = 186;
},
{
glyphname = "Be-cy";
layers = (
{
layerId = "E79C6012-54E0-4B47-AAB7-371DB4DAB7F2";
shapes = (
{
closed = 1;
nodes = (
(166,0,ls),
(99,0,o),
(66,33,o),
(66,100,cs),
(66,630,ls),
(66,697,o),
(99,730,o),
(166,730,cs),
(460,730,ls),
(505,730,o),
(528,708,o),
(528,663,cs),
(528,618,o),
(505,595,o),
(460,595,cs),
(261,595,ls),
(227,595,o),
(211,578,o),
(211,545,cs),
(211,476,ls),
(211,459,o),
(219,451,o),
(236,451,cs),
(309,451,ls),
(385,451,o),
(497,396,o),
(560,296,o),
(560,228,qs),
(560,162,o),
(497,59,o),
(385,0,o),
(310,0,qs)
);
},
{
closed = 1;
nodes = (
(211,180,ls),
(211,147,o),
(228,130,o),
(261,130,cs),
(310,130,ls),
(356,130,o),
(410,184,o),
(410,228,qs),
(410,273,o),
(356,326,o),
(310,326,qs),
(236,326,ls),
(219,326,o),
(211,318,o),
(211,301,cs)
);
}
);
width = 600;
},
{
layerId = "921C946B-68A7-49D6-9396-60D462B577B8";
shapes = (
{
closed = 1;
nodes = (
(174,0,ls),
(120,0,o),
(94,26,o),
(94,80,cs),
(94,650,ls),
(94,704,o),
(120,730,o),
(174,730,cs),
(459,730,ls),
(486,730,o),
(500,716,o),
(500,689,cs),
(500,662,o),
(486,648,o),
(459,648,cs),
(224,648,ls),
(197,648,o),
(184,635,o),
(184,608,cs),
(184,452,ls),
(184,439,o),
(191,432,o),
(204,432,cs),
(305,432,ls),
(375,432,o),
(475,378,o),
(530,281,o),
(530,216,qs),
(530,151,o),
(475,54,o),
(375,0,o),
(305,0,qs)
);
},
{
closed = 1;
nodes = (
(184,122,ls),
(184,95,o),
(197,82,o),
(224,82,cs),
(305,82,ls),
(367,82,o),
(437,155,o),
(437,216,qs),
(437,278,o),
(367,350,o),
(305,350,qs),
(204,350,ls),
(191,350,o),
(184,343,o),
(184,330,cs)
);
}
);
width = 600;
},
{
layerId = "A9EA4EA3-63FD-46BE-AE35-8F493BD0E280";
shapes = (
{
closed = 1;
nodes = (
(170,0,ls),
(130,0,o),
(110,20,o),
(110,60,cs),
(110,670,ls),
(110,710,o),
(130,730,o),
(170,730,cs),
(463,730,ls),
(478,730,o),
(486,723,o),
(486,708,cs),
(486,693,o),
(478,685,o),
(463,685,cs),
(190,685,ls),
(170,685,o),
(160,675,o),
(160,655,cs),
(160,435,ls),
(160,425,o),
(165,420,o),
(175,420,cs),
(306,420,ls),
(369,420,o),
(463,367,o),
(516,273,o),
(516,210,qs),
(516,148,o),
(463,53,o),
(369,0,o),
(306,0,qs)
);
},
{
closed = 1;
nodes = (
(160,75,ls),
(160,55,o),
(170,45,o),
(190,45,cs),
(306,45,ls),
(377,45,o),
(466,137,o),
(466,210,qs),
(466,284,o),
(377,375,o),
(306,375,qs),
(175,375,ls),
(165,375,o),
(160,370,o),
(160,360,cs)
);
}
);
width = 600;
}
);
unicode = 1041;
},
{
glyphname = "Ge-cy";
layers = (
{
layerId = "E79C6012-54E0-4B47-AAB7-371DB4DAB7F2";
shapes = (
{
closed = 1;
nodes = (
(140,-10,o),
(115,15,o),
(115,65,cs),
(115,630,ls),
(115,697,o),
(148,730,o),
(215,730,cs),
(492,730,ls),
(537,730,o),
(560,708,o),
(560,663,cs),
(560,618,o),
(538,595,o),
(493,595,cs),
(315,595,ls),
(282,595,o),
(265,579,o),
(265,545,cs),
(265,65,ls),
(265,15,o),
(240,-10,o),
(190,-10,cs)
);
}
);
width = 600;
},
{
anchors = (
{
name = m.uni0308;
position = "{320, 730}";
}
);
layerId = "921C946B-68A7-49D6-9396-60D462B577B8";
shapes = (
{
closed = 1;
nodes = (
(145,-10,o),
(130,5,o),
(130,35,cs),
(130,650,ls),
(130,704,o),
(156,730,o),
(210,730,cs),
(514,730,ls),
(541,730,o),
(555,716,o),
(555,689,cs),
(555,662,o),
(541,648,o),
(514,648,cs),
(260,648,ls),
(233,648,o),
(220,635,o),
(220,608,cs),
(220,35,ls),
(220,5,o),
(205,-10,o),
(175,-10,cs)
);
}
);
width = 600;
},
{
layerId = "A9EA4EA3-63FD-46BE-AE35-8F493BD0E280";
shapes = (
{
closed = 1;
nodes = (
(148,-10,o),
(140,-2,o),
(140,15,cs),
(140,670,ls),
(140,710,o),
(160,730,o),
(200,730,cs),
(522,730,ls),
(537,730,o),
(545,723,o),
(545,708,cs),
(545,693,o),
(537,685,o),
(522,685,cs),
(220,685,ls),
(200,685,o),
(190,675,o),
(190,655,cs),
(190,15,ls),
(190,-2,o),
(182,-10,o),
(165,-10,cs)
);
}
);
width = 600;
}
);
unicode = 1043;
},
{
glyphname = "Gheupturn-cy";
layers = (
{
layerId = "E79C6012-54E0-4B47-AAB7-371DB4DAB7F2";
shapes = (
{
closed = 1;
nodes = (
(140,-10,o),
(115,15,o),
(115,65,cs),
(115,630,ls),
(115,697,o),
(148,730,o),
(215,730,cs),
(388,730,ls),
(406,730,o),
(415,739,o),
(415,757,cs),
(415,758,ls),
(415,803,o),
(437,825,o),
(482,825,cs),
(535,825,o),
(560,800,o),
(560,747,cs),
(560,690,ls),
(560,623,o),
(527,590,o),
(460,590,cs),
(315,590,ls),
(282,590,o),
(265,574,o),
(265,540,cs),
(265,65,ls),
(265,15,o),
(240,-10,o),
(190,-10,cs)
);
}
);
width = 600;
},
{
layerId = "921C946B-68A7-49D6-9396-60D462B577B8";
shapes = (
{
closed = 1;
nodes = (
(145,-10,o),
(130,5,o),
(130,35,cs),
(130,650,ls),
(130,704,o),
(156,730,o),
(210,730,cs),
(438,730,ls),
(459,730,o),
(470,741,o),
(470,762,cs),
(470,787,ls),
(470,812,o),
(483,825,o),
(508,825,cs),
(540,825,o),
(555,810,o),
(555,778,cs),
(555,728,ls),
(555,674,o),
(529,648,o),
(475,648,cs),
(260,648,ls),
(233,648,o),
(220,635,o),
(220,608,cs),
(220,35,ls),
(220,5,o),
(205,-10,o),
(175,-10,cs)
);
}
);
width = 600;
},
{
layerId = "A9EA4EA3-63FD-46BE-AE35-8F493BD0E280";
shapes = (
{
closed = 1;
nodes = (
(148,-10,o),
(140,-2,o),
(140,15,cs),
(140,670,ls),
(140,710,o),
(160,730,o),
(200,730,cs),
(465,730,ls),
(485,730,o),
(495,740,o),
(495,760,cs),
(495,800,ls),
(495,817,o),
(503,825,o),
(520,825,cs),
(537,825,o),
(545,817,o),
(545,800,cs),
(545,745,ls),
(545,705,o),
(525,685,o),
(485,685,cs),
(220,685,ls),
(200,685,o),
(190,675,o),
(190,655,cs),
(190,15,ls),
(190,-2,o),
(182,-10,o),
(165,-10,cs)
);
}
);
width = 600;
}
);
unicode = 1168;
},
{
glyphname = "De-cy";
layers = (
{
layerId = "E79C6012-54E0-4B47-AAB7-371DB4DAB7F2";
shapes = (
{
closed = 1;
nodes = (
(22,96,ls),
(22,115,o),
(32,125,o),
(51,125,cs),
(56,125,o),
(60,127,o),
(62,131,cs),
(72,148,o),
(82,175,qs),
(95,207,o),
(107,292,o),
(107,340,qs),
(111,630,ls),
(112,697,o),
(146,730,o),
(213,730,cs),
(418,730,ls),
(485,730,o),
(518,697,o),
(518,630,cs),
(518,137,ls),
(518,129,o),
(522,125,o),
(530,125,cs),
(562,125,o),
(578,109,o),
(578,77,cs),
(578,-70,ls),
(578,-117,o),
(555,-140,o),
(508,-140,cs),
(461,-140,o),
(438,-117,o),
(438,-70,cs),
(438,-50,ls),
(438,-17,o),
(422,0,o),
(388,0,cs),
(212,0,ls),
(178,0,o),
(162,-17,o),
(162,-50,cs),
(162,-70,ls),
(162,-117,o),
(139,-140,o),
(92,-140,cs),
(45,-140,o),
(22,-117,o),
(22,-70,cs)
);
},
{
closed = 1;
nodes = (
(209,132,o),
(214,125,o),
(230,125,cs),
(353,125,ls),
(370,125,o),
(378,133,o),
(378,150,cs),
(378,555,ls),
(378,589,o),
(362,605,o),
(328,605,cs),
(301,605,ls),
(267,605,o),
(251,588,o),
(250,555,cs),
(247,341,ls),
(247,295,o),
(237,210,o),
(226,177,qs),
(221,161,o),
(215,148,qs)
);
}
);
width = 600;
},
{
layerId = "921C946B-68A7-49D6-9396-60D462B577B8";
shapes = (
{
closed = 1;
nodes = (
(25,41,ls),
(25,65,o),
(37,77,o),
(61,77,cs),
(67,77,o),
(71,80,o),
(74,85,cs),
(83,103,o),
(93,131,qs),
(105,165,o),
(123,251,o),
(124,298,qs),
(130,650,ls),
(131,704,o),
(157,730,o),
(211,730,cs),
(425,730,ls),
(479,730,o),
(505,704,o),
(505,650,cs),
(505,91,ls),
(505,82,o),
(510,77,o),
(519,77,cs),
(557,77,o),
(575,59,o),
(575,21,cs),
(575,-100,ls),
(575,-127,o),
(562,-140,o),
(535,-140,cs),
(508,-140,o),
(495,-127,o),
(495,-100,cs),
(495,-40,ls),
(495,-13,o),
(482,0,o),
(455,0,cs),
(145,0,ls),
(118,0,o),
(105,-13,o),
(105,-40,cs),
(105,-100,ls),
(105,-127,o),
(92,-140,o),
(65,-140,cs),
(38,-140,o),
(25,-127,o),
(25,-100,cs)
);
},
{
closed = 1;
nodes = (
(168,83,o),
(171,77,o),
(184,77,cs),
(395,77,ls),
(408,77,o),
(415,84,o),
(415,97,cs),
(415,610,ls),
(415,637,o),
(402,650,o),
(375,650,cs),
(257,650,ls),
(230,650,o),
(216,637,o),
(216,610,cs),
(212,298,ls),
(212,247,o),
(196,160,o),
(185,127,qs),
(179,109,o),
(173,95,qs)
);
}
);
width = 600;
},
{
layerId = "A9EA4EA3-63FD-46BE-AE35-8F493BD0E280";
shapes = (
{
closed = 1;
nodes = (
(48,18,ls),
(48,36,o),
(57,45,o),
(75,45,cs),
(80,45,o),
(83,46,o),
(86,50,cs),
(99,67,o),
(112,97,qs),
(128,131,o),
(150,222,o),
(151,276,qs),
(160,670,ls),
(161,710,o),
(181,730,o),
(221,730,cs),
(418,730,ls),
(458,730,o),
(478,710,o),
(478,670,cs),
(478,59,ls),
(478,49,o),
(482,45,o),
(492,45,cs),
(531,45,o),
(550,26,o),
(550,-13,cs),
(550,-118,ls),
(550,-133,o),
(543,-140,o),
(528,-140,cs),
(513,-140,o),
(505,-132,o),
(505,-117,cs),
(505,-30,ls),
(505,-10,o),
(495,0,o),
(475,0,cs),
(123,0,ls),
(103,0,o),
(93,-10,o),
(93,-30,cs),
(93,-117,ls),
(93,-132,o),
(86,-140,o),
(71,-140,cs),
(56,-140,o),
(48,-133,o),
(48,-118,cs)
);
},
{
closed = 1;
nodes = (
(139,48,o),
(140,45,o),
(150,45,cs),
(413,45,ls),
(423,45,o),
(428,50,o),
(428,60,cs),
(428,655,ls),
(428,675,o),
(418,685,o),
(398,685,cs),
(241,685,ls),
(221,685,o),
(210,675,o),
(210,655,cs),
(201,276,ls),
(200,222,o),
(179,131,o),
(164,97,qs),
(154,73,o),
(144,57,qs)
);
}
);
width = 600;
}
);
unicode = 1044;
},
{
glyphname = "Zhe-cy";
layers = (
{
anchors = (
{
name = bottomright;
position = "{580, 0}";
},
{
name = top;
position = "{300, 730}";
}
);
layerId = "E79C6012-54E0-4B47-AAB7-371DB4DAB7F2";
shapes = (
{
closed = 1;
nodes = (
(127,29,ls),
(120,3,o),
(103,-10,o),
(76,-10,cs),
(22,-10,o),
(3,16,o),
(17,68,cs),
(96,353,ls),
(100,369,o),
(100,385,o),
(96,401,cs),
(23,663,ls),
(8,715,o),
(28,740,o),
(82,740,cs),
(109,740,o),
(126,727,o),
(133,701,cs),
(204,450,ls),
(207,438,o),
(215,432,o),
(228,432,cs),
(228,432,ls),
(241,432,o),
(247,438,o),
(247,451,cs),
(247,689,ls),
(247,723,o),
(264,740,o),
(298,740,cs),
(332,740,o),
(349,723,o),
(349,689,cs),
(349,452,ls),
(349,439,o),
(356,432,o),
(369,432,cs),
(369,432,ls),
(382,432,o),
(391,438,o),
(395,451,cs),
(466,702,ls),
(473,727,o),
(490,740,o),
(516,740,cs),
(569,740,o),
(587,715,o),
(572,665,cs),
(496,404,ls),
(491,388,o),
(491,372,o),
(496,356,cs),
(582,67,ls),
(597,16,o),
(579,-10,o),
(525,-10,cs),
(498,-10,o),
(481,2,o),
(473,28,cs),
(392,307,ls),
(388,319,o),
(381,325,o),
(368,325,cs),
(368,325,ls),
(355,325,o),
(349,319,o),
(349,306,cs),
(353,41,ls),
(354,7,o),
(337,-10,o),
(303,-10,cs),
(269,-10,o),
(252,7,o),
(251,41,cs),
(247,305,ls),
(247,318,o),
(240,325,o),
(227,325,cs),
(227,325,ls),
(214,325,o),
(206,319,o),
(202,306,cs)
);
}
);
width = 600;
},
{
anchors = (
{
name = bottomright;
position = "{580, 0}";
},
{
name = top;
position = "{300, 730}";
}
);
layerId = "921C946B-68A7-49D6-9396-60D462B577B8";
shapes = (
{
closed = 1;
nodes = (
(108,19,ls),
(102,0,o),
(88,-10,o),
(67,-10,cs),
(26,-10,o),
(13,9,o),
(26,48,cs),
(133,360,ls),
(137,373,o),
(137,385,o),
(133,398,cs),
(37,681,ls),
(23,721,o),
(37,740,o),
(79,740,cs),
(100,740,o),
(114,730,o),
(120,710,cs),
(210,430,ls),
(214,417,o),
(223,411,o),
(236,411,cs),
(242,411,ls),
(255,411,o),
(262,418,o),
(262,431,cs),
(262,702,ls),
(262,727,o),
(275,740,o),
(300,740,cs),
(325,740,o),
(338,727,o),
(338,702,cs),
(338,431,ls),
(338,418,o),
(345,411,o),
(358,411,cs),
(366,411,ls),
(379,411,o),
(388,417,o),
(392,430,cs),
(480,710,ls),
(486,730,o),
(500,740,o),
(521,740,cs),
(563,740,o),
(577,721,o),
(563,681,cs),
(466,397,ls),
(462,384,o),
(461,372,o),
(466,359,cs),
(573,48,ls),
(586,9,o),
(574,-10,o),
(532,-10,cs),
(511,-10,o),
(498,-1,o),
(491,19,cs),
(390,324,ls),
(386,337,o),
(377,343,o),
(364,343,cs),
(358,343,ls),
(345,343,o),
(338,336,o),
(338,323,cs),
(338,28,ls),
(338,3,o),
(325,-10,o),
(300,-10,cs),
(275,-10,o),
(262,3,o),
(262,28,cs),
(262,323,ls),
(262,336,o),
(255,343,o),
(242,343,cs),
(234,343,ls),
(221,343,o),
(212,337,o),
(208,324,cs)
);
}
);
width = 600;
},
{
anchors = (
{
name = bottomright;
position = "{580, 0}";
},
{
name = top;
position = "{300, 730}";
}
);
layerId = "A9EA4EA3-63FD-46BE-AE35-8F493BD0E280";
shapes = (
{
closed = 1;
nodes = (
(73,6,ls),
(69,-5,o),
(62,-10,o),
(50,-10,cs),
(27,-10,o),
(19,0,o),
(27,22,cs),
(158,370,ls),
(161,379,o),
(161,389,o),
(157,398,cs),
(37,708,ls),
(28,730,o),
(36,740,o),
(59,740,cs),
(71,740,o),
(78,735,o),
(82,724,cs),
(200,415,ls),
(204,406,o),
(211,401,o),
(221,401,cs),
(262,401,ls),
(272,401,o),
(277,406,o),
(277,416,cs),
(277,718,ls),
(277,733,o),
(284,740,o),
(299,740,cs),
(314,740,o),
(321,733,o),
(321,718,cs),
(321,416,ls),
(321,406,o),
(326,401,o),
(336,401,cs),
(377,401,ls),
(387,401,o),
(394,406,o),
(398,415,cs),
(518,724,ls),
(522,735,o),
(530,740,o),
(541,740,cs),
(564,740,o),
(570,729,o),
(562,708,cs),
(441,398,ls),
(437,389,o),
(436,379,o),
(440,370,cs),
(572,23,ls),
(580,1,o),
(574,-10,o),
(550,-10,cs),
(538,-10,o),
(530,-5,o),
(526,6,cs),
(397,344,ls),
(393,353,o),
(387,358,o),
(377,358,cs),
(336,358,ls),
(326,358,o),
(321,353,o),
(321,343,cs),
(321,12,ls),
(321,-3,o),
(314,-10,o),
(299,-10,cs),
(284,-10,o),
(277,-3,o),
(277,12,cs),
(277,343,ls),
(277,353,o),
(272,358,o),
(262,358,cs),
(221,358,ls),
(211,358,o),
(204,353,o),
(201,344,cs)
);
}
);
width = 600;
}
);
unicode = 1046;
},
{
glyphname = "Ze-cy";
layers = (
{
layerId = "E79C6012-54E0-4B47-AAB7-371DB4DAB7F2";
shapes = (
{
closed = 1;
nodes = (
(109,696,o),
(197,740,o),
(295,740,cs),
(416,740,o),
(536,676,o),
(536,541,cs),
(536,469,o),
(495,399,o),
(421,386,c),
(505,368,o),
(556,291,o),
(556,207,cs),
(556,59,o),
(423,-10,o),
(291,-10,cs),
(191,-10,o),
(95,31,o),
(53,114,cs),
(25,168,o),
(58,210,o),
(129,210,cs),
(152,210,o),
(168,198,o),
(191,163,cs),
(211,132,o),
(252,118,o),
(291,118,cs),
(351,118,o),
(404,152,o),
(404,217,cs),
(404,288,o),
(354,316,o),
(299,316,cs),
(271,316,ls),
(229,316,o),
(209,336,o),
(209,378,cs),
(209,420,o),
(229,440,o),
(271,440,cs),
(299,440,ls),
(346,440,o),
(386,465,o),
(386,529,cs),
(386,583,o),
(345,616,o),
(293,616,cs),
(254,616,o),
(224,598,o),
(209,568,cs),
(190,531,o),
(176,520,o),
(149,520,cs),
(78,520,o),
(45,561,o),
(71,616,cs)
);
}
);
width = 600;
},
{
anchors = (
{
name = m.uni0308;
position = "{300, 730}";
},
{
name = m.uni0325_2;
position = "{300, 0}";
}
);
layerId = "921C946B-68A7-49D6-9396-60D462B577B8";
shapes = (
{
closed = 1;
nodes = (
(104,685,o),
(189,740,o),
(295,740,cs),
(409,740,o),
(511,674,o),
(511,551,cs),
(511,477,o),
(469,403,o),
(394,384,c),
(484,368,o),
(534,286,o),
(534,199,cs),
(534,61,o),
(417,-10,o),
(291,-10,cs),
(184,-10,o),
(89,43,o),
(61,141,cs),
(50,178,o),
(70,200,o),
(112,200,cs),
(131,200,o),
(140,191,o),
(145,170,cs),
(160,104,o),
(223,70,o),
(292,70,cs),
(374,70,o),
(442,118,o),
(442,205,cs),
(442,292,o),
(374,340,o),
(292,340,cs),
(246,340,ls),
(219,340,o),
(206,353,o),
(206,380,cs),
(206,407,o),
(219,420,o),
(246,420,cs),
(292,420,ls),
(350,420,o),
(421,448,o),
(421,542,cs),
(421,616,o),
(366,660,o),
(295,660,cs),
(227,660,o),
(177,622,o),
(165,560,cs),
(161,539,o),
(151,530,o),
(132,530,cs),
(90,530,o),
(69,553,o),
(79,590,cs)
);
}
);
width = 600;
},
{
layerId = "A9EA4EA3-63FD-46BE-AE35-8F493BD0E280";
shapes = (
{
closed = 1;
nodes = (
(98,670,o),
(179,740,o),
(294,740,cs),
(409,740,o),
(497,665,o),
(497,547,cs),
(497,471,o),
(453,397,o),
(376,381,c),
(463,360,o),
(517,282,o),
(517,194,cs),
(517,63,o),
(413,-10,o),
(290,-10,cs),
(176,-10,o),
(81,52,o),
(65,163,cs),
(62,184,o),
(73,196,o),
(96,196,cs),
(107,196,o),
(113,190,o),
(114,179,cs),
(122,86,o),
(198,35,o),
(290,35,cs),
(387,35,o),
(467,93,o),
(467,196,cs),
(467,299,o),
(387,356,o),
(290,356,cs),
(248,356,ls),
(233,356,o),
(225,364,o),
(225,379,cs),
(225,394,o),
(232,401,o),
(247,401,cs),
(294,401,ls),
(383,401,o),
(447,458,o),
(447,549,cs),
(447,639,o),
(382,696,o),
(294,696,cs),
(202,696,o),
(140,635,o),
(133,547,cs),
(132,536,o),
(126,530,o),
(115,530,cs),
(92,530,o),
(81,541,o),
(84,563,cs)
);
}
);
width = 600;
}
);
unicode = 1047;
},
{
glyphname = "Ii-cy";
layers = (
{
layerId = "E79C6012-54E0-4B47-AAB7-371DB4DAB7F2";
shapes = (
{
closed = 1;
nodes = (
(550,629,ls),
(550,703,o),
(513,740,o),
(439,740,cs),
(389,740,o),
(359,716,o),
(343,669,cs),
(200,240,ls),
(199,236,o),
(197,234,o),
(194,234,cs),
(191,234,o),
(190,236,o),
(190,240,cs),
(190,670,ls),
(190,717,o),
(167,740,o),
(120,740,cs),
(73,740,o),
(50,717,o),
(50,670,cs),
(50,101,ls),
(50,27,o),
(87,-10,o),
(161,-10,cs),
(211,-10,o),
(241,14,o),
(257,61,cs),
(400,490,ls),
(401,494,o),
(403,496,o),
(406,496,cs),
(409,496,o),
(410,494,o),
(410,490,cs),
(410,60,ls),
(410,13,o),
(433,-10,o),
(480,-10,cs),
(527,-10,o),
(550,13,o),
(550,60,cs)
);
}
);
width = 600;
},
{
anchors = (
{
name = m.uni0308;
position = "{300, 730}";
}
);
layerId = "921C946B-68A7-49D6-9396-60D462B577B8";
shapes = (
{
closed = 1;
nodes = (
(520,662,ls),
(520,714,o),
(494,740,o),
(442,740,cs),
(407,740,o),
(386,723,o),
(374,690,cs),
(179,150,ls),
(178,146,o),
(177,144,o),
(174,144,cs),
(171,144,o),
(170,146,o),
(170,150,cs),
(170,695,ls),
(170,725,o),
(155,740,o),
(125,740,cs),
(95,740,o),
(80,725,o),
(80,695,cs),
(80,68,ls),
(80,16,o),
(106,-10,o),
(158,-10,cs),
(193,-10,o),
(214,7,o),
(226,40,cs),
(421,580,ls),
(422,584,o),
(423,586,o),
(426,586,cs),
(429,586,o),
(430,584,o),
(430,580,cs),
(430,35,ls),
(430,5,o),
(445,-10,o),
(475,-10,cs),
(505,-10,o),
(520,5,o),
(520,35,cs)
);
}
);
width = 600;
},
{
layerId = "A9EA4EA3-63FD-46BE-AE35-8F493BD0E280";
shapes = (
{
closed = 1;
nodes = (
(490,693,ls),
(490,724,o),
(474,740,o),
(443,740,cs),
(419,740,o),
(404,729,o),
(396,707,cs),
(170,80,ls),
(169,76,o),
(167,74,o),
(164,74,cs),
(161,74,o),
(160,76,o),
(160,80,cs),
(160,715,ls),
(160,732,o),
(152,740,o),
(135,740,cs),
(118,740,o),
(110,732,o),
(110,715,cs),
(110,37,ls),
(110,6,o),
(126,-10,o),
(157,-10,cs),
(181,-10,o),
(196,1,o),
(204,23,cs),
(430,650,ls),
(431,654,o),
(433,656,o),
(436,656,cs),
(439,656,o),
(440,654,o),
(440,650,cs),
(440,15,ls),
(440,-2,o),
(448,-10,o),
(465,-10,cs),
(482,-10,o),
(490,-2,o),
(490,15,cs)
);
}
);
width = 600;
}
);
unicode = 1048;
},
{
glyphname = "El-cy";
layers = (
{
layerId = "E79C6012-54E0-4B47-AAB7-371DB4DAB7F2";
shapes = (
{
closed = 1;
nodes = (
(112,630,ls),
(113,697,o),
(147,730,o),
(214,730,cs),
(434,730,ls),
(501,730,o),
(534,697,o),
(534,630,cs),
(534,65,ls),
(534,15,o),
(509,-10,o),
(459,-10,cs),
(409,-10,o),
(384,15,o),
(384,65,cs),
(384,545,ls),
(384,579,o),
(368,595,o),
(334,595,cs),
(311,595,ls),
(277,595,o),
(261,578,o),
(260,545,cs),
(255,220,ls),
(253,90,o),
(203,18,o),
(104,-6,cs),
(48,-20,o),
(15,11,o),
(15,75,cs),
(15,101,o),
(27,115,o),
(60,126,cs),
(95,138,o),
(105,168,o),
(106,220,cs)
);
}
);
width = 600;
},
{
layerId = "921C946B-68A7-49D6-9396-60D462B577B8";
shapes = (
{
closed = 1;
nodes = (
(129,650,ls),
(130,704,o),
(156,730,o),
(210,730,cs),
(426,730,ls),
(480,730,o),
(506,704,o),
(506,650,cs),
(506,35,ls),
(506,5,o),
(491,-10,o),
(461,-10,cs),
(431,-10,o),
(416,5,o),
(416,35,cs),
(416,608,ls),
(416,635,o),
(403,648,o),
(376,648,cs),
(259,648,ls),
(232,648,o),
(218,635,o),
(218,608,cs),
(212,246,ls),
(210,120,o),
(194,12,o),
(68,-9,cs),
(37,-14,o),
(20,2,o),
(20,35,cs),
(20,57,o),
(30,68,o),
(56,76,cs),
(124,96,o),
(121,176,o),
(122,246,cs)
);
}
);
width = 600;
},
{
layerId = "A9EA4EA3-63FD-46BE-AE35-8F493BD0E280";
shapes = (
{
closed = 1;
nodes = (
(146,670,ls),
(147,710,o),
(167,730,o),
(207,730,cs),
(430,730,ls),
(470,730,o),
(490,710,o),
(490,670,cs),
(490,15,ls),
(490,-2,o),
(482,-10,o),
(465,-10,cs),
(448,-10,o),
(440,-2,o),
(440,15,cs),
(440,654,ls),
(440,674,o),
(430,684,o),
(410,684,cs),
(227,684,ls),
(207,684,o),
(197,674,o),
(197,654,cs),
(189,158,ls),
(187,52,o),
(147,-10,o),
(50,-10,cs),
(34,-10,o),
(25,-3,o),
(25,14,cs),
(25,30,o),
(33,40,o),
(50,40,cs),
(115,40,o),
(138,82,o),
(139,158,cs)
);
}
);
width = 600;
}
);
unicode = 1051;
},
{
glyphname = "Pe-cy";
layers = (
{
layerId = "E79C6012-54E0-4B47-AAB7-371DB4DAB7F2";
shapes = (
{
closed = 1;
nodes = (
(91,-10,o),
(66,15,o),
(66,65,cs),
(66,630,ls),
(66,697,o),
(99,730,o),
(166,730,cs),
(434,730,ls),
(501,730,o),
(534,697,o),
(534,630,cs),
(534,65,ls),
(534,15,o),
(509,-10,o),
(459,-10,cs),
(409,-10,o),
(384,15,o),
(384,65,cs),
(384,545,ls),
(384,579,o),
(368,595,o),
(334,595,cs),
(266,595,ls),
(232,595,o),
(216,579,o),
(216,545,cs),
(216,65,ls),
(216,15,o),
(191,-10,o),
(141,-10,cs)
);
}
);
width = 600;
},
{
layerId = "921C946B-68A7-49D6-9396-60D462B577B8";
shapes = (
{
closed = 1;
nodes = (
(109,-10,o),
(94,5,o),
(94,35,cs),
(94,650,ls),
(94,704,o),
(120,730,o),
(174,730,cs),
(426,730,ls),
(480,730,o),
(506,704,o),
(506,650,cs),
(506,35,ls),
(506,5,o),
(491,-10,o),
(461,-10,cs),
(431,-10,o),
(416,5,o),
(416,35,cs),
(416,608,ls),
(416,635,o),
(403,648,o),
(376,648,cs),
(224,648,ls),
(197,648,o),
(184,635,o),
(184,608,cs),
(184,35,ls),
(184,5,o),
(169,-10,o),
(139,-10,cs)
);
}
);
width = 600;
},
{
layerId = "A9EA4EA3-63FD-46BE-AE35-8F493BD0E280";
shapes = (
{
closed = 1;
nodes = (
(118,-10,o),
(110,-2,o),
(110,15,cs),
(110,670,ls),
(110,710,o),
(130,730,o),
(170,730,cs),
(430,730,ls),
(470,730,o),
(490,710,o),
(490,670,cs),
(490,15,ls),
(490,-2,o),
(482,-10,o),
(465,-10,cs),
(448,-10,o),
(440,-2,o),
(440,15,cs),
(440,655,ls),
(440,675,o),
(430,685,o),
(410,685,cs),
(190,685,ls),
(170,685,o),
(160,675,o),
(160,655,cs),
(160,15,ls),
(160,-2,o),
(152,-10,o),
(135,-10,cs)
);
}
);
width = 600;
}
);
unicode = 1055;
},
{
glyphname = "U-cy";
layers = (
{
anchors = (
{
name = top;
position = "{300, 730}";
}
);
layerId = "E79C6012-54E0-4B47-AAB7-371DB4DAB7F2";
shapes = (
{
closed = 1;
nodes = (
(199,-10,o),
(174,12,o),
(197,83,cs),
(224,165,ls),
(229,181,o),
(230,195,o),
(224,211,cs),
(61,647,ls),
(37,710,o),
(58,740,o),
(125,740,cs),
(164,740,o),
(190,734,o),
(203,693,cs),
(299,391,ls),
(304,375,o),
(309,375,o),
(314,391,cs),
(403,692,ls),
(414,730,o),
(438,740,o),
(475,740,cs),
(542,740,o),
(563,709,o),
(542,646,cs),
(335,37,ls),
(324,5,o),
(301,-10,o),
(268,-10,cs)
);
}
);
width = 600;
},
{
anchors = (
{
name = top;
position = "{300, 730}";
}
);
layerId = "921C946B-68A7-49D6-9396-60D462B577B8";
shapes = (
{
closed = 1;
nodes = (
(212,-10,o),
(199,10,o),
(214,50,cs),
(258,170,ls),
(262,182,o),
(263,196,o),
(258,208,cs),
(74,679,ls),
(58,720,o),
(71,740,o),
(115,740,cs),
(137,740,o),
(152,730,o),
(159,709,cs),
(302,307,ls),
(307,294,o),
(311,294,o),
(315,307,cs),
(442,709,ls),
(449,730,o),
(463,740,o),
(485,740,cs),
(529,740,o),
(542,720,o),
(528,679,cs),
(298,20,ls),
(291,0,o),
(276,-10,o),
(255,-10,cs)
);
}
);
width = 600;
},
{
anchors = (
{
name = top;
position = "{300, 730}";
}
);
layerId = "A9EA4EA3-63FD-46BE-AE35-8F493BD0E280";
shapes = (
{
closed = 1;
nodes = (
(222,-10,o),
(214,1,o),
(223,25,cs),
(279,177,ls),
(282,186,o),
(282,196,o),
(278,205,cs),
(82,705,ls),
(73,729,o),
(81,740,o),
(106,740,cs),
(119,740,o),
(127,734,o),
(132,722,cs),
(303,269,ls),
(306,260,o),
(310,260,o),
(313,269,cs),
(472,723,ls),
(476,734,o),
(484,740,o),
(496,740,cs),
(520,740,o),
(528,729,o),
(520,706,cs),
(273,8,ls),
(269,-4,o),
(260,-10,o),
(247,-10,cs)
);
}
);
width = 600;
}
);
unicode = 1059;
},
{
glyphname = "Ef-cy";
layers = (
{
layerId = "E79C6012-54E0-4B47-AAB7-371DB4DAB7F2";
shapes = (
{
closed = 1;
nodes = (
(249,-25,o),
(225,-5,o),
(225,48,cs),
(225,55,l),
(115,59,o),
(45,145,o),
(26,274,cs),
(16,341,o),
(16,409,o),
(26,476,cs),
(45,606,o),
(115,691,o),
(225,695,c),
(225,697,ls),
(225,750,o),
(249,770,o),
(300,770,cs),
(349,770,o),
(375,746,o),
(375,697,cs),
(375,695,l),
(485,691,o),
(555,605,o),
(574,476,cs),
(584,409,o),
(584,341,o),
(574,274,cs),
(555,145,o),
(485,59,o),
(375,55,c),
(375,48,ls),
(375,-1,o),
(349,-25,o),
(300,-25,cs)
);
},
{
closed = 1;
nodes = (
(243,580,l),
(196,580,o),
(160,539,o),
(151,476,cs),
(141,409,o),
(141,341,o),
(151,274,cs),
(160,212,o),
(196,171,o),
(243,171,c)
);
},
{
closed = 1;
nodes = (
(357,171,l),
(404,171,o),
(440,212,o),
(449,274,cs),
(459,341,o),
(459,409,o),
(449,476,cs),
(440,539,o),
(404,580,o),
(357,580,c)
);
}
);
width = 600;
},
{
layerId = "921C946B-68A7-49D6-9396-60D462B577B8";
shapes = (
{
closed = 1;
nodes = (
(270,-25,o),
(255,-10,o),
(255,20,cs),
(255,55,l),
(145,55,o),
(63,138,o),
(46,263,cs),
(36,335,o),
(36,410,o),
(46,482,cs),
(64,610,o),
(144,695,o),
(255,695,c),
(255,725,ls),
(255,755,o),
(270,770,o),
(300,770,cs),
(330,770,o),
(345,755,o),
(345,725,cs),
(345,695,l),
(456,695,o),
(536,610,o),
(554,482,cs),
(564,410,o),
(564,335,o),
(554,263,cs),
(537,138,o),
(455,55,o),
(345,55,c),
(345,20,ls),
(345,-10,o),
(330,-25,o),
(300,-25,cs)
);
},
{
closed = 1;
nodes = (
(259,619,l),
(194,619,o),
(142,566,o),
(130,482,cs),
(120,410,o),
(120,335,o),
(130,263,cs),
(141,182,o),
(194,131,o),
(259,131,c)
);
},
{
closed = 1;
nodes = (
(341,131,l),
(406,131,o),
(459,182,o),
(470,263,cs),
(480,335,o),
(480,410,o),
(470,482,cs),
(458,566,o),
(406,619,o),
(341,619,c)
);
}
);
width = 600;
},
{
layerId = "A9EA4EA3-63FD-46BE-AE35-8F493BD0E280";
shapes = (
{
closed = 1;
nodes = (
(283,-25,o),
(275,-17,o),
(275,0,cs),
(275,55,l),
(156,55,o),
(76,133,o),
(60,257,cs),
(50,336,o),
(50,417,o),
(60,496,cs),
(75,618,o),
(155,695,o),
(275,695,c),
(275,745,ls),
(275,762,o),
(283,770,o),
(300,770,cs),
(317,770,o),
(325,762,o),
(325,745,cs),
(325,695,l),
(445,695,o),
(525,617,o),
(540,496,cs),
(550,417,o),
(550,336,o),
(540,257,cs),
(524,134,o),
(444,55,o),
(325,55,c),
(325,0,ls),
(325,-17,o),
(317,-25,o),
(300,-25,cs)
);
},
{
closed = 1;
nodes = (
(275,651,l),
(191,651,o),
(121,585,o),
(110,496,cs),
(100,417,o),
(100,336,o),
(110,257,cs),
(121,166,o),
(192,100,o),
(275,100,c)
);
},
{
closed = 1;
nodes = (
(325,100,l),
(408,100,o),
(479,167,o),
(490,257,cs),
(500,336,o),
(500,417,o),
(490,496,cs),
(479,584,o),
(409,651,o),
(325,651,c)
);
}
);
width = 600;
}
);
unicode = 1060;
},
{
glyphname = "Che-cy";
layers = (
{
layerId = "E79C6012-54E0-4B47-AAB7-371DB4DAB7F2";
shapes = (
{
closed = 1;
nodes = (
(380,225,ls),
(380,242,o),
(372,250,o),
(355,250,cs),
(270,250,ls),
(165,250,o),
(50,355,o),
(50,450,qs),
(50,665,ls),
(50,715,o),
(75,740,o),
(125,740,cs),
(175,740,o),
(200,715,o),
(200,665,cs),
(200,460,ls),
(200,426,o),
(248,385,o),
(289,385,qs),
(355,385,ls),
(372,385,o),
(380,393,o),
(380,410,cs),
(380,665,ls),
(380,715,o),
(405,740,o),
(455,740,cs),
(505,740,o),
(530,715,o),
(530,665,cs),
(530,65,ls),
(530,15,o),
(505,-10,o),
(455,-10,cs),
(405,-10,o),
(380,15,o),
(380,65,cs)
);
}
);
width = 600;
},
{
anchors = (
{
name = m.uni0308;
position = "{300, 730}";
}
);
layerId = "921C946B-68A7-49D6-9396-60D462B577B8";
shapes = (
{
closed = 1;
nodes = (
(415,251,ls),
(415,264,o),
(408,271,o),
(395,271,cs),
(275,271,ls),
(181,271,o),
(75,367,o),
(75,451,qs),
(75,695,ls),
(75,725,o),
(90,740,o),
(120,740,cs),
(150,740,o),
(165,725,o),
(165,695,cs),
(165,451,ls),
(165,403,o),
(228,351,o),
(285,351,qs),
(395,351,ls),
(408,351,o),
(415,358,o),
(415,371,cs),
(415,695,ls),
(415,725,o),
(430,740,o),
(460,740,cs),
(490,740,o),
(505,725,o),
(505,695,cs),
(505,35,ls),
(505,5,o),
(490,-10,o),
(460,-10,cs),
(430,-10,o),
(415,5,o),
(415,35,cs)
);
}
);
width = 600;
},
{
layerId = "A9EA4EA3-63FD-46BE-AE35-8F493BD0E280";
shapes = (
{
closed = 1;
nodes = (
(441,274,ls),
(441,284,o),
(436,289,o),
(426,289,cs),
(300,289,ls),
(197,289,o),
(90,385,o),
(90,479,qs),
(90,715,ls),
(90,732,o),
(98,740,o),
(115,740,cs),
(132,740,o),
(140,732,o),
(140,715,cs),
(140,479,ls),
(140,408,o),
(221,334,o),
(300,334,qs),
(425,334,ls),
(435,334,o),
(440,339,o),
(440,349,cs),
(440,715,ls),
(440,732,o),
(448,740,o),
(465,740,cs),
(482,740,o),
(490,732,o),
(490,715,cs),
(490,15,ls),
(490,-2,o),
(482,-10,o),
(465,-10,cs),
(448,-10,o),
(440,-2,o),
(440,15,cs)
);
}
);
width = 600;
}
);
unicode = 1063;
},
{
glyphname = "Tse-cy";
layers = (
{
layerId = "E79C6012-54E0-4B47-AAB7-371DB4DAB7F2";
shapes = (
{
closed = 1;
nodes = (
(578,-70,ls),
(578,-117,o),
(555,-140,o),
(508,-140,cs),
(461,-140,o),
(438,-117,o),
(438,-70,cs),
(438,-40,ls),
(438,-13,o),
(425,0,o),
(398,0,cs),
(166,0,ls),
(99,0,o),
(66,33,o),
(66,100,cs),
(66,665,ls),
(66,715,o),
(91,740,o),
(141,740,cs),
(191,740,o),
(216,715,o),
(216,665,cs),
(216,160,ls),
(216,143,o),
(224,135,o),
(241,135,cs),
(328,135,ls),
(345,135,o),
(353,143,o),
(353,160,cs),
(353,665,ls),
(353,715,o),
(378,740,o),
(428,740,cs),
(478,740,o),
(503,715,o),
(503,665,cs),
(503,138,ls),
(503,136,o),
(504,135,o),
(506,135,cs),
(554,135,o),
(578,111,o),
(578,63,cs)
);
}
);
width = 600;
},
{
layerId = "921C946B-68A7-49D6-9396-60D462B577B8";
shapes = (
{
closed = 1;
nodes = (
(565,-100,ls),
(565,-127,o),
(552,-140,o),
(525,-140,cs),
(498,-140,o),
(485,-127,o),
(485,-100,cs),
(485,-40,ls),
(485,-13,o),
(472,0,o),
(445,0,cs),
(174,0,ls),
(120,0,o),
(94,26,o),
(94,80,cs),
(94,695,ls),
(94,725,o),
(109,740,o),
(139,740,cs),
(169,740,o),
(184,725,o),
(184,695,cs),
(184,100,ls),
(184,87,o),
(191,80,o),
(204,80,cs),
(380,80,ls),
(393,80,o),
(400,87,o),
(400,100,cs),
(400,695,ls),
(400,725,o),
(415,740,o),
(445,740,cs),
(475,740,o),
(490,725,o),
(490,695,cs),
(490,95,ls),
(490,85,o),
(495,80,o),
(505,80,cs),
(545,80,o),
(565,60,o),
(565,20,cs)
);
}
);
width = 600;
},
{
layerId = "A9EA4EA3-63FD-46BE-AE35-8F493BD0E280";
shapes = (
{
closed = 1;
nodes = (
(550,-115,ls),
(550,-132,o),
(542,-140,o),
(525,-140,cs),
(508,-140,o),
(500,-132,o),
(500,-115,cs),
(500,-30,ls),
(500,-10,o),
(490,0,o),
(470,0,cs),
(170,0,ls),
(130,0,o),
(110,20,o),
(110,60,cs),
(110,715,ls),
(110,732,o),
(118,740,o),
(135,740,cs),
(152,740,o),
(160,732,o),
(160,715,cs),
(160,60,ls),
(160,50,o),
(165,45,o),
(175,45,cs),
(408,45,ls),
(418,45,o),
(423,50,o),
(423,60,cs),
(423,715,ls),
(423,732,o),
(431,740,o),
(448,740,cs),
(465,740,o),
(473,732,o),
(473,715,cs),
(473,60,ls),
(473,48,o),
(479,45,o),
(490,45,cs),
(530,45,o),
(550,25,o),
(550,-15,cs)
);
}
);
width = 600;
}
);
unicode = 1062;
},
{
glyphname = "Sha-cy";
layers = (
{
layerId = "E79C6012-54E0-4B47-AAB7-371DB4DAB7F2";
shapes = (
{
closed = 1;
nodes = (
(138,0,ls),
(71,0,o),
(38,33,o),
(38,100,cs),
(38,676,ls),
(38,719,o),
(60,740,o),
(103,740,cs),
(146,740,o),
(167,718,o),
(167,675,cs),
(167,157,ls),
(167,132,o),
(178,120,o),
(203,120,cs),
(204,120,ls),
(229,120,o),
(241,132,o),
(241,157,cs),
(241,681,ls),
(241,721,o),
(260,740,o),
(300,740,cs),
(340,740,o),
(359,721,o),
(359,681,cs),
(359,157,ls),
(359,132,o),
(370,120,o),
(395,120,cs),
(396,120,ls),
(421,120,o),
(433,132,o),
(433,157,cs),
(433,675,ls),
(433,718,o),
(455,740,o),
(498,740,cs),
(541,740,o),
(562,719,o),
(562,676,cs),
(562,100,ls),
(562,33,o),
(529,0,o),
(462,0,cs)
);
}
);
width = 600;
},
{
layerId = "921C946B-68A7-49D6-9396-60D462B577B8";
shapes = (
{
closed = 1;
nodes = (
(142,0,ls),
(88,0,o),
(62,26,o),
(62,80,cs),
(60,697,ls),
(60,725,o),
(75,740,o),
(103,740,cs),
(131,740,o),
(145,726,o),
(145,698,cs),
(145,118,ls),
(145,91,o),
(158,78,o),
(185,78,cs),
(224,78,ls),
(251,78,o),
(264,91,o),
(264,118,cs),
(264,703,ls),
(264,728,o),
(276,740,o),
(301,740,cs),
(326,740,o),
(338,728,o),
(338,703,cs),
(338,118,ls),
(338,91,o),
(351,78,o),
(378,78,cs),
(416,78,ls),
(443,78,o),
(456,91,o),
(456,118,cs),
(456,698,ls),
(456,726,o),
(470,740,o),
(498,740,cs),
(526,740,o),
(540,726,o),
(540,698,cs),
(540,80,ls),
(540,26,o),
(514,0,o),
(460,0,cs)
);
}
);
width = 600;
},
{
layerId = "A9EA4EA3-63FD-46BE-AE35-8F493BD0E280";
shapes = (
{
closed = 1;
nodes = (
(135,0,ls),
(95,0,o),
(75,20,o),
(75,60,cs),
(75,716,ls),
(75,732,o),
(83,740,o),
(99,740,cs),
(115,740,o),
(123,732,o),
(123,716,cs),
(123,73,ls),
(123,53,o),
(133,43,o),
(153,43,cs),
(246,43,ls),
(266,43,o),
(276,53,o),
(276,73,cs),
(276,716,ls),
(276,732,o),
(284,740,o),
(300,740,cs),
(316,740,o),
(324,732,o),
(324,716,cs),
(324,73,ls),
(324,53,o),
(334,43,o),
(354,43,cs),
(447,43,ls),
(467,43,o),
(477,53,o),
(477,73,cs),
(477,716,ls),
(477,732,o),
(485,740,o),
(501,740,cs),
(517,740,o),
(525,732,o),
(525,716,cs),
(525,60,ls),
(525,20,o),
(505,0,o),
(465,0,cs)
);
}
);
width = 600;
}
);
unicode = 1064;
},
{
glyphname = "Shcha-cy";
layers = (
{
layerId = "E79C6012-54E0-4B47-AAB7-371DB4DAB7F2";
shapes = (
{
closed = 1;
nodes = (
(491,-140,o),
(470,-119,o),
(470,-75,cs),
(470,-50,ls),
(470,-17,o),
(453,0,o),
(420,0,cs),
(138,0,ls),
(71,0,o),
(38,33,o),
(38,100,cs),
(38,680,ls),
(38,720,o),
(58,740,o),
(98,740,cs),
(138,740,o),
(158,720,o),
(158,680,cs),
(158,145,ls),
(158,128,o),
(166,120,o),
(183,120,cs),
(208,120,ls),
(225,120,o),
(233,128,o),
(233,145,cs),
(233,690,ls),
(233,723,o),
(249,740,o),
(283,740,cs),
(317,740,o),
(333,723,o),
(333,690,cs),
(333,145,ls),
(333,128,o),
(341,120,o),
(358,120,cs),
(383,120,ls),
(400,120,o),
(408,128,o),
(408,145,cs),
(408,680,ls),
(408,720,o),
(428,740,o),
(468,740,cs),
(508,740,o),
(528,720,o),
(528,680,cs),
(528,123,ls),
(528,121,o),
(529,120,o),
(531,120,cs),
(577,120,o),
(600,97,o),
(600,51,cs),
(600,-75,ls),
(600,-119,o),
(579,-140,o),
(535,-140,cs)
);
}
);
width = 600;
},
{
layerId = "921C946B-68A7-49D6-9396-60D462B577B8";
shapes = (
{
closed = 1;
nodes = (
(528,-140,o),
(515,-127,o),
(515,-100,cs),
(515,-40,ls),
(515,-13,o),
(502,0,o),
(475,0,cs),
(140,0,ls),
(86,0,o),
(60,26,o),
(60,80,cs),
(60,700,ls),
(60,727,o),
(74,740,o),
(101,740,cs),
(128,740,o),
(141,727,o),
(141,700,cs),
(141,98,ls),
(141,85,o),
(148,78,o),
(161,78,cs),
(241,78,ls),
(254,78,o),
(261,85,o),
(261,98,cs),
(261,705,ls),
(261,728,o),
(273,740,o),
(296,740,cs),
(319,740,o),
(331,728,o),
(331,705,cs),
(331,98,ls),
(331,85,o),
(338,78,o),
(351,78,cs),
(431,78,ls),
(444,78,o),
(451,85,o),
(451,98,cs),
(451,700,ls),
(451,727,o),
(465,740,o),
(492,740,cs),
(519,740,o),
(532,727,o),
(532,700,cs),
(532,91,ls),
(532,83,o),
(537,78,o),
(545,78,cs),
(579,78,o),
(595,62,o),
(595,28,cs),
(595,-100,ls),
(595,-127,o),
(582,-140,o),
(555,-140,cs)
);
}
);
width = 600;
},
{
layerId = "A9EA4EA3-63FD-46BE-AE35-8F493BD0E280";
shapes = (
{
closed = 1;
nodes = (
(543,-140,o),
(535,-132,o),
(535,-115,cs),
(535,-30,ls),
(535,-10,o),
(525,0,o),
(505,0,cs),
(135,0,ls),
(95,0,o),
(75,20,o),
(75,60,cs),
(75,716,ls),
(75,732,o),
(83,740,o),
(99,740,cs),
(115,740,o),
(123,732,o),
(123,716,cs),
(123,58,ls),
(123,48,o),
(128,43,o),
(138,43,cs),
(258,43,ls),
(268,43,o),
(273,48,o),
(273,58,cs),
(273,716,ls),
(273,732,o),
(281,740,o),
(297,740,cs),
(313,740,o),
(321,732,o),
(321,716,cs),
(321,58,ls),
(321,48,o),
(326,43,o),
(336,43,cs),
(456,43,ls),
(466,43,o),
(471,48,o),
(471,58,cs),
(471,716,ls),
(471,732,o),
(479,740,o),
(495,740,cs),
(511,740,o),
(519,732,o),
(519,716,cs),
(519,56,ls),
(519,47,o),
(523,43,o),
(532,43,cs),
(567,43,o),
(585,25,o),
(585,-10,cs),
(585,-115,ls),
(585,-132,o),
(577,-140,o),
(560,-140,cs)
);
}
);
width = 600;
}
);
unicode = 1065;
},
{
glyphname = "Dzhe-cy";
layers = (
{
layerId = "E79C6012-54E0-4B47-AAB7-371DB4DAB7F2";
shapes = (
{
closed = 1;
nodes = (
(225,-25,ls),
(225,-8,o),
(217,0,o),
(200,0,cs),
(166,0,ls),
(99,0,o),
(66,33,o),
(66,100,cs),
(66,665,ls),
(66,715,o),
(91,740,o),
(141,740,cs),
(191,740,o),
(216,715,o),
(216,665,cs),
(216,190,ls),
(216,156,o),
(232,140,o),
(266,140,cs),
(334,140,ls),
(368,140,o),
(384,156,o),
(384,190,cs),
(384,665,ls),
(384,715,o),
(409,740,o),
(459,740,cs),
(509,740,o),
(534,715,o),
(534,665,cs),
(534,100,ls),
(534,33,o),
(501,0,o),
(434,0,cs),
(400,0,ls),
(383,0,o),
(375,-8,o),
(375,-25,cs),
(375,-50,ls),
(375,-100,o),
(350,-125,o),
(300,-125,cs),
(250,-125,o),
(225,-100,o),
(225,-50,cs)
);
}
);
width = 600;
},
{
layerId = "921C946B-68A7-49D6-9396-60D462B577B8";
shapes = (
{
closed = 1;
nodes = (
(255,-20,ls),
(255,-7,o),
(248,0,o),
(235,0,cs),
(172,0,ls),
(118,0,o),
(92,26,o),
(92,80,cs),
(92,695,ls),
(92,725,o),
(107,740,o),
(137,740,cs),
(167,740,o),
(182,725,o),
(182,695,cs),
(182,122,ls),
(182,95,o),
(195,82,o),
(222,82,cs),
(378,82,ls),
(405,82,o),
(418,95,o),
(418,122,cs),
(418,695,ls),
(418,725,o),
(433,740,o),
(463,740,cs),
(493,740,o),
(508,725,o),
(508,695,cs),
(508,80,ls),
(508,26,o),
(482,0,o),
(428,0,cs),
(365,0,ls),
(352,0,o),
(345,-7,o),
(345,-20,cs),
(345,-80,ls),
(345,-110,o),
(330,-125,o),
(300,-125,cs),
(270,-125,o),
(255,-110,o),
(255,-80,cs)
);
}
);
width = 600;
},
{
layerId = "A9EA4EA3-63FD-46BE-AE35-8F493BD0E280";
shapes = (
{
closed = 1;
nodes = (
(273,-15,ls),
(273,-5,o),
(268,0,o),
(258,0,cs),
(170,0,ls),
(130,0,o),
(110,20,o),
(110,60,cs),
(110,712,ls),
(110,730,o),
(120,740,o),
(138,740,cs),
(156,740,o),
(165,730,o),
(165,712,cs),
(165,80,ls),
(165,60,o),
(175,50,o),
(195,50,cs),
(405,50,ls),
(425,50,o),
(435,60,o),
(435,80,cs),
(435,712,ls),
(435,730,o),
(445,740,o),
(463,740,cs),
(481,740,o),
(490,730,o),
(490,712,cs),
(490,60,ls),
(490,20,o),
(470,0,o),
(430,0,cs),
(343,0,ls),
(333,0,o),
(328,-5,o),
(328,-15,cs),
(328,-97,ls),
(328,-115,o),
(319,-125,o),
(301,-125,cs),
(283,-125,o),
(273,-115,o),
(273,-97,cs)
);
}
);
width = 600;
}
);
unicode = 1039;
},
{
glyphname = "Softsign-cy";
layers = (
{
layerId = "E79C6012-54E0-4B47-AAB7-371DB4DAB7F2";
shapes = (
{
closed = 1;
nodes = (
(66,665,ls),
(66,715,o),
(90,740,o),
(140,740,cs),
(190,740,o),
(216,715,o),
(216,665,cs),
(216,469,ls),
(216,452,o),
(224,444,o),
(241,444,cs),
(315,444,ls),
(392,444,o),
(506,386,o),
(570,291,o),
(570,222,qs),
(570,152,o),
(507,58,o),
(392,0,o),
(315,0,qs),
(166,0,ls),
(99,0,o),
(66,33,o),
(66,100,cs)
);
},
{
closed = 1;
nodes = (
(216,180,ls),
(216,147,o),
(233,130,o),
(266,130,cs),
(315,130,ls),
(363,130,o),
(420,178,o),
(420,222,qs),
(420,266,o),
(363,314,o),
(315,314,qs),
(241,314,ls),
(224,314,o),
(216,306,o),
(216,289,cs)
);
}
);
width = 600;
},
{
layerId = "921C946B-68A7-49D6-9396-60D462B577B8";
shapes = (
{
closed = 1;
nodes = (
(92,695,ls),
(92,725,o),
(107,740,o),
(137,740,cs),
(167,740,o),
(182,725,o),
(182,695,cs),
(182,435,ls),
(182,418,o),
(190,410,o),
(207,410,cs),
(327,410,ls),
(395,410,o),
(495,357,o),
(550,270,o),
(550,205,qs),
(550,139,o),
(495,53,o),
(395,0,o),
(327,0,qs),
(172,0,ls),
(118,0,o),
(92,26,o),
(92,80,cs)
);
},
{
closed = 1;
nodes = (
(182,130,ls),
(182,103,o),
(195,90,o),
(222,90,cs),
(327,90,ls),
(386,90,o),
(457,152,o),
(457,205,qs),
(457,257,o),
(386,320,o),
(327,320,qs),
(207,320,ls),
(190,320,o),
(182,312,o),
(182,295,cs)
);
}
);
width = 600;
},
{
layerId = "A9EA4EA3-63FD-46BE-AE35-8F493BD0E280";
shapes = (
{
closed = 1;
nodes = (
(110,715,ls),
(110,732,o),
(118,740,o),
(135,740,cs),
(152,740,o),
(160,732,o),
(160,715,cs),
(160,406,ls),
(160,393,o),
(167,386,o),
(180,386,cs),
(325,386,ls),
(389,386,o),
(483,336,o),
(535,254,o),
(535,193,qs),
(535,131,o),
(483,50,o),
(389,0,o),
(325,0,qs),
(170,0,ls),
(130,0,o),
(110,20,o),
(110,60,cs)
);
},
{
closed = 1;
nodes = (
(160,80,ls),
(160,60,o),
(170,50,o),
(190,50,cs),
(325,50,ls),
(399,50,o),
(485,124,o),
(485,193,qs),
(485,261,o),
(398,336,o),
(325,336,qs),
(180,336,ls),
(167,336,o),
(160,329,o),
(160,316,cs)
);
}
);
width = 600;
}
);
unicode = 1068;
},
{
glyphname = "Yeru-cy";
layers = (
{
anchors = (
{
name = top;
position = "{300, 730}";
}
);
layerId = "E79C6012-54E0-4B47-AAB7-371DB4DAB7F2";
shapes = (
{
closed = 1;
nodes = (
(197,445,ls),
(314,445,o),
(375,371,o),
(387,252,cs),
(389,232,o),
(389,211,o),
(387,191,cs),
(375,74,o),
(314,0,o),
(197,0,cs),
(138,0,ls),
(71,0,o),
(38,33,o),
(38,100,cs),
(38,676,ls),
(38,719,o),
(60,740,o),
(103,740,cs),
(146,740,o),
(167,718,o),
(167,675,cs),
(167,470,ls),
(167,453,o),
(175,445,o),
(192,445,cs)
);
},
{
closed = 1;
nodes = (
(167,165,ls),
(167,133,o),
(184,116,o),
(209,116,cs),
(217,116,ls),
(250,116,o),
(263,151,o),
(267,191,cs),
(269,211,o),
(269,232,o),
(267,252,cs),
(262,302,o),
(241,330,o),
(197,330,cs),
(192,330,ls),
(175,330,o),
(167,322,o),
(167,305,cs)
);
},
{
closed = 1;
nodes = (
(455,-10,o),
(433,11,o),
(433,54,cs),
(433,676,ls),
(433,719,o),
(455,740,o),
(498,740,cs),
(541,740,o),
(562,719,o),
(562,676,cs),
(562,54,ls),
(562,11,o),
(541,-10,o),
(498,-10,cs)
);
}
);
width = 600;
},
{
anchors = (
{
name = top;
position = "{300, 730}";
}
);
layerId = "921C946B-68A7-49D6-9396-60D462B577B8";
shapes = (
{
closed = 1;
nodes = (
(190,430,ls),
(310,430,o),
(379,357,o),
(386,240,cs),
(387,223,o),
(387,206,o),
(386,189,cs),
(379,73,o),
(310,0,o),
(190,0,cs),
(140,0,ls),
(86,0,o),
(60,26,o),
(60,80,cs),
(60,698,ls),
(60,726,o),
(74,740,o),
(102,740,cs),
(130,740,o),
(144,726,o),
(144,698,cs),
(144,450,ls),
(144,437,o),
(151,430,o),
(164,430,cs)
);
},
{
closed = 1;
nodes = (
(144,119,ls),
(144,92,o),
(157,79,o),
(184,79,cs),
(190,79,ls),
(258,79,o),
(298,122,o),
(302,190,cs),
(303,207,o),
(303,224,o),
(302,240,cs),
(298,308,o),
(258,351,o),
(190,351,cs),
(164,351,ls),
(151,351,o),
(144,344,o),
(144,331,cs)
);
},
{
closed = 1;
nodes = (
(470,-10,o),
(456,4,o),
(456,32,cs),
(456,698,ls),
(456,726,o),
(470,740,o),
(498,740,cs),
(526,740,o),
(540,726,o),
(540,698,cs),
(540,32,ls),
(540,4,o),
(526,-10,o),
(498,-10,cs)
);
}
);
width = 600;
},
{
anchors = (
{
name = top;
position = "{300, 730}";
}
);
layerId = "A9EA4EA3-63FD-46BE-AE35-8F493BD0E280";
shapes = (
{
closed = 1;
nodes = (
(190,420,ls),
(309,420,o),
(376,345,o),
(385,230,cs),
(386,217,o),
(386,203,o),
(385,190,cs),
(376,75,o),
(309,0,o),
(190,0,cs),
(135,0,ls),
(95,0,o),
(75,20,o),
(75,60,cs),
(75,715,ls),
(75,732,o),
(83,740,o),
(100,740,cs),
(117,740,o),
(125,732,o),
(125,715,cs),
(125,435,ls),
(125,425,o),
(130,420,o),
(140,420,cs)
);
},
{
closed = 1;
nodes = (
(125,75,ls),
(125,55,o),
(135,45,o),
(155,45,cs),
(190,45,ls),
(280,45,o),
(328,100,o),
(335,190,cs),
(336,203,o),
(336,217,o),
(335,230,cs),
(328,320,o),
(280,375,o),
(190,375,cs),
(140,375,ls),
(130,375,o),
(125,370,o),
(125,360,cs)
);
},
{
closed = 1;
nodes = (
(483,-10,o),
(475,-2,o),
(475,15,cs),
(475,715,ls),
(475,732,o),
(483,740,o),
(500,740,cs),
(517,740,o),
(525,732,o),
(525,715,cs),
(525,15,ls),
(525,-2,o),
(517,-10,o),
(500,-10,cs)
);
}
);
width = 600;
}
);
unicode = 1067;
},
{
glyphname = "Hardsign-cy";
layers = (
{
anchors = (
{
name = top;
position = "{300, 730}";
}
);
layerId = "E79C6012-54E0-4B47-AAB7-371DB4DAB7F2";
shapes = (
{
closed = 1;
nodes = (
(310,445,ls),
(468,445,o),
(570,358,o),
(570,223,cs),
(570,88,o),
(468,0,o),
(310,0,cs),
(210,0,ls),
(143,0,o),
(110,33,o),
(110,100,cs),
(110,560,ls),
(110,593,o),
(94,610,o),
(60,610,cs),
(55,610,ls),
(15,610,o),
(-5,630,o),
(-5,670,cs),
(-5,710,o),
(15,730,o),
(55,730,cs),
(160,730,ls),
(227,730,o),
(260,697,o),
(260,630,cs),
(260,470,ls),
(260,453,o),
(268,445,o),
(285,445,cs)
);
},
{
closed = 1;
nodes = (
(260,180,ls),
(260,147,o),
(277,130,o),
(310,130,cs),
(311,130,ls),
(378,130,o),
(420,166,o),
(420,222,cs),
(420,279,o),
(377,315,o),
(310,315,cs),
(285,315,ls),
(268,315,o),
(260,307,o),
(260,290,cs)
);
}
);
width = 600;
},
{
anchors = (
{
name = top;
position = "{300, 730}";
}
);
layerId = "921C946B-68A7-49D6-9396-60D462B577B8";
shapes = (
{
closed = 1;
nodes = (
(330,430,ls),
(461,430,o),
(550,344,o),
(550,215,cs),
(550,87,o),
(461,0,o),
(330,0,cs),
(215,0,ls),
(161,0,o),
(135,26,o),
(135,80,cs),
(135,608,ls),
(135,635,o),
(122,648,o),
(95,648,cs),
(36,648,ls),
(9,648,o),
(-5,662,o),
(-5,689,cs),
(-5,716,o),
(9,730,o),
(36,730,cs),
(145,730,ls),
(199,730,o),
(225,704,o),
(225,650,cs),
(225,450,ls),
(225,437,o),
(232,430,o),
(245,430,cs)
);
},
{
closed = 1;
nodes = (
(225,122,ls),
(225,95,o),
(238,82,o),
(265,82,cs),
(325,82,ls),
(404,82,o),
(457,135,o),
(457,215,cs),
(457,295,o),
(404,348,o),
(325,348,cs),
(245,348,ls),
(232,348,o),
(225,341,o),
(225,328,cs)
);
}
);
width = 600;
},
{
anchors = (
{
name = top;
position = "{300, 730}";
}
);
layerId = "A9EA4EA3-63FD-46BE-AE35-8F493BD0E280";
shapes = (
{
closed = 1;
nodes = (
(310,420,ls),
(441,420,o),
(525,338,o),
(525,210,cs),
(525,82,o),
(441,0,o),
(310,0,cs),
(200,0,ls),
(160,0,o),
(140,20,o),
(140,60,cs),
(140,650,ls),
(140,670,o),
(130,680,o),
(110,680,cs),
(35,680,ls),
(18,680,o),
(10,688,o),
(10,705,cs),
(10,722,o),
(18,730,o),
(35,730,cs),
(130,730,ls),
(170,730,o),
(190,710,o),
(190,670,cs),
(190,436,ls),
(190,425,o),
(195,420,o),
(206,420,cs)
);
},
{
closed = 1;
nodes = (
(190,75,ls),
(190,55,o),
(200,45,o),
(220,45,cs),
(310,45,ls),
(410,45,o),
(474,110,o),
(474,210,cs),
(474,310,o),
(410,375,o),
(310,375,cs),
(206,375,ls),
(195,375,o),
(190,370,o),
(190,359,cs)
);
}
);
width = 600;
}
);
unicode = 1066;
},
{
glyphname = "Lje-cy";
layers = (
{
layerId = "E79C6012-54E0-4B47-AAB7-371DB4DAB7F2";
shapes = (
{
closed = 1;
nodes = (
(195,220,ls),
(193,90,o),
(153,18,o),
(54,-6,cs),
(-2,-20,o),
(-35,11,o),
(-35,75,cs),
(-35,101,o),
(-13,115,o),
(20,126,cs),
(55,138,o),
(55,168,o),
(56,220,cs),
(65,630,ls),
(66,697,o),
(100,730,o),
(167,730,cs),
(284,730,ls),
(351,730,o),
(384,697,o),
(384,630,cs),
(384,470,ls),
(384,454,o),
(392,444,o),
(409,444,cs),
(413,444,ls),
(516,444,o),
(581,369,o),
(590,259,cs),
(592,235,o),
(592,209,o),
(590,185,cs),
(580,69,o),
(508,0,o),
(391,0,cs),
(366,0,ls),
(299,0,o),
(266,33,o),
(266,100,cs),
(266,588,ls),
(266,609,o),
(254,620,o),
(233,620,cs),
(234,620,ls),
(213,620,o),
(201,609,o),
(201,588,cs)
);
},
{
closed = 1;
nodes = (
(384,160,ls),
(384,125,o),
(404,108,o),
(429,120,cs),
(433,122,ls),
(452,131,o),
(459,156,o),
(461,186,cs),
(463,209,o),
(463,234,o),
(461,257,cs),
(458,300,o),
(442,328,o),
(409,333,cs),
(403,334,ls),
(391,336,o),
(384,326,o),
(384,310,cs)
);
}
);
width = 600;
},
{
layerId = "921C946B-68A7-49D6-9396-60D462B577B8";
shapes = (
{
closed = 1;
nodes = (
(161,249,ls),
(158,123,o),
(148,15,o),
(22,-6,cs),
(-9,-11,o),
(-26,5,o),
(-26,38,cs),
(-26,60,o),
(-16,71,o),
(10,79,cs),
(78,99,o),
(69,179,o),
(71,249,cs),
(82,650,ls),
(83,704,o),
(110,730,o),
(164,730,cs),
(280,730,ls),
(334,730,o),
(360,704,o),
(360,650,cs),
(360,450,ls),
(360,437,o),
(367,430,o),
(380,430,cs),
(420,430,ls),
(516,430,o),
(571,368,o),
(580,275,cs),
(584,235,o),
(584,195,o),
(580,155,cs),
(571,62,o),
(516,0,o),
(420,0,cs),
(360,0,ls),
(306,0,o),
(280,26,o),
(280,80,cs),
(280,615,ls),
(280,642,o),
(267,655,o),
(240,655,cs),
(211,655,ls),
(184,655,o),
(171,642,o),
(170,615,cs)
);
},
{
closed = 1;
nodes = (
(360,115,ls),
(360,88,o),
(373,75,o),
(400,75,cs),
(420,75,ls),
(468,75,o),
(491,107,o),
(496,155,cs),
(500,195,o),
(500,235,o),
(496,275,cs),
(491,323,o),
(468,355,o),
(420,355,cs),
(380,355,ls),
(367,355,o),
(360,348,o),
(360,335,cs)
);
}
);
width = 600;
},
{
layerId = "A9EA4EA3-63FD-46BE-AE35-8F493BD0E280";
shapes = (
{
closed = 1;
nodes = (
(149,160,ls),
(147,54,o),
(107,0,o),
(10,-8,cs),
(-6,-9,o),
(-15,-1,o),
(-15,16,cs),
(-15,32,o),
(-7,40,o),
(10,42,cs),
(75,49,o),
(98,84,o),
(99,160,cs),
(107,670,ls),
(108,710,o),
(128,730,o),
(168,730,cs),
(287,730,ls),
(327,730,o),
(347,710,o),
(347,670,cs),
(347,435,ls),
(347,425,o),
(352,420,o),
(362,420,cs),
(415,420,ls),
(507,420,o),
(554,362,o),
(565,270,cs),
(570,230,o),
(570,190,o),
(565,150,cs),
(554,58,o),
(507,0,o),
(415,0,cs),
(357,0,ls),
(317,0,o),
(297,20,o),
(297,60,cs),
(297,655,ls),
(297,675,o),
(287,685,o),
(267,685,cs),
(188,685,ls),
(168,685,o),
(157,675,o),
(157,655,cs)
);
},
{
closed = 1;
nodes = (
(347,75,ls),
(347,55,o),
(357,45,o),
(377,45,cs),
(415,45,ls),
(477,45,o),
(507,85,o),
(515,150,cs),
(520,190,o),
(520,230,o),
(515,270,cs),
(507,335,o),
(477,375,o),
(415,375,cs),
(362,375,ls),
(352,375,o),
(347,370,o),
(347,360,cs)
);
}
);
width = 600;
}
);
unicode = 1033;
},
